<svg xmlns="http://www.w3.org/2000/svg" xmlns:xlink="http://www.w3.org/1999/xlink" width="254" zoomAndPan="magnify" viewBox="0 0 190.5 190.499993" height="254" preserveAspectRatio="xMidYMid meet" version="1.0"><defs><clipPath id="838ed5afd9"><path d="M 19 18.597656 L 172 18.597656 L 172 170.449219 L 19 170.449219 Z M 19 18.597656 " clip-rule="nonzero"/></clipPath></defs><g clip-path="url(#838ed5afd9)"><path fill="#ffffff" d="M 130.402344 91.257812 C 129.773438 89.921875 129.1875 88.5625 128.605469 87.269531 C 134.175781 83.019531 135.734375 78.507812 133.5 73.488281 C 131.269531 68.464844 126.808594 66.695312 119.496094 68.046875 C 117.75 64.355469 115.980469 60.628906 114.222656 56.894531 C 110.769531 49.566406 107.382812 42.210938 103.855469 34.917969 C 103.660156 34.511719 103.433594 34.121094 103.171875 33.75 C 102.910156 33.382812 102.617188 33.035156 102.296875 32.71875 C 101.976562 32.398438 101.628906 32.109375 101.257812 31.851562 C 100.886719 31.589844 100.496094 31.367188 100.085938 31.175781 C 99.675781 30.984375 99.253906 30.828125 98.816406 30.710938 C 98.378906 30.589844 97.933594 30.511719 97.484375 30.472656 C 97.03125 30.429688 96.582031 30.425781 96.128906 30.464844 C 95.679688 30.5 95.234375 30.578125 94.796875 30.691406 C 94.359375 30.804688 93.933594 30.957031 93.519531 31.144531 C 93.109375 31.332031 92.714844 31.550781 92.34375 31.808594 C 91.96875 32.0625 91.621094 32.347656 91.296875 32.664062 C 90.972656 32.980469 90.675781 33.324219 90.410156 33.691406 C 90.148438 34.058594 89.914062 34.445312 89.71875 34.851562 C 89.519531 35.257812 89.359375 35.679688 89.234375 36.113281 C 89.109375 36.550781 89.019531 36.992188 88.972656 37.441406 C 88.925781 37.894531 88.914062 38.34375 88.945312 38.796875 C 90.117188 46.34375 87.703125 52.972656 83.90625 59.199219 C 81.039062 63.847656 77.628906 68.058594 73.675781 71.828125 C 69.722656 75.597656 65.355469 78.804688 60.574219 81.445312 C 51.910156 86.355469 42.785156 90.492188 33.796875 94.835938 C 22.417969 100.3125 17.25 112.082031 21.183594 123.535156 C 21.421875 124.214844 21.691406 124.878906 21.992188 125.527344 C 22.296875 126.179688 22.628906 126.816406 22.988281 127.4375 C 23.351562 128.058594 23.742188 128.660156 24.160156 129.242188 C 24.578125 129.824219 25.023438 130.386719 25.496094 130.929688 C 25.964844 131.472656 26.460938 131.988281 26.984375 132.484375 C 27.503906 132.980469 28.046875 133.449219 28.609375 133.890625 C 29.175781 134.335938 29.761719 134.75 30.363281 135.140625 C 30.96875 135.527344 31.589844 135.886719 32.226562 136.21875 C 32.863281 136.546875 33.515625 136.847656 34.183594 137.117188 C 34.847656 137.382812 35.523438 137.621094 36.214844 137.824219 C 36.902344 138.03125 37.597656 138.203125 38.300781 138.339844 C 39.007812 138.480469 39.714844 138.585938 40.429688 138.660156 C 41.144531 138.730469 41.863281 138.769531 42.578125 138.773438 C 43.296875 138.777344 44.015625 138.75 44.730469 138.6875 C 45.445312 138.625 46.15625 138.527344 46.863281 138.398438 C 47.570312 138.265625 48.265625 138.105469 48.957031 137.910156 C 50.421875 137.457031 51.144531 137.96875 51.886719 139.171875 C 54.066406 142.703125 56.363281 146.15625 58.613281 149.644531 C 62.140625 155.113281 65.632812 160.601562 69.199219 166.042969 C 69.664062 166.820312 70.238281 167.511719 70.921875 168.109375 C 71.601562 168.710938 72.359375 169.191406 73.195312 169.550781 C 74.027344 169.910156 74.898438 170.136719 75.800781 170.222656 C 76.707031 170.308594 77.601562 170.253906 78.488281 170.058594 C 79.347656 169.972656 80.171875 169.75 80.957031 169.390625 C 81.742188 169.03125 82.449219 168.554688 83.078125 167.960938 C 83.703125 167.367188 84.222656 166.691406 84.625 165.925781 C 85.03125 165.164062 85.300781 164.355469 85.4375 163.503906 C 85.75 160.976562 85.402344 158.542969 84.394531 156.203125 C 81.488281 149.390625 78.171875 142.753906 75.027344 136.066406 C 83.238281 131.472656 84.023438 130.136719 82.3125 123.808594 C 82.597656 123.589844 82.910156 123.410156 83.242188 123.269531 C 87.96875 121.730469 92.804688 120.71875 97.75 120.226562 C 102.699219 119.734375 107.640625 119.777344 112.578125 120.355469 C 115.988281 120.679688 119.253906 121.546875 122.375 122.964844 C 125.496094 124.382812 128.300781 126.269531 130.789062 128.625 C 134.207031 132.074219 138.292969 132.671875 141.6875 130.261719 C 145.011719 127.898438 145.785156 123.984375 143.753906 119.644531 C 139.304688 110.179688 134.851562 100.71875 130.402344 91.257812 Z M 128.359375 75.542969 C 129.554688 77.90625 128.910156 79.914062 126.054688 81.976562 L 122.035156 73.460938 C 125.246094 72.585938 127.21875 73.308594 128.359375 75.542969 Z M 46.304688 132.726562 C 45.332031 132.972656 44.339844 133.132812 43.339844 133.199219 C 42.335938 133.265625 41.332031 133.242188 40.332031 133.128906 C 39.332031 133.011719 38.351562 132.808594 37.390625 132.515625 C 36.429688 132.21875 35.5 131.839844 34.609375 131.378906 C 33.714844 130.914062 32.871094 130.375 32.078125 129.757812 C 31.28125 129.140625 30.550781 128.457031 29.878906 127.707031 C 29.210938 126.957031 28.613281 126.152344 28.089844 125.292969 C 27.566406 124.433594 27.125 123.53125 26.765625 122.59375 C 26.367188 121.671875 26.050781 120.722656 25.820312 119.746094 C 25.589844 118.769531 25.445312 117.777344 25.390625 116.773438 C 25.335938 115.773438 25.367188 114.773438 25.492188 113.777344 C 25.613281 112.777344 25.824219 111.800781 26.121094 110.839844 C 26.417969 109.882812 26.796875 108.957031 27.257812 108.0625 C 27.71875 107.171875 28.257812 106.328125 28.867188 105.53125 C 29.480469 104.734375 30.15625 104 30.898438 103.320312 C 31.644531 102.644531 32.441406 102.042969 33.289062 101.507812 C 38.183594 98.585938 43.527344 96.40625 48.953125 93.75 C 53.957031 104.382812 58.828125 114.71875 63.886719 125.449219 C 58.164062 128.214844 52.304688 130.640625 46.304688 132.726562 Z M 79.5 158.617188 C 80.777344 161.34375 80.457031 163.375 78.460938 164.257812 C 76.152344 165.285156 74.574219 164.238281 73.292969 162.230469 C 67.582031 153.277344 61.796875 144.367188 55.882812 135.199219 L 66.035156 130.394531 C 66.441406 131.105469 66.839844 131.710938 67.144531 132.363281 C 71.273438 141.109375 75.390625 149.859375 79.5 158.617188 Z M 72.566406 130.625 C 72.171875 129.835938 71.753906 129.046875 71.1875 127.921875 L 76.46875 125.578125 C 78.039062 128.605469 77.667969 129.046875 72.566406 130.625 Z M 139.277344 124.765625 C 139.09375 125.195312 138.796875 125.519531 138.382812 125.734375 C 137.222656 125.460938 135.691406 125.566406 134.960938 124.855469 C 132.210938 122.234375 129.125 120.097656 125.699219 118.449219 C 122.277344 116.796875 118.683594 115.710938 114.917969 115.191406 C 101.925781 113.023438 89.402344 115.210938 77.140625 119.488281 C 74.40625 120.441406 71.738281 121.585938 68.746094 122.757812 C 63.78125 112.199219 58.945312 101.921875 54.375 92.214844 C 61.40625 87.316406 68.507812 82.988281 74.890625 77.777344 C 84.097656 70.257812 91.285156 61.074219 93.933594 49.113281 C 94.488281 46.152344 94.71875 43.160156 94.621094 40.148438 C 94.621094 38.503906 94.0625 36.75 96.070312 36.105469 C 98.351562 35.375 98.878906 37.351562 99.59375 38.859375 C 106.96875 54.542969 114.34375 70.21875 121.71875 85.890625 C 127.210938 97.5625 132.703125 109.226562 138.199219 120.894531 C 138.398438 121.328125 138.542969 121.601562 138.769531 122.171875 C 139.511719 124.050781 139.34375 124.589844 139.277344 124.769531 Z M 119.585938 31.6875 C 119.335938 31.148438 119.238281 30.585938 119.289062 29.996094 C 119.34375 29.402344 119.539062 28.867188 119.882812 28.378906 C 121.726562 25.625 123.597656 22.867188 125.492188 20.171875 C 125.824219 19.675781 126.253906 19.289062 126.777344 19.011719 C 127.304688 18.730469 127.867188 18.59375 128.460938 18.597656 C 129.082031 18.621094 129.65625 18.792969 130.191406 19.109375 C 130.722656 19.429688 131.144531 19.855469 131.460938 20.390625 L 131.683594 20.722656 L 131.585938 21.117188 C 131.558594 21.328125 131.527344 21.539062 131.503906 21.765625 C 131.464844 22.441406 131.28125 23.078125 130.953125 23.667969 C 129.082031 26.550781 127.09375 29.421875 125.207031 32.09375 C 124.871094 32.597656 124.429688 32.984375 123.886719 33.25 C 123.359375 33.5 122.804688 33.601562 122.222656 33.546875 C 121.640625 33.492188 121.117188 33.292969 120.644531 32.949219 C 120.179688 32.621094 119.828125 32.203125 119.578125 31.691406 Z M 170.871094 115.425781 L 170.632812 115.742188 L 170.238281 115.785156 C 170.03125 115.828125 169.824219 115.871094 169.601562 115.925781 C 168.953125 116.113281 168.296875 116.152344 167.632812 116.039062 C 164.285156 115.238281 160.917969 114.324219 157.769531 113.4375 C 157.183594 113.285156 156.671875 113 156.238281 112.574219 C 155.828125 112.164062 155.550781 111.675781 155.410156 111.109375 C 155.265625 110.546875 155.277344 109.984375 155.441406 109.425781 C 155.558594 109.007812 155.75 108.628906 156.019531 108.289062 C 156.285156 107.949219 156.609375 107.675781 156.988281 107.464844 C 157.363281 107.25 157.769531 107.121094 158.195312 107.070312 C 158.628906 107.019531 159.050781 107.050781 159.464844 107.167969 C 162.683594 107.984375 165.902344 108.832031 169.078125 109.71875 C 169.65625 109.867188 170.164062 110.140625 170.605469 110.546875 C 171.042969 110.949219 171.363281 111.433594 171.558594 112 C 171.742188 112.589844 171.773438 113.191406 171.652344 113.800781 C 171.53125 114.40625 171.269531 114.949219 170.871094 115.425781 Z M 158.800781 62.375 C 155.90625 64.230469 152.914062 66.027344 150.09375 67.691406 C 149.578125 68.011719 149.015625 68.179688 148.410156 68.199219 C 147.824219 68.207031 147.28125 68.070312 146.773438 67.78125 C 146.265625 67.492188 145.867188 67.09375 145.578125 66.585938 C 145.359375 66.210938 145.21875 65.808594 145.160156 65.378906 C 145.101562 64.949219 145.128906 64.523438 145.238281 64.101562 C 145.347656 63.683594 145.535156 63.300781 145.800781 62.953125 C 146.0625 62.609375 146.382812 62.328125 146.757812 62.109375 C 149.578125 60.355469 152.417969 58.621094 155.253906 56.945312 C 155.761719 56.628906 156.3125 56.453125 156.910156 56.414062 C 157.507812 56.375 158.074219 56.484375 158.617188 56.734375 C 159.171875 57.011719 159.628906 57.40625 159.980469 57.914062 C 160.335938 58.425781 160.546875 58.988281 160.609375 59.605469 L 160.675781 60 L 160.425781 60.320312 C 160.3125 60.5 160.199219 60.679688 160.085938 60.878906 C 159.769531 61.472656 159.34375 61.972656 158.800781 62.375 Z M 158.800781 62.375 " fill-opacity="1" fill-rule="nonzero"/></g></svg>