<svg xmlns="http://www.w3.org/2000/svg" xmlns:xlink="http://www.w3.org/1999/xlink" width="254" zoomAndPan="magnify" viewBox="0 0 190.5 190.499993" height="254" preserveAspectRatio="xMidYMid meet" version="1.0"><defs><clipPath id="42c10c5bb7"><path d="M 24 32 L 165.28125 32 L 165.28125 156 L 24 156 Z M 24 32 " clip-rule="nonzero"/></clipPath></defs><g clip-path="url(#42c10c5bb7)"><path fill="#ffffff" d="M 164.707031 73.882812 L 137.476562 43.371094 C 137.292969 43.144531 137.078125 42.957031 136.824219 42.816406 C 136.570312 42.671875 136.300781 42.582031 136.011719 42.542969 C 135.722656 42.503906 135.4375 42.519531 135.15625 42.589844 C 134.875 42.660156 134.617188 42.777344 134.378906 42.949219 C 133.871094 43.089844 133.445312 43.363281 133.101562 43.761719 C 132.488281 44.484375 131.800781 45.121094 131.03125 45.667969 C 130.332031 46.160156 129.570312 46.515625 128.742188 46.730469 C 127.5625 47.019531 126.367188 47.195312 125.15625 47.261719 C 123.742188 47.339844 122.328125 47.34375 120.910156 47.269531 C 118.714844 47.175781 116.28125 46.929688 113.929688 46.703125 C 108.199219 45.890625 102.453125 45.800781 96.699219 46.425781 L 92.796875 46.679688 C 89.363281 46.914062 85.8125 47.152344 83.074219 47.273438 C 81.496094 47.34375 80.308594 47.359375 79.347656 47.371094 C 78.460938 47.375 77.578125 47.324219 76.699219 47.222656 C 75.394531 47.109375 74.238281 46.632812 73.230469 45.796875 C 71.710938 44.34375 70.394531 42.726562 69.28125 40.941406 L 64.285156 33.597656 C 64.101562 33.292969 63.855469 33.050781 63.554688 32.867188 C 62.988281 32.609375 62.398438 32.523438 61.78125 32.613281 C 61.167969 32.699219 60.625 32.949219 60.15625 33.355469 L 25.441406 57.558594 C 25.175781 57.742188 24.953125 57.964844 24.765625 58.230469 C 24.484375 58.53125 24.285156 58.882812 24.167969 59.28125 C 23.976562 59.984375 24.066406 60.648438 24.429688 61.28125 C 28.710938 68.628906 33.34375 76.527344 38.203125 84.75 C 42.289062 91.664062 46.863281 99.347656 52.167969 108.226562 C 51.671875 108.988281 51.285156 109.800781 51.011719 110.664062 C 50.738281 111.53125 50.582031 112.417969 50.546875 113.324219 C 50.511719 114.234375 50.597656 115.128906 50.804688 116.011719 C 51.007812 116.898438 51.328125 117.738281 51.761719 118.535156 C 52.195312 119.335938 52.730469 120.058594 53.359375 120.714844 C 53.988281 121.367188 54.695312 121.929688 55.476562 122.390625 C 56.257812 122.855469 57.085938 123.207031 57.960938 123.445312 C 58.835938 123.6875 59.726562 123.804688 60.636719 123.804688 C 60.800781 123.800781 60.960938 123.789062 61.125 123.765625 L 61.140625 123.765625 L 61.140625 123.78125 C 61.117188 123.941406 61.101562 124.105469 61.101562 124.265625 C 61.09375 125.59375 61.34375 126.871094 61.847656 128.101562 C 62.347656 129.328125 63.066406 130.417969 64 131.359375 L 64.046875 131.40625 C 64.96875 132.328125 66.027344 133.042969 67.222656 133.550781 C 68.417969 134.058594 69.667969 134.324219 70.96875 134.347656 L 71.191406 134.363281 C 71.351562 134.359375 71.515625 134.34375 71.675781 134.320312 L 71.691406 134.320312 L 71.691406 134.339844 C 71.667969 134.5 71.65625 134.660156 71.652344 134.824219 C 71.644531 136.152344 71.894531 137.429688 72.398438 138.660156 C 72.898438 139.886719 73.617188 140.972656 74.554688 141.917969 L 74.664062 142.027344 C 75.605469 142.957031 76.6875 143.671875 77.914062 144.171875 C 79.136719 144.671875 80.410156 144.921875 81.734375 144.917969 C 81.894531 144.914062 82.058594 144.898438 82.21875 144.875 L 82.238281 144.875 L 82.238281 144.894531 C 82.214844 145.054688 82.199219 145.214844 82.195312 145.378906 C 82.191406 146.679688 82.433594 147.933594 82.917969 149.140625 C 83.402344 150.347656 84.09375 151.417969 84.996094 152.355469 L 85.148438 152.519531 C 85.601562 152.972656 86.09375 153.382812 86.628906 153.742188 C 87.160156 154.101562 87.722656 154.40625 88.3125 154.660156 C 88.90625 154.910156 89.515625 155.105469 90.144531 155.242188 C 90.769531 155.378906 91.40625 155.453125 92.046875 155.464844 C 92.691406 155.480469 93.328125 155.433594 93.960938 155.328125 C 94.597656 155.21875 95.214844 155.054688 95.816406 154.828125 C 96.417969 154.601562 96.992188 154.324219 97.542969 153.988281 C 98.089844 153.652344 98.601562 153.269531 99.074219 152.835938 C 99.121094 152.914062 99.175781 152.984375 99.242188 153.050781 C 99.703125 153.511719 100.207031 153.921875 100.746094 154.285156 C 101.289062 154.648438 101.863281 154.957031 102.464844 155.210938 C 103.066406 155.460938 103.6875 155.65625 104.328125 155.785156 C 104.964844 155.917969 105.613281 155.988281 106.265625 155.996094 C 106.917969 156.003906 107.566406 155.945312 108.207031 155.828125 C 108.847656 155.707031 109.472656 155.53125 110.082031 155.289062 C 110.6875 155.050781 111.265625 154.753906 111.816406 154.402344 C 112.367188 154.050781 112.878906 153.648438 113.351562 153.199219 L 113.574219 152.984375 C 114.5 152.042969 115.214844 150.960938 115.714844 149.734375 C 116.214844 148.511719 116.464844 147.238281 116.460938 145.914062 L 116.449219 145.695312 L 116.441406 145.695312 C 116.441406 145.605469 116.421875 145.515625 116.410156 145.429688 L 116.410156 145.410156 L 116.429688 145.410156 C 116.59375 145.433594 116.757812 145.445312 116.921875 145.449219 C 117.582031 145.449219 118.238281 145.386719 118.890625 145.257812 C 119.539062 145.128906 120.171875 144.9375 120.785156 144.683594 C 121.398438 144.433594 121.980469 144.121094 122.53125 143.753906 C 123.082031 143.386719 123.59375 142.964844 124.0625 142.496094 C 124.527344 142.027344 124.949219 141.519531 125.316406 140.96875 C 125.683594 140.414062 125.992188 139.832031 126.246094 139.222656 C 126.5 138.609375 126.691406 137.976562 126.820312 137.328125 C 126.949219 136.675781 127.011719 136.019531 127.011719 135.355469 C 127.007812 135.195312 126.992188 135.03125 126.96875 134.871094 L 126.96875 134.851562 L 126.984375 134.851562 C 127.148438 134.878906 127.308594 134.890625 127.472656 134.894531 C 128.132812 134.894531 128.789062 134.828125 129.441406 134.699219 C 130.089844 134.570312 130.722656 134.378906 131.335938 134.128906 C 131.945312 133.875 132.527344 133.5625 133.078125 133.195312 C 133.632812 132.828125 134.140625 132.410156 134.609375 131.941406 C 135.078125 131.472656 135.496094 130.960938 135.863281 130.410156 C 136.234375 129.859375 136.542969 129.277344 136.796875 128.664062 C 137.050781 128.050781 137.242188 127.421875 137.371094 126.769531 C 137.5 126.121094 137.5625 125.464844 137.5625 124.800781 C 137.558594 124.640625 137.546875 124.476562 137.523438 124.316406 L 137.523438 124.300781 L 137.539062 124.300781 C 137.699219 124.324219 137.863281 124.335938 138.023438 124.339844 L 138.246094 124.328125 C 138.683594 124.324219 139.117188 124.285156 139.546875 124.222656 C 139.980469 124.15625 140.40625 124.066406 140.828125 123.945312 C 141.246094 123.824219 141.65625 123.679688 142.058594 123.503906 C 142.457031 123.332031 142.847656 123.132812 143.222656 122.910156 C 143.597656 122.6875 143.953125 122.4375 144.296875 122.167969 C 144.640625 121.898438 144.964844 121.605469 145.269531 121.292969 C 145.574219 120.980469 145.855469 120.648438 146.117188 120.296875 C 146.378906 119.949219 146.617188 119.582031 146.828125 119.199219 C 147.042969 118.820312 147.230469 118.425781 147.394531 118.023438 C 147.554688 117.617188 147.691406 117.203125 147.800781 116.777344 C 147.90625 116.355469 147.988281 115.925781 148.039062 115.492188 C 148.09375 115.058594 148.117188 114.625 148.113281 114.1875 C 148.109375 113.75 148.074219 113.316406 148.015625 112.886719 C 147.953125 112.453125 147.863281 112.027344 147.746094 111.605469 C 147.632812 111.183594 147.488281 110.773438 147.316406 110.371094 C 147.148438 109.96875 146.953125 109.578125 146.730469 109.203125 C 150.117188 103.546875 153.132812 98.492188 155.746094 94.097656 C 158.492188 89.480469 161.578125 84.253906 164.925781 78.574219 C 165.042969 78.363281 165.132812 78.136719 165.203125 77.902344 C 165.5625 76.496094 165.398438 75.15625 164.707031 73.882812 Z M 64.042969 117.125 L 64 117.175781 C 63.773438 117.394531 63.527344 117.589844 63.261719 117.757812 C 63 117.929688 62.71875 118.070312 62.425781 118.1875 C 62.136719 118.300781 61.835938 118.386719 61.527344 118.445312 C 61.214844 118.5 60.90625 118.527344 60.589844 118.523438 C 60.277344 118.519531 59.964844 118.484375 59.65625 118.421875 C 59.351562 118.355469 59.050781 118.261719 58.761719 118.136719 C 58.472656 118.015625 58.199219 117.863281 57.941406 117.6875 C 57.679688 117.511719 57.441406 117.3125 57.21875 117.085938 C 57 116.863281 56.800781 116.621094 56.628906 116.359375 C 56.457031 116.097656 56.308594 115.820312 56.191406 115.527344 C 56.070312 115.238281 55.980469 114.9375 55.921875 114.628906 C 55.859375 114.320312 55.828125 114.011719 55.832031 113.695312 C 55.832031 113.382812 55.859375 113.070312 55.921875 112.761719 C 55.984375 112.453125 56.074219 112.15625 56.191406 111.863281 C 56.3125 111.574219 56.460938 111.296875 56.632812 111.035156 C 56.808594 110.773438 57.003906 110.53125 57.226562 110.308594 L 68.734375 98.796875 C 68.960938 98.578125 69.203125 98.386719 69.46875 98.214844 C 69.730469 98.042969 70.007812 97.898438 70.296875 97.785156 C 70.589844 97.667969 70.890625 97.578125 71.195312 97.519531 C 71.503906 97.464844 71.816406 97.433594 72.128906 97.4375 C 72.441406 97.441406 72.753906 97.472656 73.058594 97.535156 C 73.367188 97.597656 73.664062 97.691406 73.953125 97.8125 C 74.242188 97.933594 74.519531 98.078125 74.777344 98.253906 C 75.039062 98.429688 75.28125 98.625 75.5 98.847656 C 75.722656 99.070312 75.921875 99.3125 76.097656 99.570312 C 76.269531 99.832031 76.417969 100.105469 76.539062 100.394531 C 76.660156 100.683594 76.753906 100.980469 76.816406 101.289062 C 76.878906 101.597656 76.914062 101.90625 76.914062 102.21875 C 76.917969 102.535156 76.890625 102.84375 76.832031 103.152344 C 76.773438 103.460938 76.6875 103.757812 76.570312 104.050781 C 76.453125 104.339844 76.3125 104.617188 76.140625 104.882812 C 75.96875 105.144531 75.777344 105.390625 75.558594 105.613281 Z M 74.597656 127.675781 C 74.144531 128.125 73.621094 128.472656 73.03125 128.714844 C 72.441406 128.960938 71.824219 129.078125 71.1875 129.078125 L 71.019531 129.085938 C 69.773438 129.046875 68.707031 128.589844 67.816406 127.714844 L 67.753906 127.652344 C 67.535156 127.429688 67.339844 127.183594 67.167969 126.921875 C 66.992188 126.65625 66.847656 126.378906 66.730469 126.085938 C 66.613281 125.796875 66.523438 125.496094 66.460938 125.1875 C 66.402344 124.875 66.375 124.566406 66.375 124.25 C 66.375 123.933594 66.40625 123.621094 66.46875 123.3125 C 66.53125 123.003906 66.621094 122.707031 66.742188 122.414062 C 66.863281 122.125 67.007812 121.847656 67.183594 121.585938 C 67.355469 121.320312 67.554688 121.078125 67.777344 120.855469 L 79.246094 109.363281 L 79.339844 109.269531 C 80.269531 108.394531 81.375 107.960938 82.652344 107.96875 L 82.804688 107.96875 C 84.082031 108.003906 85.167969 108.472656 86.066406 109.382812 L 86.160156 109.464844 C 87.035156 110.398438 87.46875 111.503906 87.460938 112.78125 L 87.472656 112.945312 C 87.429688 114.214844 86.957031 115.296875 86.058594 116.191406 Z M 85.148438 138.230469 C 84.921875 138.453125 84.679688 138.652344 84.414062 138.824219 C 84.152344 139 83.875 139.148438 83.582031 139.269531 C 83.289062 139.386719 82.988281 139.480469 82.675781 139.539062 C 82.367188 139.601562 82.054688 139.632812 81.738281 139.632812 C 81.421875 139.632812 81.109375 139.601562 80.796875 139.539062 C 80.488281 139.480469 80.1875 139.386719 79.894531 139.269531 C 79.601562 139.148438 79.324219 139 79.058594 138.824219 C 78.796875 138.652344 78.550781 138.453125 78.328125 138.230469 L 78.171875 138.382812 L 78.304688 138.207031 C 78.085938 137.984375 77.890625 137.738281 77.71875 137.476562 C 77.546875 137.210938 77.398438 136.933594 77.28125 136.640625 C 77.164062 136.351562 77.074219 136.050781 77.015625 135.742188 C 76.953125 135.429688 76.925781 135.121094 76.925781 134.804688 C 76.925781 134.488281 76.957031 134.175781 77.019531 133.867188 C 77.082031 133.558594 77.171875 133.261719 77.292969 132.96875 C 77.414062 132.679688 77.558594 132.402344 77.734375 132.140625 C 77.90625 131.875 78.105469 131.632812 78.328125 131.410156 L 89.550781 120.1875 C 89.773438 119.96875 90.015625 119.769531 90.277344 119.597656 C 90.539062 119.421875 90.8125 119.277344 91.101562 119.15625 C 91.394531 119.035156 91.691406 118.945312 92 118.882812 C 92.304688 118.820312 92.617188 118.789062 92.929688 118.785156 C 93.242188 118.785156 93.554688 118.8125 93.863281 118.871094 C 94.171875 118.929688 94.472656 119.015625 94.761719 119.132812 C 95.054688 119.25 95.332031 119.394531 95.59375 119.5625 C 95.855469 119.734375 96.101562 119.929688 96.328125 120.144531 L 96.394531 120.210938 C 96.613281 120.4375 96.808594 120.679688 96.980469 120.945312 C 97.15625 121.207031 97.300781 121.484375 97.417969 121.777344 C 97.535156 122.070312 97.625 122.371094 97.6875 122.679688 C 97.746094 122.988281 97.773438 123.300781 97.773438 123.613281 C 97.773438 123.929688 97.742188 124.242188 97.679688 124.550781 C 97.617188 124.859375 97.527344 125.160156 97.40625 125.449219 C 97.285156 125.742188 97.136719 126.015625 96.964844 126.277344 C 96.789062 126.542969 96.589844 126.785156 96.371094 127.007812 Z M 95.695312 148.78125 C 95.46875 149.003906 95.226562 149.199219 94.960938 149.375 C 94.695312 149.550781 94.417969 149.695312 94.125 149.816406 C 93.832031 149.9375 93.53125 150.027344 93.21875 150.085938 C 92.910156 150.148438 92.597656 150.179688 92.28125 150.179688 C 91.964844 150.179688 91.652344 150.148438 91.339844 150.085938 C 91.03125 150.023438 90.726562 149.933594 90.4375 149.8125 C 90.144531 149.691406 89.867188 149.542969 89.601562 149.367188 C 89.339844 149.191406 89.09375 148.996094 88.871094 148.769531 L 88.773438 148.679688 C 88.5625 148.449219 88.375 148.207031 88.210938 147.941406 C 88.046875 147.679688 87.910156 147.402344 87.796875 147.113281 C 87.6875 146.824219 87.605469 146.527344 87.550781 146.222656 C 87.496094 145.917969 87.472656 145.609375 87.476562 145.296875 C 87.480469 144.988281 87.515625 144.683594 87.578125 144.378906 C 87.640625 144.074219 87.734375 143.78125 87.851562 143.492188 C 87.972656 143.207031 88.121094 142.9375 88.292969 142.679688 C 88.464844 142.421875 88.660156 142.179688 88.875 141.960938 L 100.101562 130.734375 C 100.324219 130.511719 100.570312 130.3125 100.832031 130.136719 C 101.097656 129.960938 101.375 129.8125 101.667969 129.691406 C 101.957031 129.570312 102.261719 129.480469 102.570312 129.417969 C 102.882812 129.359375 103.195312 129.328125 103.511719 129.328125 C 103.828125 129.328125 104.140625 129.359375 104.453125 129.421875 C 104.761719 129.480469 105.0625 129.574219 105.355469 129.695312 C 105.648438 129.816406 105.925781 129.964844 106.1875 130.140625 C 106.453125 130.316406 106.695312 130.515625 106.917969 130.742188 C 107.144531 130.964844 107.34375 131.207031 107.519531 131.472656 C 107.695312 131.734375 107.84375 132.011719 107.964844 132.304688 C 108.085938 132.597656 108.175781 132.898438 108.238281 133.210938 C 108.300781 133.519531 108.328125 133.835938 108.328125 134.152344 C 108.328125 134.46875 108.300781 134.78125 108.238281 135.089844 C 108.175781 135.402344 108.082031 135.703125 107.960938 135.996094 C 107.839844 136.289062 107.691406 136.566406 107.515625 136.828125 C 107.339844 137.09375 107.140625 137.335938 106.917969 137.558594 Z M 111.1875 145.894531 C 111.1875 146.535156 111.066406 147.148438 110.820312 147.742188 C 110.578125 148.332031 110.226562 148.855469 109.773438 149.304688 L 109.675781 149.40625 C 109.449219 149.617188 109.203125 149.804688 108.941406 149.96875 C 108.675781 150.132812 108.398438 150.273438 108.109375 150.382812 C 107.820312 150.496094 107.523438 150.578125 107.21875 150.632812 C 106.914062 150.683594 106.605469 150.710938 106.296875 150.707031 C 105.984375 150.699219 105.679688 150.664062 105.375 150.601562 C 105.070312 150.539062 104.777344 150.445312 104.492188 150.328125 C 104.203125 150.207031 103.933594 150.058594 103.675781 149.886719 C 103.417969 149.714844 103.179688 149.519531 102.957031 149.300781 C 102.902344 149.246094 102.835938 149.199219 102.769531 149.15625 L 109.628906 142.296875 C 109.671875 142.367188 109.71875 142.429688 109.777344 142.484375 L 109.871094 142.582031 C 110.691406 143.449219 111.128906 144.480469 111.175781 145.671875 Z M 141.449219 117.648438 C 140.574219 118.535156 139.511719 119.007812 138.269531 119.0625 L 138.046875 119.0625 C 137.410156 119.066406 136.792969 118.949219 136.203125 118.703125 C 135.609375 118.460938 135.089844 118.113281 134.636719 117.664062 L 114.679688 97.699219 C 114.433594 97.460938 114.148438 97.277344 113.824219 97.148438 C 113.503906 97.023438 113.171875 96.960938 112.824219 96.964844 C 112.480469 96.96875 112.148438 97.035156 111.832031 97.171875 C 111.511719 97.304688 111.230469 97.492188 110.988281 97.738281 C 110.742188 97.980469 110.554688 98.261719 110.417969 98.582031 C 110.285156 98.898438 110.21875 99.230469 110.214844 99.578125 C 110.210938 99.921875 110.273438 100.253906 110.398438 100.578125 C 110.527344 100.898438 110.710938 101.183594 110.949219 101.433594 L 130.894531 121.378906 C 131.113281 121.601562 131.3125 121.839844 131.484375 122.101562 C 131.65625 122.359375 131.804688 122.632812 131.925781 122.921875 C 132.042969 123.210938 132.136719 123.507812 132.199219 123.8125 C 132.261719 124.117188 132.296875 124.425781 132.300781 124.738281 C 132.300781 125.050781 132.277344 125.363281 132.21875 125.667969 C 132.164062 125.976562 132.078125 126.273438 131.964844 126.566406 C 131.851562 126.855469 131.710938 127.132812 131.542969 127.398438 C 131.375 127.660156 131.1875 127.90625 130.972656 128.132812 L 130.894531 128.199219 C 130.671875 128.421875 130.425781 128.617188 130.164062 128.792969 C 129.902344 128.96875 129.621094 129.113281 129.332031 129.234375 C 129.039062 129.355469 128.738281 129.445312 128.425781 129.507812 C 128.117188 129.570312 127.804688 129.597656 127.488281 129.597656 C 127.171875 129.597656 126.859375 129.570312 126.550781 129.507812 C 126.238281 129.445312 125.9375 129.355469 125.644531 129.234375 C 125.355469 129.113281 125.078125 128.96875 124.8125 128.792969 C 124.550781 128.617188 124.304688 128.421875 124.082031 128.199219 L 104.128906 108.25 C 103.882812 108.003906 103.597656 107.8125 103.273438 107.675781 C 102.949219 107.542969 102.613281 107.476562 102.261719 107.476562 C 101.914062 107.476562 101.574219 107.542969 101.253906 107.675781 C 100.929688 107.8125 100.644531 108 100.394531 108.25 C 100.148438 108.496094 99.957031 108.78125 99.824219 109.105469 C 99.691406 109.429688 99.625 109.765625 99.625 110.117188 C 99.625 110.464844 99.691406 110.804688 99.824219 111.125 C 99.960938 111.449219 100.152344 111.734375 100.398438 111.984375 L 120.351562 131.929688 C 120.570312 132.152344 120.765625 132.398438 120.933594 132.660156 C 121.105469 132.925781 121.25 133.203125 121.367188 133.492188 C 121.484375 133.785156 121.574219 134.082031 121.632812 134.390625 C 121.691406 134.699219 121.71875 135.011719 121.714844 135.324219 C 121.714844 135.640625 121.679688 135.949219 121.617188 136.257812 C 121.554688 136.566406 121.464844 136.863281 121.34375 137.152344 C 121.222656 137.441406 121.074219 137.71875 120.898438 137.980469 C 120.722656 138.238281 120.527344 138.480469 120.304688 138.703125 C 120.082031 138.925781 119.839844 139.125 119.578125 139.296875 C 119.320312 139.472656 119.042969 139.621094 118.753906 139.742188 C 118.464844 139.863281 118.167969 139.957031 117.859375 140.019531 C 117.550781 140.082031 117.242188 140.113281 116.925781 140.117188 C 116.613281 140.117188 116.300781 140.089844 115.992188 140.03125 C 115.683594 139.972656 115.386719 139.886719 115.09375 139.769531 C 114.804688 139.652344 114.527344 139.507812 114.261719 139.335938 C 114 139.164062 113.753906 138.972656 113.53125 138.753906 C 113.296875 138.523438 113.023438 138.34375 112.71875 138.222656 C 113.136719 137.300781 113.410156 136.335938 113.535156 135.332031 C 113.660156 134.328125 113.636719 133.328125 113.457031 132.328125 C 113.277344 131.332031 112.953125 130.386719 112.488281 129.488281 C 112.019531 128.589844 111.429688 127.78125 110.714844 127.0625 L 110.664062 127.003906 C 109.71875 126.054688 108.628906 125.324219 107.390625 124.816406 C 106.152344 124.304688 104.863281 124.050781 103.523438 124.054688 C 103.363281 124.058594 103.199219 124.070312 103.039062 124.09375 L 103.019531 124.09375 L 103.019531 124.078125 C 103.042969 123.917969 103.058594 123.753906 103.0625 123.59375 C 102.980469 122.117188 102.667969 120.695312 102.125 119.324219 C 101.617188 118.1875 100.949219 117.152344 100.125 116.222656 C 99.195312 115.230469 98.136719 114.410156 96.945312 113.753906 C 95.757812 113.097656 94.496094 112.644531 93.160156 112.390625 C 93.121094 111.101562 92.863281 109.855469 92.378906 108.65625 C 91.894531 107.457031 91.21875 106.382812 90.347656 105.425781 C 89.308594 104.339844 88.089844 103.5 86.703125 102.910156 C 85.316406 102.324219 83.871094 102.03125 82.363281 102.039062 C 82.273438 100.425781 81.851562 98.910156 81.089844 97.484375 C 80.609375 96.589844 80.011719 95.78125 79.300781 95.058594 C 78.828125 94.589844 78.320312 94.175781 77.769531 93.804688 C 77.214844 93.4375 76.632812 93.128906 76.023438 92.875 C 75.410156 92.621094 74.777344 92.429688 74.128906 92.300781 C 73.476562 92.171875 72.820312 92.109375 72.160156 92.109375 C 71.496094 92.109375 70.839844 92.171875 70.1875 92.300781 C 69.539062 92.429688 68.90625 92.621094 68.292969 92.875 C 67.683594 93.128906 67.101562 93.4375 66.546875 93.804688 C 65.996094 94.175781 65.488281 94.589844 65.015625 95.058594 L 55.894531 104.179688 C 51.070312 96.113281 46.765625 88.878906 42.738281 82.070312 C 38.367188 74.675781 34.160156 67.507812 30.1875 60.695312 L 61.496094 38.867188 L 62.367188 40.15625 L 64.949219 43.921875 C 66.320312 46.109375 67.953125 48.078125 69.84375 49.832031 C 71.628906 51.347656 73.683594 52.210938 76.011719 52.433594 C 77.113281 52.566406 78.214844 52.632812 79.320312 52.628906 C 80.382812 52.644531 81.570312 52.605469 83.296875 52.53125 C 83.6875 52.511719 84.105469 52.488281 84.519531 52.464844 L 84.550781 52.464844 L 74.164062 62.847656 C 73.695312 63.316406 73.28125 63.824219 72.914062 64.371094 C 72.546875 64.921875 72.238281 65.5 71.984375 66.109375 C 71.734375 66.71875 71.539062 67.34375 71.410156 67.992188 C 71.28125 68.640625 71.214844 69.292969 71.214844 69.953125 C 71.210938 70.609375 71.273438 71.265625 71.398438 71.910156 C 71.523438 72.558594 71.710938 73.1875 71.960938 73.800781 C 72.210938 74.410156 72.515625 74.992188 72.878906 75.539062 C 73.242188 76.089844 73.65625 76.601562 74.117188 77.070312 L 74.167969 77.121094 C 74.628906 77.582031 75.132812 77.996094 75.675781 78.359375 C 76.21875 78.722656 76.789062 79.03125 77.390625 79.285156 C 77.996094 79.535156 78.617188 79.730469 79.253906 79.863281 C 79.894531 79.996094 80.542969 80.0625 81.195312 80.070312 C 81.847656 80.078125 82.496094 80.023438 83.140625 79.902344 C 83.78125 79.785156 84.40625 79.605469 85.015625 79.363281 C 85.621094 79.125 86.199219 78.828125 86.75 78.476562 C 87.300781 78.125 87.8125 77.722656 88.285156 77.269531 L 98.089844 67.476562 L 141.449219 110.828125 C 141.671875 111.050781 141.871094 111.296875 142.046875 111.558594 C 142.222656 111.824219 142.367188 112.101562 142.488281 112.394531 C 142.609375 112.6875 142.699219 112.988281 142.761719 113.296875 C 142.824219 113.609375 142.855469 113.921875 142.855469 114.238281 C 142.855469 114.554688 142.824219 114.867188 142.761719 115.179688 C 142.699219 115.488281 142.609375 115.789062 142.488281 116.082031 C 142.367188 116.375 142.222656 116.652344 142.046875 116.917969 C 141.871094 117.179688 141.671875 117.425781 141.449219 117.648438 Z M 151.21875 91.414062 C 148.328125 96.28125 145.628906 100.804688 143.101562 105.023438 L 99.980469 61.914062 L 99.949219 61.875 C 99.699219 61.628906 99.414062 61.4375 99.089844 61.304688 C 98.769531 61.167969 98.433594 61.101562 98.082031 61.101562 C 97.730469 61.101562 97.394531 61.167969 97.070312 61.304688 C 96.75 61.4375 96.464844 61.628906 96.214844 61.875 L 84.609375 73.492188 C 84.378906 73.699219 84.132812 73.882812 83.867188 74.042969 C 83.601562 74.203125 83.324219 74.335938 83.03125 74.445312 C 82.742188 74.550781 82.441406 74.628906 82.136719 74.679688 C 81.832031 74.726562 81.523438 74.746094 81.210938 74.738281 C 80.902344 74.726562 80.597656 74.6875 80.292969 74.617188 C 79.992188 74.550781 79.699219 74.453125 79.414062 74.328125 C 79.132812 74.199219 78.863281 74.050781 78.609375 73.871094 C 78.355469 73.695312 78.121094 73.496094 77.902344 73.273438 C 77.6875 73.050781 77.496094 72.808594 77.324219 72.550781 C 77.15625 72.289062 77.011719 72.015625 76.898438 71.730469 C 76.78125 71.441406 76.691406 71.144531 76.632812 70.839844 C 76.574219 70.539062 76.542969 70.230469 76.542969 69.921875 C 76.542969 69.609375 76.570312 69.300781 76.628906 69 C 76.6875 68.695312 76.773438 68.398438 76.890625 68.109375 C 77.007812 67.824219 77.148438 67.546875 77.316406 67.289062 C 77.484375 67.027344 77.675781 66.785156 77.890625 66.5625 L 89.351562 55.109375 C 95.078125 50.113281 104.820312 51.078125 113.414062 51.925781 L 113.574219 51.941406 C 116.070312 52.191406 118.429688 52.421875 120.691406 52.523438 C 122.285156 52.597656 123.875 52.59375 125.464844 52.511719 C 127.003906 52.429688 128.523438 52.207031 130.023438 51.84375 C 131.472656 51.472656 132.8125 50.855469 134.039062 49.992188 C 134.5 49.664062 134.9375 49.3125 135.355469 48.933594 L 160.011719 76.574219 C 157.535156 80.75 154.597656 85.722656 151.214844 91.414062 Z M 151.21875 91.414062 " fill-opacity="1" fill-rule="nonzero"/></g></svg>