<svg xmlns="http://www.w3.org/2000/svg" xmlns:xlink="http://www.w3.org/1999/xlink" width="254" zoomAndPan="magnify" viewBox="0 0 190.5 190.499993" height="254" preserveAspectRatio="xMidYMid meet" version="1.0"><defs><clipPath id="e9bc48443f"><path d="M 33.449219 31.882812 L 156 31.882812 L 156 154.558594 L 33.449219 154.558594 Z M 33.449219 31.882812 " clip-rule="nonzero"/></clipPath></defs><g clip-path="url(#e9bc48443f)"><path fill="#ffffff" d="M 87.609375 31.882812 Z M 80.019531 68.761719 C 80.488281 68.949219 81 69.101562 81.550781 69.203125 L 80.882812 70.871094 C 80.523438 71.765625 80.957031 72.78125 81.851562 73.140625 C 82.746094 73.5 83.761719 73.0625 84.121094 72.167969 L 85.125 69.671875 L 85.476562 69.714844 C 87.4375 69.964844 89.460938 69.582031 91.128906 68.765625 C 92.886719 67.914062 94.308594 66.554688 94.972656 64.90625 C 95.152344 64.464844 95.269531 64.007812 95.328125 63.554688 L 95.328125 63.546875 C 95.484375 62.289062 95.171875 61.085938 94.46875 60.066406 C 93.816406 59.121094 92.832031 58.34375 91.597656 57.847656 C 90.972656 57.597656 90.273438 57.414062 89.515625 57.316406 L 86.136719 56.890625 C 85.691406 56.835938 85.28125 56.730469 84.914062 56.582031 C 84.328125 56.347656 83.882812 56.007812 83.617188 55.621094 C 83.398438 55.300781 83.296875 54.929688 83.347656 54.550781 L 83.351562 54.546875 C 83.371094 54.386719 83.414062 54.222656 83.480469 54.0625 C 83.804688 53.253906 84.597656 52.539062 85.617188 52.042969 C 86.722656 51.507812 88.035156 51.253906 89.296875 51.410156 L 90.890625 51.613281 C 90.953125 51.625 91.015625 51.628906 91.078125 51.636719 L 92.675781 51.839844 C 93.117188 51.894531 93.527344 52 93.894531 52.148438 C 94.480469 52.382812 94.925781 52.71875 95.195312 53.109375 C 95.414062 53.425781 95.511719 53.796875 95.464844 54.179688 C 95.445312 54.328125 95.398438 54.492188 95.328125 54.667969 C 94.972656 55.5625 95.40625 56.578125 96.300781 56.9375 C 97.195312 57.296875 98.210938 56.859375 98.570312 55.964844 C 98.746094 55.523438 98.863281 55.070312 98.921875 54.617188 L 98.921875 54.609375 C 99.082031 53.347656 98.765625 52.148438 98.0625 51.132812 C 97.410156 50.183594 96.429688 49.40625 95.191406 48.910156 C 94.71875 48.722656 94.207031 48.570312 93.65625 48.46875 L 94.328125 46.796875 C 94.6875 45.902344 94.25 44.886719 93.359375 44.527344 C 92.464844 44.171875 91.445312 44.605469 91.089844 45.5 L 90.082031 48 L 89.71875 47.953125 C 87.761719 47.707031 85.746094 48.085938 84.074219 48.902344 C 82.316406 49.757812 80.894531 51.117188 80.230469 52.761719 C 80.046875 53.21875 79.925781 53.675781 79.878906 54.125 C 79.71875 55.386719 80.035156 56.585938 80.734375 57.605469 C 81.386719 58.550781 82.375 59.328125 83.605469 59.824219 C 84.230469 60.074219 84.929688 60.257812 85.691406 60.351562 L 89.066406 60.777344 C 89.511719 60.832031 89.921875 60.941406 90.289062 61.085938 C 90.875 61.324219 91.316406 61.660156 91.585938 62.046875 C 91.804688 62.363281 91.90625 62.734375 91.855469 63.117188 C 91.839844 63.265625 91.792969 63.433594 91.722656 63.605469 C 91.398438 64.414062 90.601562 65.128906 89.585938 65.625 C 88.480469 66.164062 87.164062 66.417969 85.902344 66.257812 L 84.316406 66.058594 C 84.246094 66.046875 84.183594 66.039062 84.117188 66.035156 L 82.527344 65.832031 C 82.082031 65.777344 81.671875 65.671875 81.304688 65.523438 C 80.71875 65.289062 80.277344 64.953125 80.007812 64.5625 C 79.789062 64.246094 79.6875 63.875 79.738281 63.492188 C 79.753906 63.34375 79.800781 63.179688 79.871094 63.003906 C 80.230469 62.109375 79.792969 61.09375 78.902344 60.734375 C 78.007812 60.375 76.988281 60.8125 76.632812 61.707031 C 76.453125 62.148438 76.335938 62.601562 76.277344 63.054688 L 76.277344 63.0625 C 76.121094 64.324219 76.433594 65.523438 77.136719 66.539062 C 77.796875 67.488281 78.785156 68.265625 80.019531 68.761719 Z M 87.609375 38.902344 Z M 41.722656 58.832031 C 41.722656 53.035156 47.082031 47.929688 55.738281 44.363281 C 63.929688 40.988281 75.203125 38.902344 87.609375 38.902344 C 100.019531 38.902344 111.289062 40.988281 119.480469 44.363281 C 128.140625 47.929688 133.496094 53.035156 133.496094 58.832031 C 133.496094 64.628906 128.140625 69.738281 119.480469 73.300781 C 111.289062 76.675781 100.019531 78.765625 87.609375 78.765625 C 75.203125 78.765625 63.929688 76.675781 55.738281 73.300781 C 47.082031 69.738281 41.722656 64.628906 41.722656 58.832031 Z M 45.222656 58.832031 C 45.222656 63.078125 49.746094 67.0625 57.0625 70.078125 C 64.84375 73.285156 75.640625 75.265625 87.609375 75.265625 C 99.578125 75.265625 110.375 73.28125 118.15625 70.078125 C 125.472656 67.0625 129.996094 63.078125 129.996094 58.832031 C 129.996094 54.589844 125.472656 50.601562 118.15625 47.589844 C 110.375 44.382812 99.578125 42.402344 87.609375 42.402344 C 75.640625 42.402344 64.84375 44.386719 57.0625 47.589844 C 49.746094 50.601562 45.222656 54.589844 45.222656 58.832031 Z M 155.941406 83.660156 L 155.941406 102.589844 C 155.941406 106.992188 153.886719 111.125 150.234375 114.761719 C 150.152344 114.859375 150.0625 114.953125 149.960938 115.03125 C 149.214844 115.753906 148.40625 116.457031 147.53125 117.136719 L 147.535156 127.421875 C 147.535156 135.109375 141.289062 141.957031 131.1875 146.8125 C 121.476562 151.484375 108.105469 154.371094 93.378906 154.371094 C 78.652344 154.371094 65.28125 151.480469 55.570312 146.8125 C 45.46875 141.957031 39.222656 135.109375 39.222656 127.421875 L 39.222656 108.496094 C 39.222656 108.496094 39.222656 108.496094 39.222656 108.492188 C 39.222656 105.714844 40.046875 103.035156 41.578125 100.511719 C 42.714844 98.640625 44.246094 96.859375 46.121094 95.199219 C 43.535156 93.671875 41.285156 91.996094 39.429688 90.199219 C 39.328125 90.121094 39.242188 90.035156 39.160156 89.9375 C 35.503906 86.296875 33.449219 82.167969 33.449219 77.765625 L 33.449219 58.832031 C 33.449219 51.148438 39.699219 44.300781 49.796875 39.441406 C 59.511719 34.773438 72.882812 31.882812 87.609375 31.882812 C 102.335938 31.882812 115.710938 34.773438 125.417969 39.441406 C 135.519531 44.300781 141.765625 51.148438 141.765625 58.835938 L 141.765625 65.382812 C 146.015625 67.675781 149.460938 70.351562 151.882812 73.296875 C 154.5 76.476562 155.941406 79.976562 155.941406 83.660156 Z M 141.765625 69.386719 L 141.765625 73.703125 C 143.503906 75.035156 144.894531 76.476562 145.882812 78.003906 C 147.046875 79.792969 147.667969 81.691406 147.667969 83.664062 C 147.667969 89.351562 142.519531 94.371094 134.164062 97.921875 C 126.273438 101.273438 115.386719 103.410156 103.320312 103.574219 C 103.246094 103.589844 103.164062 103.597656 103.085938 103.609375 C 102.9375 103.632812 102.792969 103.652344 102.644531 103.671875 C 102.03125 103.757812 101.414062 103.84375 100.792969 103.917969 C 100.746094 103.925781 100.699219 103.929688 100.65625 103.9375 C 100.652344 103.9375 100.648438 103.9375 100.644531 103.9375 C 100.636719 103.9375 100.628906 103.941406 100.613281 103.941406 C 100.535156 103.949219 100.453125 103.957031 100.375 103.96875 C 99.820312 104.03125 99.269531 104.09375 98.714844 104.152344 C 98.621094 104.160156 98.53125 104.167969 98.4375 104.179688 C 97.804688 104.242188 97.167969 104.296875 96.527344 104.351562 C 96.464844 104.355469 96.40625 104.363281 96.34375 104.367188 C 96.25 104.371094 96.148438 104.382812 96.054688 104.386719 C 95.84375 104.402344 95.636719 104.417969 95.425781 104.433594 C 95.328125 104.4375 95.230469 104.445312 95.128906 104.453125 C 92.671875 104.621094 90.160156 104.707031 87.609375 104.707031 C 85.078125 104.707031 82.585938 104.621094 80.144531 104.453125 C 80.019531 104.445312 79.890625 104.4375 79.765625 104.429688 C 79.574219 104.417969 79.382812 104.402344 79.1875 104.386719 C 79.085938 104.378906 78.976562 104.371094 78.871094 104.363281 L 78.402344 104.324219 C 78.285156 104.3125 78.164062 104.304688 78.050781 104.292969 L 77.820312 104.273438 C 77.878906 104.289062 77.933594 104.304688 77.992188 104.316406 C 78.515625 104.449219 79.042969 104.578125 79.578125 104.699219 C 79.578125 104.699219 79.582031 104.699219 79.582031 104.699219 C 79.945312 104.78125 80.316406 104.863281 80.683594 104.945312 C 80.730469 104.953125 80.777344 104.964844 80.824219 104.976562 C 83.46875 105.542969 86.238281 106.003906 89.101562 106.351562 C 89.121094 106.355469 89.132812 106.355469 89.152344 106.359375 C 93.191406 106.847656 97.421875 107.109375 101.785156 107.109375 C 106.128906 107.109375 110.347656 106.851562 114.375 106.367188 C 114.414062 106.359375 114.449219 106.355469 114.492188 106.351562 C 116.183594 106.148438 117.847656 105.902344 119.464844 105.617188 C 120.570312 105.425781 121.660156 105.210938 122.726562 104.984375 C 122.792969 104.964844 122.859375 104.949219 122.929688 104.941406 C 122.933594 104.941406 122.9375 104.9375 122.941406 104.9375 C 124.078125 104.695312 125.191406 104.425781 126.28125 104.140625 C 127.929688 103.714844 129.519531 103.242188 131.050781 102.730469 C 131.140625 102.691406 131.234375 102.660156 131.332031 102.636719 C 133.75 101.816406 136.007812 100.90625 138.089844 99.90625 C 138.527344 99.695312 138.957031 99.476562 139.378906 99.261719 C 139.464844 99.207031 139.558594 99.160156 139.652344 99.121094 C 142.792969 97.46875 145.445312 95.625 147.511719 93.632812 C 147.59375 93.53125 147.6875 93.441406 147.789062 93.355469 C 150.769531 90.382812 152.4375 87.09375 152.4375 83.660156 C 152.4375 80.808594 151.285156 78.050781 149.1875 75.503906 C 147.371094 73.296875 144.855469 71.234375 141.765625 69.386719 Z M 136.628906 70.421875 C 136.570312 70.484375 136.507812 70.546875 136.449219 70.609375 L 136.449219 83.910156 C 136.554688 83.742188 136.652344 83.570312 136.742188 83.398438 C 136.804688 83.285156 136.863281 83.171875 136.921875 83.058594 C 136.957031 82.984375 136.996094 82.914062 137.03125 82.839844 C 137.105469 82.691406 137.175781 82.542969 137.238281 82.394531 C 137.253906 82.363281 137.265625 82.332031 137.28125 82.300781 C 137.351562 82.144531 137.417969 81.980469 137.480469 81.820312 C 137.492188 81.792969 137.503906 81.769531 137.511719 81.742188 C 137.574219 81.582031 137.632812 81.421875 137.683594 81.257812 C 137.691406 81.226562 137.707031 81.195312 137.714844 81.164062 C 137.765625 81.007812 137.8125 80.851562 137.855469 80.695312 C 137.867188 80.652344 137.875 80.613281 137.890625 80.570312 C 137.929688 80.421875 137.964844 80.273438 138 80.128906 C 138.011719 80.074219 138.023438 80.015625 138.03125 79.960938 C 138.0625 79.824219 138.089844 79.691406 138.113281 79.550781 C 138.125 79.476562 138.132812 79.402344 138.144531 79.324219 C 138.164062 79.207031 138.183594 79.085938 138.195312 78.96875 C 138.207031 78.863281 138.214844 78.761719 138.222656 78.65625 C 138.230469 78.5625 138.242188 78.46875 138.246094 78.371094 C 138.257812 78.191406 138.261719 78.015625 138.261719 77.835938 C 138.261719 77.8125 138.265625 77.792969 138.265625 77.765625 L 138.265625 68.496094 C 138.230469 68.546875 138.1875 68.59375 138.148438 68.644531 C 138.03125 68.800781 137.90625 68.957031 137.777344 69.113281 C 137.71875 69.1875 137.660156 69.257812 137.597656 69.332031 C 137.476562 69.476562 137.351562 69.628906 137.21875 69.769531 C 137.152344 69.84375 137.085938 69.921875 137.019531 69.996094 C 136.894531 70.136719 136.761719 70.28125 136.628906 70.421875 Z M 98.332031 100.679688 C 98.457031 100.667969 98.578125 100.652344 98.703125 100.640625 L 98.703125 85.226562 C 97.042969 85.394531 95.351562 85.53125 93.636719 85.621094 L 93.636719 101.046875 C 94.207031 101.015625 94.773438 100.980469 95.34375 100.9375 C 95.429688 100.933594 95.523438 100.925781 95.613281 100.917969 C 95.832031 100.902344 96.050781 100.882812 96.273438 100.867188 C 96.890625 100.816406 97.503906 100.761719 98.113281 100.699219 C 98.1875 100.695312 98.257812 100.683594 98.332031 100.679688 Z M 79.808594 100.9375 C 80.394531 100.980469 80.984375 101.015625 81.578125 101.050781 L 81.578125 85.625 C 79.863281 85.53125 78.175781 85.398438 76.515625 85.230469 L 76.515625 100.640625 C 76.617188 100.652344 76.71875 100.667969 76.816406 100.675781 C 76.921875 100.683594 77.027344 100.695312 77.128906 100.710938 C 77.714844 100.769531 78.304688 100.820312 78.902344 100.867188 C 79.171875 100.890625 79.4375 100.910156 79.707031 100.933594 C 79.738281 100.929688 79.777344 100.933594 79.808594 100.9375 Z M 124.9375 108.070312 L 124.9375 123.414062 C 126.6875 122.992188 128.378906 122.519531 130 122.003906 L 130 106.722656 C 128.367188 107.21875 126.679688 107.667969 124.9375 108.070312 Z M 133.496094 105.582031 L 133.496094 120.800781 C 135.113281 120.191406 136.644531 119.539062 138.089844 118.84375 C 138.246094 118.769531 138.402344 118.6875 138.558594 118.613281 L 138.558594 103.539062 C 136.964844 104.269531 135.273438 104.949219 133.496094 105.582031 Z M 121.4375 108.808594 C 119.789062 109.125 118.097656 109.402344 116.375 109.640625 L 116.375 125.039062 C 118.101562 124.792969 119.792969 124.507812 121.4375 124.183594 Z M 112.875 125.472656 L 112.875 110.058594 C 111.214844 110.226562 109.527344 110.363281 107.816406 110.453125 L 107.816406 125.878906 C 109.53125 125.78125 111.214844 125.644531 112.875 125.472656 Z M 101.78125 110.617188 C 100.933594 110.617188 100.089844 110.605469 99.25 110.585938 L 99.25 126.003906 C 99.925781 126.023438 100.601562 126.035156 101.28125 126.042969 C 101.449219 126.042969 101.613281 126.046875 101.78125 126.046875 C 102.628906 126.046875 103.476562 126.039062 104.3125 126.015625 L 104.3125 110.589844 C 103.476562 110.605469 102.632812 110.617188 101.78125 110.617188 Z M 128.308594 76.71875 C 128.167969 76.800781 128.027344 76.875 127.882812 76.957031 L 127.882812 91.851562 C 128.578125 91.429688 129.246094 91 129.871094 90.558594 C 131.003906 89.761719 132.03125 88.933594 132.949219 88.082031 L 132.949219 73.695312 C 132.9375 73.703125 132.925781 73.710938 132.914062 73.71875 C 132.851562 73.769531 132.785156 73.8125 132.71875 73.863281 C 132.527344 74.007812 132.332031 74.152344 132.128906 74.292969 C 132.035156 74.363281 131.941406 74.425781 131.847656 74.492188 C 131.671875 74.617188 131.496094 74.742188 131.3125 74.859375 C 131.207031 74.933594 131.097656 75.003906 130.988281 75.078125 C 130.816406 75.191406 130.648438 75.304688 130.46875 75.417969 C 130.351562 75.492188 130.238281 75.566406 130.117188 75.640625 C 129.945312 75.75 129.769531 75.855469 129.59375 75.964844 C 129.472656 76.035156 129.347656 76.109375 129.222656 76.1875 C 129.046875 76.292969 128.863281 76.398438 128.683594 76.503906 C 128.5625 76.578125 128.4375 76.648438 128.308594 76.71875 Z M 124.386719 78.710938 C 122.789062 79.4375 121.097656 80.121094 119.324219 80.753906 L 119.324219 95.964844 C 120.015625 95.703125 120.699219 95.429688 121.378906 95.144531 C 122.421875 94.707031 123.425781 94.25 124.382812 93.777344 L 124.382812 78.710938 Z M 115.824219 81.894531 C 114.191406 82.386719 112.503906 82.835938 110.761719 83.242188 L 110.761719 98.582031 C 111.492188 98.402344 112.222656 98.21875 112.945312 98.019531 L 113.046875 97.996094 C 113.085938 97.988281 113.128906 97.976562 113.164062 97.964844 C 113.757812 97.800781 114.347656 97.632812 114.929688 97.453125 C 115 97.433594 115.074219 97.410156 115.144531 97.390625 C 115.375 97.320312 115.597656 97.246094 115.824219 97.171875 Z M 107.261719 83.980469 C 105.613281 84.296875 103.925781 84.574219 102.199219 84.808594 L 102.199219 100.210938 C 102.359375 100.1875 102.527344 100.164062 102.6875 100.140625 C 102.839844 100.117188 102.992188 100.09375 103.140625 100.074219 C 103.371094 100.039062 103.601562 100.003906 103.828125 99.964844 C 103.984375 99.941406 104.144531 99.917969 104.296875 99.890625 C 104.417969 99.867188 104.539062 99.847656 104.667969 99.828125 C 105.539062 99.679688 106.402344 99.519531 107.261719 99.347656 Z M 90.140625 101.183594 L 90.140625 85.757812 C 89.300781 85.773438 88.457031 85.785156 87.605469 85.785156 C 86.757812 85.785156 85.914062 85.777344 85.074219 85.757812 L 85.074219 101.183594 C 85.914062 101.203125 86.757812 101.214844 87.605469 101.214844 C 88.457031 101.214844 89.300781 101.207031 90.140625 101.183594 Z M 82.125 124.101562 C 83.789062 124.433594 85.476562 124.722656 87.191406 124.972656 L 87.191406 109.640625 C 85.464844 109.40625 83.777344 109.128906 82.125 108.8125 Z M 90.6875 110.054688 L 90.6875 125.414062 C 92.363281 125.597656 94.050781 125.742188 95.753906 125.84375 L 95.753906 110.453125 C 94.039062 110.359375 92.351562 110.222656 90.6875 110.054688 Z M 52.90625 108.664062 L 52.941406 108.722656 L 52.941406 98.554688 C 52.847656 98.515625 52.75 98.476562 52.652344 98.4375 C 52.421875 98.34375 52.195312 98.238281 51.964844 98.136719 C 51.816406 98.074219 51.671875 98.011719 51.523438 97.949219 C 51.390625 97.890625 51.253906 97.835938 51.121094 97.773438 L 51.121094 102.589844 C 51.121094 102.976562 51.144531 103.359375 51.1875 103.742188 C 51.199219 103.832031 51.210938 103.925781 51.222656 104.015625 C 51.234375 104.089844 51.242188 104.164062 51.253906 104.234375 C 51.269531 104.324219 51.285156 104.414062 51.300781 104.507812 C 51.324219 104.636719 51.347656 104.769531 51.375 104.902344 C 51.445312 105.191406 51.519531 105.460938 51.597656 105.714844 C 51.652344 105.890625 51.707031 106.066406 51.765625 106.242188 C 51.878906 106.570312 52.003906 106.882812 52.144531 107.199219 C 52.203125 107.320312 52.261719 107.445312 52.320312 107.566406 C 52.324219 107.570312 52.324219 107.574219 52.324219 107.578125 C 52.351562 107.628906 52.378906 107.683594 52.402344 107.734375 C 52.53125 107.992188 52.671875 108.253906 52.832031 108.535156 C 52.855469 108.578125 52.878906 108.621094 52.90625 108.664062 Z M 64.453125 83.242188 C 62.710938 82.839844 61.023438 82.386719 59.386719 81.894531 L 59.386719 97.171875 L 59.785156 97.300781 L 61.445312 97.792969 C 61.457031 97.792969 61.46875 97.800781 61.476562 97.804688 C 61.566406 97.828125 61.65625 97.855469 61.75 97.878906 C 62.058594 97.964844 62.363281 98.046875 62.664062 98.128906 C 62.699219 98.136719 62.738281 98.144531 62.773438 98.15625 C 62.949219 98.203125 63.125 98.246094 63.296875 98.292969 C 63.550781 98.359375 63.800781 98.421875 64.054688 98.484375 C 64.1875 98.515625 64.320312 98.546875 64.457031 98.578125 L 64.457031 83.242188 Z M 58.015625 114.269531 C 58.207031 114.421875 58.402344 114.574219 58.597656 114.726562 C 58.675781 114.769531 58.738281 114.820312 58.800781 114.875 L 59.664062 115.496094 C 59.984375 115.71875 60.332031 115.949219 60.710938 116.191406 L 61.460938 116.660156 C 61.472656 116.671875 61.488281 116.675781 61.5 116.683594 L 61.5 101.785156 C 61.382812 101.71875 61.257812 101.652344 61.140625 101.585938 C 60.972656 101.492188 60.8125 101.398438 60.648438 101.304688 C 60.527344 101.234375 60.402344 101.164062 60.28125 101.09375 L 58.761719 100.632812 C 58.238281 100.46875 57.710938 100.300781 57.171875 100.121094 C 57.101562 100.101562 57.027344 100.078125 56.960938 100.046875 C 56.886719 100.023438 56.816406 100 56.742188 99.972656 C 56.675781 99.953125 56.613281 99.929688 56.546875 99.90625 C 56.507812 99.894531 56.472656 99.882812 56.4375 99.871094 L 56.4375 112.867188 C 56.890625 113.316406 57.398438 113.769531 58.015625 114.269531 Z M 70.066406 120.730469 L 70.066406 105.582031 C 69.996094 105.558594 69.921875 105.53125 69.851562 105.503906 C 69.660156 105.433594 69.46875 105.363281 69.277344 105.292969 C 69.074219 105.21875 68.867188 105.144531 68.667969 105.066406 C 68.476562 104.992188 68.292969 104.921875 68.101562 104.847656 C 67.902344 104.769531 67.703125 104.691406 67.507812 104.613281 C 67.324219 104.539062 67.140625 104.464844 66.960938 104.386719 C 66.765625 104.308594 66.570312 104.226562 66.378906 104.144531 C 66.199219 104.070312 66.019531 103.988281 65.84375 103.914062 C 65.652344 103.828125 65.460938 103.746094 65.273438 103.660156 C 65.179688 103.621094 65.09375 103.578125 65 103.535156 L 65 118.566406 C 66.609375 119.347656 68.300781 120.070312 70.066406 120.730469 Z M 73.015625 100.210938 L 73.015625 84.808594 C 71.289062 84.574219 69.601562 84.296875 67.949219 83.980469 L 67.949219 99.347656 C 68.15625 99.386719 68.359375 99.433594 68.566406 99.472656 C 68.589844 99.476562 68.613281 99.480469 68.640625 99.488281 C 69.257812 99.605469 69.882812 99.71875 70.511719 99.820312 C 70.660156 99.847656 70.808594 99.875 70.957031 99.898438 C 71.082031 99.917969 71.207031 99.9375 71.332031 99.960938 C 71.59375 100 71.851562 100.042969 72.113281 100.082031 C 72.234375 100.101562 72.355469 100.117188 72.480469 100.136719 C 72.660156 100.160156 72.835938 100.1875 73.015625 100.210938 Z M 50.824219 78.707031 L 50.824219 93.777344 C 50.875 93.800781 50.921875 93.824219 50.972656 93.851562 C 51.050781 93.890625 51.128906 93.925781 51.207031 93.964844 C 52.085938 94.390625 53.015625 94.804688 53.992188 95.210938 C 54.613281 95.472656 55.25 95.722656 55.890625 95.964844 L 55.890625 80.75 C 54.117188 80.117188 52.425781 79.4375 50.824219 78.707031 Z M 77.457031 107.792969 C 77.269531 107.746094 77.089844 107.699219 76.910156 107.652344 C 76.648438 107.585938 76.390625 107.519531 76.132812 107.453125 C 75.925781 107.398438 75.726562 107.34375 75.523438 107.289062 C 75.292969 107.222656 75.058594 107.160156 74.832031 107.097656 C 74.621094 107.039062 74.417969 106.976562 74.210938 106.917969 C 73.996094 106.851562 73.777344 106.792969 73.5625 106.726562 L 73.5625 121.929688 C 75.203125 122.441406 76.894531 122.910156 78.628906 123.328125 L 78.628906 108.070312 C 78.234375 107.980469 77.84375 107.886719 77.457031 107.792969 Z M 125.15625 97.289062 C 127.941406 96.550781 130.507812 95.6875 132.796875 94.714844 C 139.835938 91.722656 144.167969 87.8125 144.167969 83.667969 C 144.167969 82.386719 143.75 81.121094 142.960938 79.90625 C 142.625 79.386719 142.21875 78.875 141.753906 78.375 C 141.753906 78.386719 141.75 78.40625 141.75 78.421875 C 141.746094 78.464844 141.746094 78.507812 141.746094 78.550781 C 141.742188 78.621094 141.730469 78.6875 141.730469 78.757812 C 141.726562 78.824219 141.71875 78.886719 141.714844 78.953125 C 141.707031 79.015625 141.703125 79.082031 141.699219 79.144531 C 141.691406 79.210938 141.683594 79.277344 141.675781 79.34375 C 141.667969 79.414062 141.660156 79.480469 141.648438 79.550781 C 141.625 79.753906 141.59375 79.953125 141.5625 80.152344 C 141.550781 80.207031 141.542969 80.261719 141.53125 80.316406 C 141.488281 80.542969 141.441406 80.769531 141.390625 80.996094 C 141.382812 81.023438 141.378906 81.046875 141.371094 81.074219 C 141.054688 82.398438 140.554688 83.6875 139.875 84.9375 C 139.859375 84.976562 139.835938 85.011719 139.816406 85.050781 C 139.707031 85.246094 139.59375 85.441406 139.476562 85.636719 C 139.4375 85.703125 139.398438 85.773438 139.359375 85.835938 C 139.261719 85.992188 139.164062 86.148438 139.058594 86.304688 C 138.996094 86.394531 138.941406 86.492188 138.875 86.582031 C 138.800781 86.691406 138.722656 86.800781 138.644531 86.90625 C 137.882812 87.984375 136.992188 89.03125 135.976562 90.03125 C 135.9375 90.074219 135.898438 90.113281 135.855469 90.152344 C 134.679688 91.296875 133.351562 92.390625 131.882812 93.421875 C 130.378906 94.476562 128.738281 95.46875 126.976562 96.386719 C 126.972656 96.386719 126.96875 96.386719 126.964844 96.390625 C 126.957031 96.394531 126.949219 96.398438 126.941406 96.402344 C 126.621094 96.574219 126.296875 96.738281 125.964844 96.898438 C 125.902344 96.929688 125.84375 96.960938 125.78125 96.988281 C 125.574219 97.082031 125.367188 97.1875 125.15625 97.289062 Z M 42.261719 88.101562 C 43.695312 89.429688 45.394531 90.6875 47.328125 91.863281 L 47.328125 76.957031 C 47.183594 76.875 47.042969 76.800781 46.902344 76.71875 C 46.78125 76.648438 46.660156 76.582031 46.539062 76.511719 C 46.351562 76.402344 46.167969 76.296875 45.984375 76.191406 C 45.863281 76.121094 45.75 76.050781 45.628906 75.976562 C 45.445312 75.867188 45.265625 75.753906 45.085938 75.640625 C 44.976562 75.570312 44.863281 75.5 44.753906 75.429688 C 44.570312 75.3125 44.390625 75.195312 44.210938 75.074219 C 44.109375 75.007812 44.007812 74.941406 43.90625 74.875 C 43.71875 74.746094 43.53125 74.617188 43.347656 74.484375 C 43.261719 74.425781 43.175781 74.363281 43.09375 74.304688 C 42.878906 74.152344 42.671875 74 42.460938 73.84375 C 42.410156 73.804688 42.359375 73.769531 42.304688 73.726562 C 42.292969 73.71875 42.277344 73.707031 42.261719 73.695312 Z M 48.035156 137.761719 C 49.46875 139.089844 51.167969 140.347656 53.097656 141.523438 L 53.097656 126.613281 C 52.960938 126.535156 52.820312 126.460938 52.683594 126.382812 C 52.550781 126.308594 52.417969 126.230469 52.285156 126.152344 C 52.113281 126.054688 51.941406 125.953125 51.769531 125.851562 C 51.640625 125.773438 51.511719 125.699219 51.386719 125.621094 C 51.214844 125.515625 51.042969 125.414062 50.875 125.304688 C 50.753906 125.230469 50.632812 125.152344 50.511719 125.074219 C 50.339844 124.964844 50.171875 124.851562 50 124.742188 C 49.890625 124.667969 49.777344 124.59375 49.671875 124.523438 C 49.492188 124.402344 49.320312 124.28125 49.144531 124.15625 C 49.050781 124.089844 48.953125 124.023438 48.855469 123.957031 C 48.65625 123.8125 48.464844 123.671875 48.273438 123.527344 C 48.203125 123.476562 48.136719 123.429688 48.074219 123.378906 C 48.058594 123.371094 48.046875 123.359375 48.039062 123.355469 L 48.039062 137.761719 Z M 65.15625 131.550781 L 65.15625 146.832031 C 66.78125 147.347656 68.472656 147.816406 70.222656 148.242188 L 70.222656 132.898438 C 68.480469 132.496094 66.792969 132.046875 65.15625 131.550781 Z M 73.722656 149.011719 C 75.367188 149.339844 77.058594 149.625 78.789062 149.867188 L 78.789062 134.46875 C 77.0625 134.230469 75.371094 133.953125 73.722656 133.636719 Z M 82.285156 150.300781 C 83.945312 150.472656 85.632812 150.609375 87.347656 150.707031 L 87.347656 135.28125 C 85.636719 135.191406 83.945312 135.054688 82.285156 134.886719 Z M 99.410156 135.28125 L 99.410156 150.703125 C 101.125 150.609375 102.8125 150.472656 104.46875 150.296875 L 104.46875 134.882812 C 102.8125 135.054688 101.121094 135.1875 99.410156 135.28125 Z M 107.96875 149.867188 C 109.699219 149.625 111.386719 149.339844 113.035156 149.011719 L 113.035156 133.636719 C 111.386719 133.953125 109.699219 134.230469 107.96875 134.46875 Z M 116.53125 148.242188 C 118.28125 147.820312 119.972656 147.347656 121.59375 146.832031 L 121.59375 131.558594 C 121.566406 131.566406 121.542969 131.574219 121.519531 131.582031 C 119.910156 132.0625 118.246094 132.503906 116.53125 132.898438 Z M 133.65625 126.613281 L 133.65625 141.523438 C 135.585938 140.347656 137.285156 139.089844 138.722656 137.761719 L 138.722656 123.359375 C 138.714844 123.363281 138.707031 123.371094 138.699219 123.375 C 138.515625 123.515625 138.324219 123.652344 138.136719 123.785156 C 137.976562 123.902344 137.820312 124.019531 137.660156 124.132812 C 137.453125 124.277344 137.242188 124.417969 137.035156 124.558594 C 136.878906 124.664062 136.730469 124.765625 136.574219 124.871094 C 136.347656 125.019531 136.109375 125.164062 135.878906 125.3125 C 135.726562 125.402344 135.582031 125.5 135.433594 125.589844 C 135.183594 125.742188 134.925781 125.894531 134.667969 126.042969 C 134.527344 126.125 134.390625 126.210938 134.246094 126.292969 C 134.050781 126.398438 133.851562 126.507812 133.65625 126.613281 Z M 144.808594 114.847656 C 145.644531 114.226562 146.417969 113.589844 147.128906 112.933594 L 147.128906 98.527344 C 147.117188 98.539062 147.101562 98.546875 147.089844 98.558594 C 147.035156 98.597656 146.980469 98.640625 146.929688 98.679688 C 146.722656 98.832031 146.515625 98.988281 146.300781 99.136719 C 146.214844 99.199219 146.128906 99.257812 146.042969 99.320312 C 145.859375 99.449219 145.671875 99.578125 145.484375 99.707031 C 145.382812 99.777344 145.28125 99.84375 145.179688 99.910156 C 145 100.03125 144.820312 100.144531 144.636719 100.265625 C 144.527344 100.335938 144.417969 100.40625 144.304688 100.476562 C 144.125 100.589844 143.941406 100.699219 143.757812 100.8125 C 143.644531 100.882812 143.527344 100.953125 143.410156 101.023438 C 143.226562 101.136719 143.035156 101.242188 142.851562 101.351562 C 142.730469 101.421875 142.613281 101.492188 142.496094 101.558594 C 142.351562 101.636719 142.207031 101.71875 142.0625 101.796875 L 142.0625 116.652344 C 142.953125 116.125 143.835938 115.578125 144.753906 114.890625 C 144.773438 114.867188 144.792969 114.859375 144.808594 114.847656 Z M 36.949219 58.832031 C 36.949219 60.734375 37.460938 62.59375 38.421875 64.375 C 39.199219 65.8125 40.265625 67.199219 41.59375 68.523438 C 41.695312 68.609375 41.792969 68.703125 41.878906 68.808594 C 43.941406 70.796875 46.59375 72.644531 49.730469 74.292969 C 49.828125 74.335938 49.917969 74.378906 50.003906 74.433594 C 50.429688 74.65625 50.859375 74.875 51.300781 75.085938 C 53.382812 76.085938 55.648438 77 58.066406 77.820312 C 58.15625 77.839844 58.246094 77.871094 58.328125 77.90625 C 60.878906 78.757812 63.601562 79.5 66.46875 80.117188 C 66.53125 80.128906 66.597656 80.144531 66.65625 80.160156 C 69.296875 80.726562 72.058594 81.183594 74.917969 81.535156 C 74.941406 81.535156 74.964844 81.539062 74.988281 81.542969 C 79.023438 82.03125 83.25 82.289062 87.605469 82.289062 C 91.960938 82.289062 96.183594 82.03125 100.21875 81.546875 C 100.246094 81.542969 100.273438 81.539062 100.300781 81.535156 C 103.160156 81.191406 105.921875 80.726562 108.566406 80.160156 C 108.621094 80.144531 108.679688 80.132812 108.738281 80.125 C 111.605469 79.503906 114.328125 78.761719 116.882812 77.910156 C 116.96875 77.875 117.054688 77.847656 117.144531 77.820312 C 119.566406 77.003906 121.832031 76.089844 123.914062 75.085938 C 124.355469 74.875 124.785156 74.660156 125.210938 74.4375 C 125.292969 74.386719 125.382812 74.339844 125.476562 74.304688 C 128.617188 72.652344 131.273438 70.804688 133.335938 68.8125 C 133.417969 68.707031 133.511719 68.617188 133.617188 68.539062 C 135.285156 66.867188 136.542969 65.105469 137.328125 63.265625 C 137.941406 61.828125 138.265625 60.347656 138.265625 58.839844 C 138.265625 52.605469 132.78125 46.851562 123.914062 42.585938 C 114.660156 38.136719 101.820312 35.386719 87.605469 35.386719 C 73.386719 35.386719 60.554688 38.136719 51.300781 42.585938 C 42.433594 46.847656 36.949219 52.601562 36.949219 58.832031 Z M 36.949219 77.765625 C 36.949219 79.878906 37.582031 81.941406 38.761719 83.90625 L 38.761719 70.605469 C 38.707031 70.546875 38.648438 70.488281 38.589844 70.425781 C 38.453125 70.28125 38.316406 70.132812 38.183594 69.984375 C 38.121094 69.914062 38.054688 69.839844 37.996094 69.769531 C 37.863281 69.617188 37.734375 69.46875 37.609375 69.316406 C 37.550781 69.246094 37.492188 69.175781 37.433594 69.109375 C 37.304688 68.953125 37.183594 68.792969 37.0625 68.636719 C 37.023438 68.585938 36.984375 68.539062 36.949219 68.492188 Z M 44.554688 102.316406 C 43.359375 104.28125 42.71875 106.355469 42.71875 108.492188 C 42.71875 109.53125 42.875 110.558594 43.167969 111.566406 C 44.644531 116.601562 49.683594 121.191406 57.074219 124.746094 C 66.328125 129.195312 79.160156 131.949219 93.378906 131.949219 C 103.355469 131.949219 112.65625 130.589844 120.519531 128.234375 C 120.738281 128.171875 120.949219 128.105469 121.164062 128.039062 C 121.40625 127.960938 121.648438 127.886719 121.890625 127.8125 C 122.117188 127.738281 122.34375 127.660156 122.570312 127.585938 C 122.75 127.527344 122.933594 127.46875 123.113281 127.40625 C 121.785156 127.691406 120.5 127.929688 119.234375 128.132812 C 117.808594 128.371094 116.351562 128.578125 114.875 128.761719 C 114.839844 128.765625 114.804688 128.769531 114.773438 128.773438 C 111.03125 129.226562 107.144531 129.484375 103.144531 129.535156 C 103.140625 129.535156 103.140625 129.535156 103.136719 129.535156 C 102.6875 129.539062 102.238281 129.542969 101.785156 129.542969 C 97.3125 129.542969 92.960938 129.273438 88.800781 128.773438 C 88.765625 128.769531 88.726562 128.761719 88.691406 128.761719 C 86.839844 128.535156 85.023438 128.261719 83.253906 127.945312 C 73.15625 126.988281 64.328125 124.617188 58.035156 121.363281 C 51.4375 117.945312 47.496094 113.484375 47.496094 108.492188 C 47.496094 107.933594 47.550781 107.355469 47.664062 106.765625 L 47.664062 106.761719 C 47.734375 106.371094 47.832031 105.984375 47.953125 105.601562 C 47.851562 105.140625 47.777344 104.679688 47.722656 104.210938 C 47.722656 104.199219 47.71875 104.1875 47.71875 104.179688 C 47.71875 104.175781 47.71875 104.167969 47.71875 104.167969 C 47.664062 103.648438 47.632812 103.125 47.628906 102.601562 C 47.628906 102.597656 47.628906 102.597656 47.628906 102.59375 L 47.628906 98.546875 C 46.375 99.753906 45.34375 101.015625 44.554688 102.316406 Z M 42.71875 127.421875 C 42.71875 129.539062 43.355469 131.597656 44.535156 133.566406 L 44.535156 120.269531 C 44.472656 120.207031 44.417969 120.144531 44.359375 120.078125 C 44.222656 119.9375 44.089844 119.792969 43.964844 119.648438 C 43.894531 119.574219 43.828125 119.5 43.761719 119.421875 C 43.632812 119.277344 43.511719 119.132812 43.386719 118.984375 C 43.324219 118.910156 43.261719 118.835938 43.199219 118.761719 C 43.078125 118.613281 42.957031 118.457031 42.839844 118.304688 C 42.800781 118.253906 42.757812 118.203125 42.714844 118.148438 L 42.714844 127.421875 Z M 57.070312 143.671875 C 58.515625 144.367188 60.046875 145.015625 61.660156 145.625 L 61.660156 130.40625 C 59.886719 129.777344 58.195312 129.09375 56.59375 128.363281 L 56.59375 143.433594 C 56.753906 143.515625 56.910156 143.59375 57.070312 143.671875 Z M 95.910156 150.84375 L 95.910156 135.414062 C 95.074219 135.433594 94.230469 135.445312 93.378906 135.445312 C 92.53125 135.445312 91.683594 135.4375 90.847656 135.414062 L 90.847656 150.84375 C 91.683594 150.859375 92.53125 150.871094 93.378906 150.871094 C 94.226562 150.875 95.074219 150.863281 95.910156 150.84375 Z M 129.683594 143.671875 C 129.84375 143.59375 130 143.515625 130.15625 143.4375 L 130.15625 128.367188 C 129.84375 128.511719 129.527344 128.652344 129.203125 128.789062 C 129.144531 128.816406 129.082031 128.84375 129.019531 128.875 C 128.570312 129.070312 128.109375 129.257812 127.648438 129.445312 C 127.636719 129.453125 127.621094 129.457031 127.609375 129.460938 C 126.792969 129.789062 125.953125 130.105469 125.09375 130.410156 L 125.09375 145.625 C 126.707031 145.019531 128.238281 144.367188 129.683594 143.671875 Z M 144.039062 119.574219 C 143.472656 119.9375 142.839844 120.300781 142.21875 120.636719 L 142.21875 133.566406 C 143.402344 131.601562 144.039062 129.539062 144.039062 127.421875 Z M 152.339844 93.453125 C 152.214844 93.617188 152.082031 93.78125 151.949219 93.945312 C 151.894531 94.011719 151.839844 94.078125 151.785156 94.144531 C 151.65625 94.300781 151.527344 94.453125 151.390625 94.605469 C 151.328125 94.671875 151.269531 94.746094 151.207031 94.8125 C 151.070312 94.960938 150.933594 95.113281 150.792969 95.261719 C 150.738281 95.320312 150.679688 95.382812 150.625 95.4375 L 150.625 108.738281 C 151.808594 106.773438 152.445312 104.707031 152.445312 102.59375 L 152.445312 93.324219 C 152.410156 93.367188 152.375 93.410156 152.339844 93.453125 Z M 152.339844 93.453125 " fill-opacity="1" fill-rule="nonzero"/></g></svg>