<svg xmlns="http://www.w3.org/2000/svg" xmlns:xlink="http://www.w3.org/1999/xlink" width="254" zoomAndPan="magnify" viewBox="0 0 190.5 190.499993" height="254" preserveAspectRatio="xMidYMid meet" version="1.0"><defs><clipPath id="e971be1a7a"><path d="M 44.25 32 L 145.238281 32 L 145.238281 154.558594 L 44.25 154.558594 Z M 44.25 32 " clip-rule="nonzero"/></clipPath></defs><g clip-path="url(#e971be1a7a)"><path fill="#ffffff" d="M 60.695312 86.96875 C 60.347656 89.476562 59.988281 91.984375 59.640625 94.492188 C 59.414062 96.105469 59.199219 97.71875 58.976562 99.347656 C 59.269531 99.433594 59.464844 99.507812 59.664062 99.546875 C 63.5 100.261719 67.324219 101.019531 71.175781 101.65625 C 72.058594 101.777344 72.859375 102.101562 73.582031 102.625 C 74.304688 103.148438 74.859375 103.8125 75.25 104.613281 C 76.078125 106.167969 76.890625 107.722656 77.710938 109.273438 C 78.789062 111.292969 79.863281 113.3125 80.96875 115.402344 C 81.292969 115.261719 81.5625 115.148438 81.824219 115.023438 C 85.269531 113.402344 88.726562 111.796875 92.164062 110.152344 C 92.945312 109.75 93.777344 109.550781 94.65625 109.554688 C 95.535156 109.5625 96.363281 109.769531 97.140625 110.179688 C 100.53125 111.855469 103.929688 113.503906 107.328125 115.15625 C 107.558594 115.269531 107.800781 115.355469 108.046875 115.460938 C 108.226562 115.148438 108.382812 114.894531 108.527344 114.636719 C 110.347656 111.355469 112.164062 108.074219 113.984375 104.792969 C 114.371094 104.035156 114.910156 103.40625 115.601562 102.902344 C 116.289062 102.402344 117.054688 102.082031 117.894531 101.945312 C 120.121094 101.542969 122.359375 101.203125 124.59375 100.832031 C 126.34375 100.539062 128.09375 100.238281 129.894531 99.933594 C 129.855469 99.515625 129.832031 99.195312 129.796875 98.875 C 129.34375 95.109375 128.898438 91.363281 128.441406 87.609375 C 128.3125 86.769531 128.386719 85.945312 128.664062 85.140625 C 128.941406 84.335938 129.386719 83.640625 130.003906 83.058594 C 130.847656 82.214844 131.667969 81.351562 132.496094 80.492188 L 138.476562 74.3125 C 138.242188 74.042969 138.050781 73.820312 137.851562 73.605469 C 135.261719 70.804688 132.671875 68.003906 130.082031 65.207031 C 129.527344 64.644531 129.128906 63.988281 128.882812 63.238281 C 128.636719 62.488281 128.570312 61.722656 128.683594 60.941406 C 129.085938 57.871094 129.550781 54.808594 129.984375 51.742188 C 130.140625 50.636719 130.28125 49.53125 130.429688 48.417969 C 130.167969 48.34375 130.03125 48.292969 129.894531 48.265625 C 126.039062 47.503906 122.1875 46.699219 118.324219 45.996094 C 117.503906 45.859375 116.753906 45.546875 116.082031 45.054688 C 115.410156 44.558594 114.886719 43.941406 114.507812 43.199219 C 113.875 42.054688 113.28125 40.882812 112.667969 39.726562 C 111.359375 37.257812 110.050781 34.789062 108.6875 32.226562 C 104.871094 33.976562 101.160156 35.65625 97.464844 37.378906 C 96.695312 37.773438 95.878906 37.964844 95.015625 37.960938 C 94.152344 37.957031 93.335938 37.753906 92.570312 37.351562 C 89.558594 35.859375 86.527344 34.394531 83.503906 32.921875 C 82.898438 32.625 82.285156 32.335938 81.632812 32.027344 C 81.40625 32.421875 81.210938 32.75 81.027344 33.085938 C 79.261719 36.265625 77.484375 39.429688 75.738281 42.617188 C 75.335938 43.417969 74.773438 44.078125 74.046875 44.601562 C 73.324219 45.128906 72.519531 45.457031 71.632812 45.59375 C 67.941406 46.234375 64.253906 46.921875 60.546875 47.523438 C 59.664062 47.664062 59.453125 47.976562 59.570312 48.847656 C 60.054688 52.476562 60.414062 56.125 60.925781 59.75 C 61.097656 60.691406 61.035156 61.613281 60.742188 62.519531 C 60.453125 63.429688 59.964844 64.214844 59.277344 64.878906 C 56.71875 67.503906 54.210938 70.175781 51.683594 72.824219 C 51.484375 73.039062 51.296875 73.257812 51.082031 73.496094 C 51.316406 73.765625 51.5 73.996094 51.699219 74.210938 C 54.226562 76.988281 56.757812 79.761719 59.289062 82.53125 C 59.859375 83.121094 60.269531 83.804688 60.515625 84.582031 C 60.765625 85.363281 60.824219 86.160156 60.695312 86.96875 Z M 94.640625 46.945312 C 95.519531 46.945312 96.398438 46.988281 97.273438 47.074219 C 98.148438 47.15625 99.015625 47.285156 99.878906 47.457031 C 100.738281 47.628906 101.589844 47.839844 102.433594 48.097656 C 103.273438 48.351562 104.101562 48.644531 104.910156 48.980469 C 105.722656 49.316406 106.519531 49.691406 107.292969 50.105469 C 108.070312 50.519531 108.820312 50.972656 109.550781 51.460938 C 110.285156 51.949219 110.988281 52.472656 111.667969 53.027344 C 112.347656 53.585938 113 54.175781 113.621094 54.796875 C 114.242188 55.417969 114.832031 56.066406 115.390625 56.746094 C 115.945312 57.425781 116.46875 58.132812 116.957031 58.863281 C 117.445312 59.59375 117.898438 60.347656 118.3125 61.121094 C 118.726562 61.894531 119.101562 62.6875 119.4375 63.5 C 119.773438 64.3125 120.070312 65.140625 120.324219 65.980469 C 120.582031 66.820312 120.792969 67.671875 120.964844 68.535156 C 121.136719 69.398438 121.265625 70.265625 121.351562 71.140625 C 121.4375 72.015625 121.480469 72.890625 121.480469 73.769531 C 121.480469 74.648438 121.4375 75.527344 121.351562 76.402344 C 121.265625 77.277344 121.136719 78.144531 120.964844 79.007812 C 120.792969 79.867188 120.578125 80.71875 120.324219 81.558594 C 120.070312 82.402344 119.773438 83.226562 119.4375 84.039062 C 119.101562 84.851562 118.726562 85.644531 118.308594 86.421875 C 117.894531 87.195312 117.445312 87.949219 116.957031 88.679688 C 116.46875 89.410156 115.945312 90.113281 115.386719 90.792969 C 114.828125 91.472656 114.238281 92.121094 113.617188 92.742188 C 112.996094 93.363281 112.34375 93.953125 111.664062 94.511719 C 110.984375 95.070312 110.28125 95.589844 109.546875 96.078125 C 108.816406 96.566406 108.0625 97.019531 107.289062 97.433594 C 106.511719 97.847656 105.71875 98.21875 104.90625 98.554688 C 104.09375 98.890625 103.269531 99.1875 102.425781 99.441406 C 101.585938 99.695312 100.734375 99.910156 99.871094 100.082031 C 99.011719 100.25 98.140625 100.378906 97.265625 100.464844 C 96.390625 100.550781 95.515625 100.59375 94.636719 100.59375 C 93.757812 100.589844 92.882812 100.546875 92.007812 100.460938 C 91.132812 100.375 90.265625 100.246094 89.402344 100.070312 C 88.539062 99.898438 87.6875 99.6875 86.847656 99.429688 C 86.007812 99.175781 85.179688 98.878906 84.371094 98.539062 C 83.558594 98.203125 82.765625 97.828125 81.988281 97.414062 C 81.214844 96.996094 80.460938 96.546875 79.730469 96.054688 C 79 95.566406 78.296875 95.042969 77.617188 94.484375 C 76.941406 93.925781 76.289062 93.335938 75.667969 92.714844 C 75.046875 92.09375 74.460938 91.441406 73.902344 90.761719 C 73.347656 90.082031 72.824219 89.375 72.335938 88.644531 C 71.847656 87.914062 71.398438 87.160156 70.984375 86.382812 C 70.570312 85.609375 70.199219 84.8125 69.863281 84 C 69.527344 83.1875 69.234375 82.363281 68.980469 81.519531 C 68.726562 80.679688 68.511719 79.828125 68.34375 78.964844 C 68.171875 78.101562 68.042969 77.234375 67.960938 76.359375 C 67.875 75.484375 67.832031 74.609375 67.835938 73.730469 C 67.835938 72.851562 67.882812 71.976562 67.96875 71.105469 C 68.058594 70.230469 68.1875 69.367188 68.363281 68.507812 C 68.535156 67.644531 68.75 66.796875 69.003906 65.957031 C 69.261719 65.121094 69.558594 64.292969 69.894531 63.484375 C 70.230469 62.675781 70.605469 61.882812 71.023438 61.109375 C 71.4375 60.339844 71.886719 59.585938 72.375 58.859375 C 72.863281 58.128906 73.386719 57.425781 73.941406 56.75 C 74.5 56.070312 75.089844 55.421875 75.707031 54.804688 C 76.328125 54.183594 76.976562 53.59375 77.65625 53.039062 C 78.335938 52.480469 79.039062 51.960938 79.765625 51.472656 C 80.496094 50.984375 81.246094 50.535156 82.019531 50.121094 C 82.792969 49.707031 83.585938 49.332031 84.394531 48.996094 C 85.207031 48.660156 86.03125 48.363281 86.871094 48.109375 C 87.707031 47.855469 88.558594 47.640625 89.417969 47.46875 C 90.277344 47.296875 91.144531 47.164062 92.015625 47.078125 C 92.890625 46.992188 93.765625 46.945312 94.640625 46.945312 Z M 94.484375 95.253906 C 95.1875 95.257812 95.890625 95.230469 96.59375 95.167969 C 97.292969 95.101562 97.988281 95.003906 98.679688 94.875 C 99.375 94.742188 100.058594 94.574219 100.730469 94.375 C 101.40625 94.175781 102.070312 93.945312 102.722656 93.679688 C 103.375 93.414062 104.015625 93.121094 104.636719 92.792969 C 105.261719 92.464844 105.867188 92.109375 106.457031 91.722656 C 107.042969 91.335938 107.613281 90.917969 108.160156 90.476562 C 108.707031 90.035156 109.230469 89.566406 109.734375 89.070312 C 110.234375 88.578125 110.710938 88.058594 111.160156 87.519531 C 111.613281 86.976562 112.035156 86.414062 112.429688 85.832031 C 112.828125 85.25 113.191406 84.648438 113.527344 84.03125 C 113.867188 83.414062 114.171875 82.777344 114.445312 82.128906 C 114.71875 81.480469 114.960938 80.820312 115.167969 80.148438 C 115.378906 79.476562 115.554688 78.796875 115.695312 78.105469 C 115.839844 77.417969 115.945312 76.722656 116.019531 76.019531 C 116.09375 75.320312 116.132812 74.617188 116.140625 73.914062 C 116.144531 73.210938 116.113281 72.507812 116.050781 71.804688 C 115.984375 71.105469 115.886719 70.410156 115.753906 69.71875 C 115.621094 69.023438 115.457031 68.34375 115.257812 67.667969 C 115.054688 66.992188 114.824219 66.328125 114.558594 65.675781 C 114.292969 65.023438 113.996094 64.386719 113.667969 63.761719 C 113.339844 63.140625 112.984375 62.53125 112.597656 61.945312 C 112.210938 61.355469 111.792969 60.789062 111.351562 60.242188 C 110.90625 59.695312 110.4375 59.171875 109.945312 58.667969 C 109.449219 58.167969 108.929688 57.691406 108.390625 57.242188 C 107.847656 56.792969 107.285156 56.371094 106.703125 55.976562 C 106.121094 55.578125 105.519531 55.214844 104.902344 54.878906 C 104.28125 54.542969 103.648438 54.238281 103 53.964844 C 102.351562 53.691406 101.6875 53.449219 101.015625 53.242188 C 100.34375 53.03125 99.664062 52.855469 98.972656 52.714844 C 98.285156 52.574219 97.589844 52.464844 96.886719 52.394531 C 96.1875 52.320312 95.484375 52.28125 94.78125 52.277344 C 94.078125 52.273438 93.375 52.300781 92.671875 52.367188 C 91.972656 52.433594 91.277344 52.53125 90.585938 52.664062 C 89.894531 52.796875 89.210938 52.964844 88.535156 53.164062 C 87.859375 53.363281 87.195312 53.597656 86.542969 53.863281 C 85.890625 54.128906 85.253906 54.425781 84.632812 54.753906 C 84.007812 55.082031 83.402344 55.441406 82.816406 55.828125 C 82.226562 56.214844 81.660156 56.632812 81.113281 57.074219 C 80.566406 57.519531 80.042969 57.988281 79.542969 58.484375 C 79.039062 58.980469 78.566406 59.496094 78.117188 60.039062 C 77.667969 60.582031 77.242188 61.144531 76.847656 61.726562 C 76.453125 62.308594 76.089844 62.910156 75.753906 63.53125 C 75.417969 64.148438 75.113281 64.785156 74.84375 65.433594 C 74.570312 66.082031 74.328125 66.742188 74.121094 67.414062 C 73.914062 68.089844 73.738281 68.769531 73.597656 69.460938 C 73.457031 70.148438 73.347656 70.84375 73.277344 71.546875 C 73.203125 72.246094 73.164062 72.949219 73.160156 73.652344 C 73.160156 74.355469 73.191406 75.054688 73.261719 75.753906 C 73.328125 76.453125 73.429688 77.144531 73.5625 77.835938 C 73.699219 78.523438 73.867188 79.203125 74.070312 79.875 C 74.269531 80.550781 74.503906 81.210938 74.769531 81.859375 C 75.035156 82.507812 75.332031 83.144531 75.660156 83.765625 C 75.988281 84.386719 76.347656 84.988281 76.734375 85.574219 C 77.121094 86.160156 77.535156 86.726562 77.976562 87.269531 C 78.417969 87.816406 78.886719 88.339844 79.378906 88.839844 C 79.871094 89.335938 80.390625 89.8125 80.929688 90.261719 C 81.46875 90.710938 82.027344 91.132812 82.609375 91.527344 C 83.191406 91.921875 83.789062 92.285156 84.40625 92.621094 C 85.019531 92.960938 85.652344 93.265625 86.296875 93.539062 C 86.945312 93.8125 87.601562 94.054688 88.273438 94.265625 C 88.941406 94.476562 89.621094 94.652344 90.308594 94.796875 C 90.992188 94.941406 91.6875 95.050781 92.382812 95.128906 C 93.082031 95.203125 93.78125 95.246094 94.484375 95.253906 Z M 82.378906 72.894531 C 82.667969 72.605469 83 72.386719 83.378906 72.234375 C 83.757812 72.085938 84.148438 72.015625 84.554688 72.027344 C 84.964844 72.042969 85.351562 72.136719 85.71875 72.3125 C 86.085938 72.488281 86.402344 72.730469 86.667969 73.039062 C 87.925781 74.269531 89.136719 75.53125 90.445312 76.851562 L 98.3125 68.96875 C 99.722656 67.554688 101.132812 66.144531 102.542969 64.734375 C 102.804688 64.421875 103.117188 64.171875 103.484375 63.988281 C 103.851562 63.808594 104.242188 63.707031 104.652344 63.6875 C 105.058594 63.667969 105.457031 63.734375 105.839844 63.878906 C 106.222656 64.027344 106.558594 64.246094 106.847656 64.535156 C 107.136719 64.824219 107.359375 65.160156 107.507812 65.542969 C 107.65625 65.925781 107.722656 66.320312 107.703125 66.730469 C 107.6875 67.140625 107.585938 67.527344 107.40625 67.894531 C 107.226562 68.265625 106.976562 68.578125 106.664062 68.84375 C 102.003906 73.523438 97.335938 78.199219 92.652344 82.867188 C 92.519531 83.023438 92.367188 83.160156 92.203125 83.285156 C 92.035156 83.410156 91.859375 83.515625 91.671875 83.601562 C 91.484375 83.6875 91.289062 83.75 91.089844 83.796875 C 90.886719 83.839844 90.683594 83.863281 90.476562 83.863281 C 90.269531 83.863281 90.066406 83.839844 89.863281 83.796875 C 89.660156 83.75 89.464844 83.6875 89.277344 83.601562 C 89.089844 83.515625 88.914062 83.410156 88.75 83.285156 C 88.582031 83.160156 88.433594 83.023438 88.296875 82.867188 C 86.371094 80.960938 84.460938 79.042969 82.566406 77.117188 C 82.265625 76.851562 82.03125 76.542969 81.859375 76.179688 C 81.6875 75.820312 81.59375 75.441406 81.578125 75.042969 C 81.558594 74.648438 81.621094 74.261719 81.761719 73.886719 C 81.898438 73.515625 82.105469 73.183594 82.378906 72.894531 Z M 143.039062 134.375 C 143.730469 135.582031 144.410156 136.796875 145.203125 138.195312 L 143.949219 138.195312 C 138.347656 138.195312 132.746094 138.214844 127.148438 138.183594 C 126.523438 138.136719 125.941406 138.269531 125.402344 138.582031 C 124.859375 138.894531 124.453125 139.332031 124.183594 139.890625 C 121.703125 144.371094 119.164062 148.824219 116.65625 153.285156 C 116.496094 153.5625 116.328125 153.839844 116.066406 154.289062 L 98.792969 124.316406 C 98.328125 123.667969 97.753906 123.148438 97.0625 122.757812 C 96.371094 122.363281 95.628906 122.132812 94.839844 122.070312 C 93.914062 122.054688 93.039062 122.257812 92.214844 122.679688 C 91.390625 123.101562 90.710938 123.6875 90.179688 124.445312 C 81.644531 139.175781 78.3125 145.050781 77.277344 146.992188 C 76.992188 147.527344 75.628906 149.871094 73.804688 153.03125 C 73.660156 153.28125 73.5 153.519531 73.289062 153.855469 L 68.492188 145.574219 C 67.390625 143.667969 66.273438 141.769531 65.183594 139.855469 C 64.910156 139.308594 64.507812 138.886719 63.980469 138.582031 C 63.449219 138.277344 62.882812 138.144531 62.273438 138.183594 C 56.640625 138.214844 51.011719 138.195312 45.382812 138.195312 L 44.25 138.195312 C 44.429688 137.847656 44.539062 137.59375 44.675781 137.351562 C 50.546875 126.957031 56.414062 116.566406 62.277344 106.171875 C 62.324219 106.042969 62.394531 105.929688 62.488281 105.828125 C 62.582031 105.726562 62.691406 105.648438 62.8125 105.589844 C 62.9375 105.535156 63.070312 105.503906 63.207031 105.496094 C 63.34375 105.492188 63.476562 105.511719 63.605469 105.5625 C 65.617188 105.972656 67.652344 106.261719 69.664062 106.671875 C 70.113281 106.789062 70.460938 107.046875 70.707031 107.441406 C 72.546875 110.742188 74.34375 114.070312 76.140625 117.394531 C 76.289062 117.738281 76.472656 118.066406 76.6875 118.371094 C 76.90625 118.675781 77.152344 118.957031 77.425781 119.210938 C 77.703125 119.464844 78 119.6875 78.320312 119.878906 C 78.644531 120.070312 78.980469 120.226562 79.335938 120.347656 C 79.691406 120.46875 80.054688 120.550781 80.425781 120.597656 C 80.800781 120.640625 81.171875 120.648438 81.546875 120.613281 C 81.917969 120.582031 82.285156 120.511719 82.640625 120.402344 C 83 120.292969 83.34375 120.148438 83.671875 119.964844 C 85.65625 119.085938 87.335938 118.445312 88.738281 117.636719 C 90.140625 116.824219 91.644531 116.269531 93.039062 115.464844 C 93.460938 115.210938 93.914062 115.078125 94.40625 115.074219 C 94.746094 115.074219 95.066406 115.148438 95.375 115.289062 C 98.652344 116.917969 101.984375 118.441406 105.230469 120.144531 C 105.566406 120.324219 105.917969 120.472656 106.285156 120.582031 C 106.652344 120.691406 107.023438 120.765625 107.40625 120.804688 C 107.785156 120.839844 108.167969 120.835938 108.546875 120.796875 C 108.929688 120.757812 109.300781 120.679688 109.667969 120.5625 C 110.03125 120.449219 110.382812 120.296875 110.71875 120.113281 C 111.050781 119.925781 111.367188 119.710938 111.65625 119.460938 C 111.949219 119.214844 112.210938 118.9375 112.449219 118.636719 C 112.683594 118.335938 112.886719 118.015625 113.058594 117.671875 C 114.707031 114.40625 116.601562 111.261719 118.347656 108.046875 C 118.46875 107.792969 118.640625 107.582031 118.871094 107.417969 C 119.097656 107.253906 119.351562 107.15625 119.628906 107.125 C 121.78125 106.765625 123.914062 106.382812 126.042969 105.953125 C 126.28125 105.863281 126.515625 105.871094 126.75 105.976562 C 126.984375 106.078125 127.144531 106.25 127.234375 106.492188 C 132.476562 115.792969 137.746094 125.085938 143.039062 134.375 Z M 143.039062 134.375 " fill-opacity="1" fill-rule="nonzero"/></g></svg>