<svg xmlns="http://www.w3.org/2000/svg" xmlns:xlink="http://www.w3.org/1999/xlink" width="254" zoomAndPan="magnify" viewBox="0 0 190.5 190.499993" height="254" preserveAspectRatio="xMidYMid meet" version="1.0"><defs><clipPath id="ec28ea1233"><path d="M 31.882812 35.808594 L 157.550781 35.808594 L 157.550781 153.25 L 31.882812 153.25 Z M 31.882812 35.808594 " clip-rule="nonzero"/></clipPath></defs><g clip-path="url(#ec28ea1233)"><path fill="#ffffff" d="M 153.578125 149.652344 L 35.808594 149.652344 L 35.808594 148.5 L 38.585938 145.726562 L 150.78125 145.726562 L 153.578125 148.640625 Z M 41.699219 135.910156 L 57.398438 135.910156 L 57.398438 141.800781 L 41.699219 141.800781 Z M 57.398438 43.660156 L 57.398438 49.546875 L 41.699219 49.546875 L 41.699219 43.660156 Z M 77.027344 55.4375 L 77.027344 59.363281 L 61.324219 59.363281 L 61.324219 55.4375 Z M 80.953125 39.734375 L 108.433594 39.734375 L 108.433594 59.363281 L 80.953125 59.363281 Z M 128.0625 45.621094 L 128.0625 57.398438 L 112.359375 57.398438 L 112.359375 45.621094 Z M 147.691406 55.4375 L 147.691406 59.363281 L 131.988281 59.363281 L 131.988281 55.4375 Z M 131.988281 137.875 L 147.691406 137.875 L 147.691406 141.800781 L 131.988281 141.800781 Z M 41.699219 128.058594 L 57.398438 128.058594 L 57.398438 131.984375 L 41.699219 131.984375 Z M 41.699219 61.324219 L 57.398438 61.324219 L 57.398438 124.132812 L 41.699219 124.132812 Z M 77.027344 69.175781 L 77.027344 73.101562 L 61.324219 73.101562 L 61.324219 63.289062 L 77.027344 63.289062 Z M 108.433594 67.210938 L 80.953125 67.210938 L 80.953125 63.289062 L 108.433594 63.289062 Z M 108.433594 110.394531 L 104.507812 110.394531 L 104.507812 114.320312 L 108.433594 114.320312 L 108.433594 122.171875 L 80.953125 122.171875 L 80.953125 114.320312 L 100.582031 114.320312 L 100.582031 110.394531 L 80.953125 110.394531 L 80.953125 71.136719 L 108.433594 71.136719 Z M 80.953125 126.097656 L 108.433594 126.097656 L 108.433594 130.023438 L 80.953125 130.023438 Z M 61.324219 84.878906 L 77.027344 84.878906 L 77.027344 133.949219 L 61.324219 133.949219 Z M 77.027344 80.953125 L 61.324219 80.953125 L 61.324219 77.027344 L 77.027344 77.027344 Z M 128.0625 131.984375 L 112.359375 131.984375 L 112.359375 61.324219 L 128.0625 61.324219 Z M 147.691406 112.359375 L 131.988281 112.359375 L 131.988281 63.289062 L 147.691406 63.289062 Z M 131.988281 128.058594 L 147.691406 128.058594 L 147.691406 133.949219 L 131.988281 133.949219 Z M 147.691406 124.132812 L 131.988281 124.132812 L 131.988281 116.285156 L 147.691406 116.285156 Z M 41.699219 53.472656 L 57.398438 53.472656 L 57.398438 57.398438 L 41.699219 57.398438 Z M 61.324219 141.800781 L 61.324219 137.875 L 77.027344 137.875 L 77.027344 141.800781 Z M 80.953125 141.800781 L 80.953125 133.949219 L 108.433594 133.949219 L 108.433594 141.800781 Z M 112.359375 141.800781 L 112.359375 135.910156 L 128.0625 135.910156 L 128.0625 141.800781 Z M 156.960938 146.492188 L 153.035156 142.40625 C 152.65625 142.015625 152.152344 141.800781 151.613281 141.800781 L 151.613281 55.4375 C 151.613281 53.273438 149.851562 51.511719 147.691406 51.511719 L 131.988281 51.511719 L 131.988281 45.621094 C 131.988281 43.460938 130.222656 41.695312 128.0625 41.695312 L 112.359375 41.695312 L 112.359375 39.734375 C 112.359375 37.570312 110.59375 35.808594 108.433594 35.808594 L 80.953125 35.808594 C 78.792969 35.808594 77.027344 37.570312 77.027344 39.734375 L 77.027344 51.511719 L 61.324219 51.511719 L 61.324219 43.660156 C 61.324219 41.496094 59.5625 39.734375 57.398438 39.734375 L 41.699219 39.734375 C 39.535156 39.734375 37.773438 41.496094 37.773438 43.660156 L 37.773438 141.800781 C 37.25 141.800781 36.753906 142.007812 36.382812 142.375 L 32.457031 146.300781 C 32.089844 146.667969 31.882812 147.167969 31.882812 147.6875 L 31.882812 151.613281 C 31.882812 152.695312 32.765625 153.578125 33.847656 153.578125 L 155.539062 153.578125 C 156.621094 153.578125 157.503906 152.695312 157.503906 151.613281 L 157.503906 147.847656 C 157.503906 147.34375 157.3125 146.859375 156.960938 146.492188 " fill-opacity="1" fill-rule="nonzero"/></g><path fill="#ffffff" d="M 100.582031 80.953125 L 88.804688 80.953125 L 88.804688 84.878906 L 100.582031 84.878906 L 100.582031 80.953125 " fill-opacity="1" fill-rule="nonzero"/><path fill="#ffffff" d="M 100.582031 88.804688 L 88.804688 88.804688 L 88.804688 92.730469 L 100.582031 92.730469 L 100.582031 88.804688 " fill-opacity="1" fill-rule="nonzero"/><path fill="#ffffff" d="M 100.582031 100.582031 L 100.582031 96.65625 L 88.804688 96.65625 L 88.804688 100.582031 L 100.582031 100.582031 " fill-opacity="1" fill-rule="nonzero"/><path fill="#ffffff" d="M 124.136719 69.175781 L 116.285156 69.175781 L 116.285156 73.101562 L 124.136719 73.101562 L 124.136719 69.175781 " fill-opacity="1" fill-rule="nonzero"/></svg>