<svg xmlns="http://www.w3.org/2000/svg" xmlns:xlink="http://www.w3.org/1999/xlink" width="254" zoomAndPan="magnify" viewBox="0 0 190.5 190.499993" height="254" preserveAspectRatio="xMidYMid meet" version="1.0"><defs><clipPath id="324c41cae4"><path d="M 54.566406 35.808594 L 134.597656 35.808594 L 134.597656 153.25 L 54.566406 153.25 Z M 54.566406 35.808594 " clip-rule="nonzero"/></clipPath></defs><g clip-path="url(#324c41cae4)"><path fill="#ffffff" d="M 127.527344 138.984375 C 127.527344 143.007812 124.253906 146.28125 120.230469 146.28125 L 69.160156 146.28125 C 65.136719 146.28125 61.863281 143.007812 61.863281 138.984375 L 61.863281 72.140625 L 74.96875 72.140625 C 83.011719 72.140625 89.558594 65.59375 89.558594 57.550781 L 89.558594 43.101562 L 120.230469 43.101562 C 124.253906 43.101562 127.527344 46.375 127.527344 50.398438 Z M 82.261719 48.535156 L 82.261719 57.550781 C 82.261719 61.570312 78.992188 64.84375 74.96875 64.84375 L 66.660156 64.84375 Z M 120.230469 35.808594 L 84.347656 35.808594 L 54.566406 66.925781 L 54.566406 138.984375 C 54.566406 147.03125 61.113281 153.578125 69.160156 153.578125 L 120.230469 153.578125 C 128.277344 153.578125 134.824219 147.03125 134.824219 138.984375 L 134.824219 50.398438 C 134.824219 42.355469 128.277344 35.808594 120.230469 35.808594 " fill-opacity="1" fill-rule="nonzero"/></g><path fill="#ffffff" d="M 115.636719 77.738281 L 76.457031 77.738281 C 74.441406 77.738281 72.808594 79.371094 72.808594 81.382812 C 72.808594 83.398438 74.441406 85.03125 76.457031 85.03125 L 115.636719 85.03125 C 117.648438 85.03125 119.28125 83.398438 119.28125 81.382812 C 119.28125 79.371094 117.648438 77.738281 115.636719 77.738281 " fill-opacity="1" fill-rule="nonzero"/><path fill="#ffffff" d="M 115.109375 92.328125 L 75.929688 92.328125 C 73.914062 92.328125 72.28125 93.960938 72.28125 95.976562 C 72.28125 97.992188 73.914062 99.625 75.929688 99.625 L 115.109375 99.625 C 117.125 99.625 118.757812 97.992188 118.757812 95.976562 C 118.757812 93.960938 117.125 92.328125 115.109375 92.328125 " fill-opacity="1" fill-rule="nonzero"/><path fill="#ffffff" d="M 114.585938 106.921875 L 75.40625 106.921875 C 73.390625 106.921875 71.757812 108.554688 71.757812 110.566406 C 71.757812 112.582031 73.390625 114.214844 75.40625 114.214844 L 114.585938 114.214844 C 116.597656 114.214844 118.230469 112.582031 118.230469 110.566406 C 118.230469 108.554688 116.597656 106.921875 114.585938 106.921875 " fill-opacity="1" fill-rule="nonzero"/><path fill="#ffffff" d="M 114.058594 121.511719 L 74.878906 121.511719 C 72.867188 121.511719 71.230469 123.144531 71.230469 125.160156 C 71.230469 127.175781 72.867188 128.808594 74.878906 128.808594 L 114.058594 128.808594 C 116.074219 128.808594 117.707031 127.175781 117.707031 125.160156 C 117.707031 123.144531 116.074219 121.511719 114.058594 121.511719 " fill-opacity="1" fill-rule="nonzero"/></svg>