<svg xmlns="http://www.w3.org/2000/svg" xmlns:xlink="http://www.w3.org/1999/xlink" width="254" zoomAndPan="magnify" viewBox="0 0 190.5 190.499993" height="254" preserveAspectRatio="xMidYMid meet" version="1.0"><defs><clipPath id="822d6aae38"><path d="M 34 107 L 152 107 L 152 154.746094 L 34 154.746094 Z M 34 107 " clip-rule="nonzero"/></clipPath><clipPath id="cbde0f17e9"><path d="M 31.441406 99 L 154.871094 99 L 154.871094 104 L 31.441406 104 Z M 31.441406 99 " clip-rule="nonzero"/></clipPath><clipPath id="71b4d1a7f2"><path d="M 106 35.808594 L 131 35.808594 L 131 96 L 106 96 Z M 106 35.808594 " clip-rule="nonzero"/></clipPath></defs><g clip-path="url(#822d6aae38)"><path fill="#ffffff" d="M 138.324219 120.191406 C 138.800781 119.355469 139.773438 118.9375 140.6875 119.234375 L 145.355469 120.765625 C 146.40625 121.101562 147.519531 120.527344 147.859375 119.472656 L 151.832031 107.316406 L 130.933594 107.316406 C 125.886719 123.445312 110.832031 135.128906 93.035156 135.128906 C 75.234375 135.128906 60.179688 123.445312 55.132812 107.316406 L 34.238281 107.316406 L 38.210938 119.472656 C 38.546875 120.527344 39.660156 121.101562 40.710938 120.765625 L 45.378906 119.234375 C 46.292969 118.9375 47.265625 119.355469 47.742188 120.191406 C 49.847656 124.0625 52.453125 127.636719 55.449219 130.816406 C 56.105469 131.511719 56.207031 132.585938 55.628906 133.359375 L 52.75 137.332031 C 52.09375 138.226562 52.292969 139.457031 53.1875 140.113281 L 62.820312 147.105469 C 63.714844 147.761719 64.964844 147.5625 65.601562 146.667969 L 68.480469 142.695312 C 69.058594 141.921875 70.089844 141.683594 70.964844 142.078125 C 74.878906 143.945312 79.070312 145.335938 83.4375 146.152344 C 84.394531 146.332031 85.089844 147.144531 85.089844 148.097656 L 85.089844 153.003906 C 85.089844 154.097656 85.980469 154.992188 87.074219 154.992188 L 98.992188 154.992188 C 100.085938 154.992188 100.980469 154.097656 100.980469 153.003906 L 100.980469 148.097656 C 100.980469 147.144531 101.675781 146.332031 102.628906 146.152344 C 106.996094 145.335938 111.1875 143.945312 115.101562 142.078125 C 115.976562 141.683594 117.007812 141.921875 117.585938 142.695312 L 120.464844 146.667969 C 121.101562 147.5625 122.351562 147.761719 123.246094 147.105469 L 132.878906 140.113281 C 133.773438 139.457031 133.972656 138.226562 133.316406 137.332031 L 130.4375 133.359375 C 129.859375 132.585938 129.960938 131.511719 130.617188 130.816406 C 133.617188 127.636719 136.21875 124.0625 138.324219 120.191406 Z M 138.324219 120.191406 " fill-opacity="1" fill-rule="nonzero"/></g><g clip-path="url(#cbde0f17e9)"><path fill="#ffffff" d="M 31.457031 99.371094 L 154.613281 99.371094 L 154.613281 103.34375 L 31.457031 103.34375 Z M 31.457031 99.371094 " fill-opacity="1" fill-rule="nonzero"/></g><path fill="#ffffff" d="M 35.429688 65.605469 L 51.320312 65.605469 L 51.320312 95.398438 L 35.429688 95.398438 Z M 35.429688 65.605469 " fill-opacity="1" fill-rule="nonzero"/><path fill="#ffffff" d="M 83.101562 57.65625 L 102.964844 57.65625 L 102.964844 95.398438 L 83.101562 95.398438 Z M 83.101562 57.65625 " fill-opacity="1" fill-rule="nonzero"/><path fill="#ffffff" d="M 134.746094 67.589844 L 150.640625 67.589844 L 150.640625 95.398438 L 134.746094 95.398438 Z M 134.746094 67.589844 " fill-opacity="1" fill-rule="nonzero"/><g clip-path="url(#71b4d1a7f2)"><path fill="#ffffff" d="M 106.9375 57.65625 L 106.9375 95.398438 L 130.773438 95.398438 L 130.773438 35.808594 L 106.9375 35.808594 Z M 120.84375 43.753906 L 124.816406 43.753906 L 124.816406 47.726562 L 120.84375 47.726562 Z M 120.84375 53.683594 L 124.816406 53.683594 L 124.816406 57.65625 L 120.84375 57.65625 Z M 120.84375 63.617188 L 124.816406 63.617188 L 124.816406 67.589844 L 120.84375 67.589844 Z M 112.898438 43.753906 L 116.871094 43.753906 L 116.871094 47.726562 L 112.898438 47.726562 Z M 112.898438 53.683594 L 116.871094 53.683594 L 116.871094 57.65625 L 112.898438 57.65625 Z M 112.898438 63.617188 L 116.871094 63.617188 L 116.871094 67.589844 L 112.898438 67.589844 Z M 112.898438 63.617188 " fill-opacity="1" fill-rule="nonzero"/></g><path fill="#ffffff" d="M 55.292969 95.398438 L 79.128906 95.398438 L 79.128906 47.726562 L 67.210938 37.792969 L 55.292969 47.726562 Z M 61.25 51.699219 L 73.167969 51.699219 L 73.167969 55.671875 L 61.25 55.671875 Z M 61.25 61.628906 L 73.167969 61.628906 L 73.167969 65.605469 L 61.25 65.605469 Z M 61.25 61.628906 " fill-opacity="1" fill-rule="nonzero"/></svg>