<svg xmlns="http://www.w3.org/2000/svg" xmlns:xlink="http://www.w3.org/1999/xlink" width="254" zoomAndPan="magnify" viewBox="0 0 190.5 190.499993" height="254" preserveAspectRatio="xMidYMid meet" version="1.0"><defs><clipPath id="d376cdeff8"><path d="M 30.664062 33 L 158.578125 33 L 158.578125 160.90625 L 30.664062 160.90625 Z M 30.664062 33 " clip-rule="nonzero"/></clipPath></defs><g clip-path="url(#d376cdeff8)"><path fill="#ffffff" d="M 154.984375 118.007812 C 157.289062 111.375 158.578125 104.367188 158.578125 96.996094 C 158.578125 89.625 157.289062 82.527344 154.984375 75.984375 C 154.894531 75.800781 154.894531 75.617188 154.800781 75.433594 C 145.953125 50.734375 122.269531 33.039062 94.621094 33.039062 C 66.976562 33.039062 43.289062 50.734375 34.441406 75.339844 C 34.351562 75.523438 34.257812 75.707031 34.257812 75.890625 C 31.953125 82.527344 30.664062 89.625 30.664062 96.996094 C 30.664062 104.367188 31.953125 111.464844 34.257812 118.007812 C 34.351562 118.191406 34.351562 118.378906 34.441406 118.5625 C 43.289062 143.257812 66.976562 160.863281 94.621094 160.863281 C 122.269531 160.863281 145.953125 143.167969 154.800781 118.5625 C 154.894531 118.378906 154.894531 118.191406 154.984375 118.007812 Z M 94.621094 151.738281 C 92.226562 151.738281 88.261719 147.316406 84.945312 137.453125 C 83.378906 132.660156 82.089844 127.222656 81.167969 121.324219 L 107.984375 121.324219 C 107.0625 127.222656 105.773438 132.753906 104.207031 137.453125 C 100.980469 147.316406 97.019531 151.738281 94.621094 151.738281 Z M 80.0625 112.203125 C 79.601562 107.316406 79.414062 102.25 79.414062 96.996094 C 79.414062 91.742188 79.691406 86.675781 80.0625 81.789062 L 109.089844 81.789062 C 109.550781 86.675781 109.734375 91.742188 109.734375 96.996094 C 109.734375 102.25 109.460938 107.316406 109.089844 112.203125 Z M 39.789062 96.996094 C 39.789062 91.742188 40.527344 86.582031 41.90625 81.789062 L 70.84375 81.789062 C 70.382812 86.765625 70.199219 91.929688 70.199219 96.996094 C 70.199219 102.066406 70.382812 107.226562 70.84375 112.203125 L 42 112.203125 C 40.617188 107.316406 39.789062 102.25 39.789062 96.996094 Z M 94.621094 42.164062 C 97.019531 42.164062 100.980469 46.585938 104.296875 56.449219 C 105.863281 61.238281 107.15625 66.675781 108.078125 72.574219 L 81.167969 72.574219 C 82.089844 66.585938 83.378906 61.148438 84.945312 56.449219 C 88.261719 46.585938 92.132812 42.164062 94.621094 42.164062 Z M 118.304688 81.789062 L 147.242188 81.789062 C 148.625 86.582031 149.363281 91.742188 149.363281 96.996094 C 149.363281 102.25 148.625 107.410156 147.242188 112.203125 L 118.304688 112.203125 C 118.765625 107.226562 118.953125 102.066406 118.953125 96.996094 C 118.953125 91.835938 118.765625 86.765625 118.304688 81.789062 Z M 143.648438 72.574219 L 117.292969 72.574219 C 115.632812 61.332031 112.867188 51.285156 108.90625 44.097656 C 124.113281 48.246094 136.738281 58.75 143.648438 72.574219 Z M 80.246094 44.097656 C 76.28125 51.285156 73.519531 61.332031 71.859375 72.574219 L 45.59375 72.574219 C 52.507812 58.75 65.039062 48.246094 80.246094 44.097656 Z M 45.59375 121.324219 L 71.953125 121.324219 C 73.609375 132.570312 76.375 142.613281 80.335938 149.800781 C 65.039062 145.746094 52.507812 135.242188 45.59375 121.324219 Z M 108.90625 149.894531 C 112.867188 142.707031 115.632812 132.660156 117.292969 121.417969 L 143.648438 121.417969 C 136.738281 135.242188 124.113281 145.746094 108.90625 149.894531 Z M 108.90625 149.894531 " fill-opacity="1" fill-rule="nonzero"/></g></svg>