<svg xmlns="http://www.w3.org/2000/svg" xmlns:xlink="http://www.w3.org/1999/xlink" width="254" zoomAndPan="magnify" viewBox="0 0 190.5 190.499993" height="254" preserveAspectRatio="xMidYMid meet" version="1.0"><defs><clipPath id="981f93f8c1"><path d="M 40.109375 30.601562 L 135.859375 30.601562 L 135.859375 163.003906 L 40.109375 163.003906 Z M 40.109375 30.601562 " clip-rule="nonzero"/></clipPath></defs><path fill="#ffffff" d="M 109.605469 109.394531 L 100.066406 109.394531 L 100.066406 99.855469 C 100.066406 98.53125 99.019531 97.488281 97.699219 97.488281 C 96.375 97.488281 95.332031 98.53125 95.332031 99.855469 L 95.332031 109.394531 L 85.789062 109.394531 C 84.46875 109.394531 83.421875 110.441406 83.421875 111.761719 C 83.421875 113.085938 84.46875 114.132812 85.789062 114.132812 L 95.332031 114.132812 L 95.332031 123.671875 C 95.332031 124.992188 96.375 126.039062 97.699219 126.039062 C 99.019531 126.039062 100.066406 124.992188 100.066406 123.671875 L 100.066406 114.132812 L 109.605469 114.132812 C 110.929688 114.132812 111.972656 113.085938 111.972656 111.761719 C 111.972656 110.441406 110.929688 109.394531 109.605469 109.394531 Z M 109.605469 109.394531 " fill-opacity="1" fill-rule="nonzero"/><g clip-path="url(#981f93f8c1)"><path fill="#ffffff" d="M 134.394531 75.691406 L 121.511719 58.5625 L 121.511719 51.738281 C 124.300781 50.761719 126.25 48.117188 126.25 45.054688 L 126.25 37.949219 C 126.25 33.980469 123.046875 30.777344 119.078125 30.777344 L 76.25 30.777344 C 72.28125 30.777344 69.078125 33.980469 69.078125 37.949219 L 69.078125 45.121094 C 69.078125 48.257812 71.097656 50.832031 73.8125 51.808594 L 73.8125 58.632812 L 61 75.691406 C 60.09375 76.945312 59.539062 78.40625 59.539062 80.007812 L 59.539062 117.542969 C 58.074219 116.984375 56.472656 116.636719 54.871094 116.636719 C 51.390625 116.636719 48.046875 118.03125 45.613281 120.46875 L 43.941406 122.140625 C 41.503906 124.644531 40.109375 127.917969 40.109375 131.46875 C 40.109375 134.953125 41.503906 138.292969 43.941406 140.730469 L 62.464844 159.253906 C 64.96875 161.761719 68.242188 163.085938 71.722656 163.085938 C 75.207031 163.085938 78.546875 161.691406 80.984375 159.253906 L 82.65625 157.582031 C 82.796875 157.445312 82.9375 157.234375 83.074219 157.097656 L 128.617188 157.097656 C 132.585938 157.097656 135.789062 153.890625 135.789062 149.921875 L 135.789062 80.007812 C 135.789062 78.476562 135.300781 76.945312 134.394531 75.691406 Z M 81.613281 138.015625 L 64.34375 120.746094 L 64.34375 83.214844 L 131.054688 83.214844 L 131.054688 138.015625 Z M 78.617188 52.226562 L 116.707031 52.226562 L 116.707031 56.960938 L 78.617188 56.960938 Z M 77.433594 61.765625 L 117.960938 61.765625 L 130.496094 78.40625 L 64.96875 78.40625 Z M 73.882812 37.949219 C 73.882812 36.628906 74.929688 35.582031 76.25 35.582031 L 119.144531 35.582031 C 120.46875 35.582031 121.511719 36.628906 121.511719 37.949219 L 121.511719 45.121094 C 121.511719 46.445312 120.46875 47.488281 119.144531 47.488281 L 76.25 47.488281 C 74.929688 47.488281 73.882812 46.445312 73.882812 45.121094 Z M 44.84375 131.46875 C 44.84375 129.242188 45.679688 127.152344 47.28125 125.550781 L 48.953125 123.878906 C 50.554688 122.277344 52.644531 121.441406 54.871094 121.441406 C 57.101562 121.441406 59.191406 122.277344 60.792969 123.878906 L 68.382812 131.46875 L 54.871094 144.980469 L 47.351562 137.320312 C 45.75 135.789062 44.84375 133.699219 44.84375 131.46875 Z M 77.644531 155.84375 C 74.511719 158.976562 69.007812 158.976562 65.875 155.84375 L 58.285156 148.253906 L 71.792969 134.742188 L 79.382812 142.332031 C 80.984375 143.933594 81.820312 146.023438 81.820312 148.253906 C 81.820312 150.480469 80.984375 152.570312 79.382812 154.171875 Z M 128.6875 152.289062 L 85.859375 152.289062 C 86.277344 151.039062 86.558594 149.714844 86.558594 148.320312 C 86.558594 146.371094 86.070312 144.492188 85.304688 142.75 L 131.125 142.75 L 131.125 149.921875 C 131.054688 151.246094 130.007812 152.289062 128.6875 152.289062 Z M 128.6875 152.289062 " fill-opacity="1" fill-rule="nonzero"/></g></svg>