<svg xmlns="http://www.w3.org/2000/svg" xmlns:xlink="http://www.w3.org/1999/xlink" width="254" zoomAndPan="magnify" viewBox="0 0 190.5 190.499993" height="254" preserveAspectRatio="xMidYMid meet" version="1.0"><defs><clipPath id="9f7d60d4ee"><path d="M 33.304688 46.015625 L 156 46.015625 L 156 143.261719 L 33.304688 143.261719 Z M 33.304688 46.015625 " clip-rule="nonzero"/></clipPath></defs><g clip-path="url(#9f7d60d4ee)"><path fill="#ffffff" d="M 153.613281 93.464844 C 152.226562 91.058594 149.976562 89.339844 147.277344 88.617188 C 144.582031 87.894531 141.773438 88.257812 139.367188 89.648438 L 110.902344 106.082031 C 110.78125 104.40625 110.285156 102.761719 109.421875 101.253906 C 107.914062 98.617188 105.484375 96.730469 102.574219 95.9375 L 70.804688 87.292969 C 70.722656 87.269531 70.640625 87.253906 70.554688 87.242188 C 65.828125 86.617188 61.511719 87.765625 57.730469 90.664062 L 48.945312 97.390625 L 48.496094 95.710938 C 48.054688 94.0625 46.550781 92.910156 44.84375 92.910156 C 44.515625 92.910156 44.1875 92.953125 43.867188 93.039062 L 36.308594 95.066406 C 35.335938 95.324219 34.523438 95.953125 34.015625 96.828125 C 33.511719 97.703125 33.375 98.722656 33.636719 99.695312 L 44.597656 140.59375 C 45.039062 142.242188 46.539062 143.394531 48.25 143.394531 C 48.578125 143.394531 48.90625 143.351562 49.226562 143.265625 L 56.785156 141.238281 C 57.757812 140.980469 58.570312 140.351562 59.078125 139.476562 C 59.582031 138.601562 59.714844 137.582031 59.457031 136.609375 L 58.992188 134.878906 C 63.613281 131.371094 67.847656 130.375 72.996094 131.558594 L 91.195312 135.730469 C 92.789062 136.09375 94.324219 136.277344 95.804688 136.277344 C 98.828125 136.277344 101.628906 135.515625 104.289062 133.980469 L 149.796875 107.707031 C 154.773438 104.832031 156.484375 98.445312 153.613281 93.464844 Z M 48.265625 139.585938 L 37.316406 98.734375 L 44.828125 96.71875 L 46.003906 101.105469 C 46.003906 101.105469 46.003906 101.109375 46.003906 101.109375 L 55.773438 137.570312 Z M 147.894531 104.414062 L 102.386719 130.683594 C 99.296875 132.472656 95.910156 132.90625 92.042969 132.019531 L 73.847656 127.851562 C 68.039062 126.519531 63.042969 127.472656 57.941406 130.949219 L 50.011719 101.367188 L 60.042969 93.6875 C 63.003906 91.417969 66.242188 90.535156 69.933594 90.996094 L 101.574219 99.609375 C 103.503906 100.132812 105.117188 101.386719 106.121094 103.140625 C 107.125 104.894531 107.386719 106.921875 106.863281 108.851562 C 105.773438 112.855469 101.628906 115.226562 97.621094 114.136719 L 80.652344 109.519531 C 79.640625 109.242188 78.59375 109.839844 78.316406 110.855469 C 78.042969 111.867188 78.640625 112.914062 79.652344 113.1875 L 96.621094 117.808594 C 97.617188 118.078125 98.613281 118.207031 99.59375 118.207031 C 104.234375 118.207031 108.515625 115.335938 110.199219 110.882812 L 141.269531 92.941406 C 142.792969 92.0625 144.578125 91.832031 146.292969 92.289062 C 148.007812 92.75 149.4375 93.84375 150.316406 95.367188 C 152.144531 98.527344 151.054688 102.585938 147.894531 104.414062 Z M 60.699219 83.488281 L 85.230469 83.488281 C 85.199219 83.953125 85.175781 84.417969 85.175781 84.886719 C 85.175781 85.9375 86.027344 86.789062 87.078125 86.789062 L 122.601562 86.789062 C 123.652344 86.789062 124.503906 85.9375 124.503906 84.886719 C 124.503906 84.417969 124.480469 83.953125 124.449219 83.488281 L 149.742188 83.488281 C 150.792969 83.488281 151.644531 82.636719 151.644531 81.585938 C 151.644531 74.464844 147.285156 68.34375 141.097656 65.742188 C 143.253906 63.878906 144.625 61.125 144.625 58.058594 C 144.625 52.457031 140.070312 47.902344 134.46875 47.902344 C 128.867188 47.902344 124.308594 52.457031 124.308594 58.058594 C 124.308594 61.136719 125.6875 63.898438 127.859375 65.761719 C 124.664062 67.113281 121.894531 69.414062 119.996094 72.371094 C 117.871094 69.804688 115.105469 67.785156 111.949219 66.558594 C 114.621094 64.449219 116.339844 61.183594 116.339844 57.523438 C 116.339844 51.183594 111.179688 46.023438 104.839844 46.023438 C 98.496094 46.023438 93.335938 51.183594 93.335938 57.523438 C 93.335938 61.183594 95.058594 64.449219 97.730469 66.558594 C 94.785156 67.703125 92.179688 69.539062 90.117188 71.871094 C 88.230469 69.136719 85.605469 67.019531 82.59375 65.75 C 84.757812 63.886719 86.132812 61.128906 86.132812 58.058594 C 86.132812 52.457031 81.574219 47.902344 75.972656 47.902344 C 70.371094 47.902344 65.816406 52.457031 65.816406 58.058594 C 65.816406 61.125 67.1875 63.878906 69.34375 65.742188 C 63.15625 68.34375 58.796875 74.464844 58.796875 81.585938 C 58.796875 82.636719 59.648438 83.488281 60.699219 83.488281 Z M 128.113281 58.058594 C 128.113281 54.554688 130.964844 51.707031 134.46875 51.707031 C 137.972656 51.707031 140.820312 54.554688 140.820312 58.058594 C 140.820312 61.5625 137.972656 64.410156 134.46875 64.410156 C 130.964844 64.410156 128.113281 61.5625 128.113281 58.058594 Z M 134.46875 68.214844 C 141.195312 68.214844 146.777344 73.210938 147.703125 79.6875 L 123.800781 79.6875 C 123.441406 78.382812 122.953125 77.136719 122.351562 75.957031 C 124.539062 71.292969 129.300781 68.214844 134.46875 68.214844 Z M 97.140625 57.523438 C 97.140625 53.28125 100.59375 49.828125 104.839844 49.828125 C 109.085938 49.828125 112.535156 53.28125 112.535156 57.523438 C 112.535156 61.769531 109.085938 65.222656 104.839844 65.222656 C 100.59375 65.222656 97.140625 61.769531 97.140625 57.523438 Z M 104.839844 69.027344 C 112.941406 69.027344 119.644531 75.132812 120.585938 82.984375 L 89.09375 82.984375 C 90.035156 75.132812 96.738281 69.027344 104.839844 69.027344 Z M 75.972656 51.707031 C 79.476562 51.707031 82.328125 54.554688 82.328125 58.058594 C 82.328125 61.5625 79.476562 64.410156 75.972656 64.410156 C 72.46875 64.410156 69.621094 61.5625 69.621094 58.058594 C 69.621094 54.554688 72.46875 51.707031 75.972656 51.707031 Z M 75.972656 68.214844 C 80.875 68.214844 85.386719 70.9375 87.722656 75.222656 C 86.933594 76.617188 86.3125 78.109375 85.878906 79.6875 L 62.734375 79.6875 C 63.664062 73.210938 69.246094 68.214844 75.972656 68.214844 Z M 75.972656 68.214844 " fill-opacity="1" fill-rule="nonzero"/></g></svg>