<svg xmlns="http://www.w3.org/2000/svg" xmlns:xlink="http://www.w3.org/1999/xlink" width="254" zoomAndPan="magnify" viewBox="0 0 190.5 190.499993" height="254" preserveAspectRatio="xMidYMid meet" version="1.0"><defs><clipPath id="47153f815a"><path d="M 36 36 L 155.390625 36 L 155.390625 154.796875 L 36 154.796875 Z M 36 36 " clip-rule="nonzero"/></clipPath></defs><g clip-path="url(#47153f815a)"><path fill="#ffffff" d="M 135.316406 101.679688 C 135.96875 101.683594 136.625 101.65625 137.277344 101.597656 C 137.929688 101.535156 138.574219 101.441406 139.21875 101.320312 C 139.863281 101.195312 140.496094 101.039062 141.125 100.851562 C 141.753906 100.664062 142.371094 100.449219 142.976562 100.203125 C 143.582031 99.953125 144.175781 99.675781 144.753906 99.371094 C 145.335938 99.066406 145.898438 98.734375 146.445312 98.371094 C 146.992188 98.011719 147.519531 97.625 148.027344 97.210938 C 148.535156 96.800781 149.023438 96.363281 149.488281 95.902344 C 149.953125 95.441406 150.394531 94.960938 150.8125 94.457031 C 151.234375 93.953125 151.625 93.429688 151.992188 92.886719 C 152.359375 92.34375 152.699219 91.785156 153.011719 91.207031 C 153.320312 90.632812 153.605469 90.042969 153.859375 89.4375 C 154.113281 88.835938 154.335938 88.21875 154.53125 87.59375 C 154.722656 86.96875 154.886719 86.335938 155.019531 85.691406 C 155.148438 85.050781 155.25 84.40625 155.316406 83.753906 C 155.382812 83.101562 155.421875 82.449219 155.421875 81.792969 C 155.425781 81.140625 155.398438 80.484375 155.339844 79.832031 C 155.277344 79.179688 155.183594 78.535156 155.0625 77.890625 C 154.9375 77.246094 154.78125 76.613281 154.59375 75.984375 C 154.40625 75.355469 154.191406 74.738281 153.945312 74.132812 C 153.695312 73.527344 153.417969 72.933594 153.113281 72.355469 C 152.808594 71.773438 152.476562 71.210938 152.113281 70.664062 C 151.753906 70.117188 151.367188 69.589844 150.953125 69.082031 C 150.542969 68.574219 150.105469 68.085938 149.644531 67.621094 C 149.183594 67.15625 148.703125 66.714844 148.199219 66.296875 C 147.695312 65.875 147.171875 65.484375 146.628906 65.117188 C 146.085938 64.75 145.527344 64.410156 144.949219 64.097656 C 144.375 63.785156 143.785156 63.503906 143.179688 63.25 C 142.578125 62.996094 141.960938 62.773438 141.335938 62.578125 C 140.710938 62.386719 140.078125 62.222656 139.433594 62.089844 C 138.792969 61.960938 138.148438 61.859375 137.496094 61.792969 C 136.84375 61.726562 136.191406 61.6875 135.535156 61.6875 C 135.394531 61.070312 135.203125 60.46875 134.957031 59.886719 C 134.714844 59.304688 134.425781 58.742188 134.089844 58.207031 C 133.75 57.675781 133.371094 57.171875 132.949219 56.699219 C 132.527344 56.230469 132.070312 55.796875 131.574219 55.402344 C 131.082031 55.007812 130.558594 54.660156 130.003906 54.355469 C 129.449219 54.046875 128.875 53.789062 128.277344 53.582031 C 127.683594 53.371094 127.074219 53.214844 126.449219 53.109375 C 125.824219 53.003906 125.199219 52.949219 124.566406 52.949219 C 124.078125 52.949219 123.589844 52.980469 123.105469 53.042969 C 122.519531 52.328125 121.886719 51.664062 121.199219 51.050781 C 120.511719 50.433594 119.78125 49.878906 119.007812 49.378906 C 118.234375 48.878906 117.425781 48.441406 116.582031 48.066406 C 115.738281 47.695312 114.871094 47.390625 113.980469 47.152344 C 113.089844 46.914062 112.1875 46.746094 111.269531 46.652344 C 110.355469 46.554688 109.433594 46.53125 108.515625 46.578125 C 107.59375 46.625 106.683594 46.746094 105.78125 46.9375 C 104.878906 47.125 104 47.386719 103.136719 47.714844 C 102.304688 46.589844 101.386719 45.53125 100.394531 44.542969 C 99.398438 43.554688 98.335938 42.648438 97.203125 41.824219 C 96.070312 40.996094 94.882812 40.261719 93.636719 39.613281 C 92.390625 38.96875 91.105469 38.421875 89.777344 37.96875 C 88.453125 37.519531 87.097656 37.171875 85.71875 36.925781 C 84.335938 36.683594 82.945312 36.542969 81.542969 36.507812 C 80.144531 36.476562 78.746094 36.546875 77.355469 36.726562 C 75.964844 36.902344 74.597656 37.1875 73.25 37.574219 C 71.902344 37.957031 70.589844 38.445312 69.316406 39.027344 C 68.042969 39.613281 66.820312 40.292969 65.648438 41.0625 C 64.476562 41.832031 63.371094 42.6875 62.328125 43.625 C 61.289062 44.566406 60.324219 45.578125 59.4375 46.660156 C 58.546875 47.746094 57.746094 48.894531 57.035156 50.097656 C 56.320312 51.304688 55.703125 52.558594 55.179688 53.859375 C 54.65625 55.160156 54.234375 56.492188 53.910156 57.859375 C 53.589844 59.222656 53.375 60.601562 53.261719 62 C 52.042969 62.21875 50.855469 62.550781 49.699219 62.988281 C 48.542969 63.429688 47.433594 63.972656 46.378906 64.617188 C 45.320312 65.261719 44.332031 66 43.414062 66.828125 C 42.492188 67.65625 41.65625 68.5625 40.90625 69.546875 C 40.15625 70.53125 39.5 71.574219 38.941406 72.679688 C 38.386719 73.785156 37.933594 74.933594 37.589844 76.121094 C 37.246094 77.3125 37.015625 78.523438 36.894531 79.753906 C 36.773438 80.988281 36.769531 82.21875 36.878906 83.453125 C 36.988281 84.6875 37.210938 85.898438 37.546875 87.089844 C 37.882812 88.28125 38.324219 89.433594 38.871094 90.542969 C 39.417969 91.652344 40.066406 92.703125 40.808594 93.691406 C 41.554688 94.683594 42.382812 95.597656 43.292969 96.433594 C 44.207031 97.269531 45.191406 98.011719 46.242188 98.667969 C 47.292969 99.320312 48.394531 99.871094 49.546875 100.320312 C 50.703125 100.769531 51.886719 101.109375 53.105469 101.335938 C 54.320312 101.566406 55.546875 101.679688 56.785156 101.679688 L 61.09375 101.679688 L 61.09375 115.816406 C 61.089844 116.457031 61.035156 117.09375 60.921875 117.726562 C 60.8125 118.359375 60.648438 118.976562 60.429688 119.578125 C 60.210938 120.183594 59.941406 120.761719 59.621094 121.320312 C 59.300781 121.875 58.9375 122.398438 58.527344 122.894531 C 58.117188 123.386719 57.667969 123.839844 57.175781 124.257812 C 56.6875 124.671875 56.167969 125.042969 55.613281 125.367188 C 55.058594 125.691406 54.480469 125.964844 53.882812 126.191406 C 53.28125 126.414062 52.664062 126.585938 52.035156 126.703125 C 51.925781 126.414062 51.804688 126.136719 51.664062 125.863281 C 51.523438 125.589844 51.367188 125.324219 51.199219 125.070312 C 51.027344 124.8125 50.84375 124.570312 50.644531 124.335938 C 50.445312 124.101562 50.230469 123.878906 50.007812 123.671875 C 49.78125 123.464844 49.542969 123.269531 49.296875 123.085938 C 49.046875 122.90625 48.789062 122.742188 48.523438 122.589844 C 48.253906 122.4375 47.980469 122.304688 47.695312 122.1875 C 47.414062 122.066406 47.125 121.964844 46.828125 121.882812 C 46.535156 121.796875 46.234375 121.730469 45.929688 121.679688 C 45.628906 121.632812 45.324219 121.601562 45.015625 121.585938 C 44.710938 121.574219 44.402344 121.578125 44.097656 121.601562 C 43.789062 121.621094 43.488281 121.664062 43.183594 121.71875 C 42.882812 121.777344 42.585938 121.855469 42.292969 121.945312 C 42 122.039062 41.714844 122.148438 41.433594 122.277344 C 41.15625 122.402344 40.882812 122.542969 40.621094 122.703125 C 40.355469 122.859375 40.105469 123.035156 39.859375 123.222656 C 39.617188 123.410156 39.386719 123.609375 39.167969 123.824219 C 38.949219 124.039062 38.742188 124.269531 38.550781 124.507812 C 38.359375 124.746094 38.179688 124.996094 38.015625 125.253906 C 37.851562 125.515625 37.707031 125.785156 37.574219 126.0625 C 37.441406 126.339844 37.328125 126.625 37.226562 126.914062 C 37.128906 127.203125 37.046875 127.5 36.984375 127.800781 C 36.921875 128.101562 36.875 128.402344 36.847656 128.710938 C 36.816406 129.015625 36.808594 129.320312 36.816406 129.628906 C 36.824219 129.9375 36.847656 130.242188 36.890625 130.546875 C 36.933594 130.847656 36.996094 131.148438 37.074219 131.445312 C 37.152344 131.742188 37.25 132.035156 37.363281 132.320312 C 37.472656 132.605469 37.605469 132.882812 37.75 133.15625 C 37.894531 133.425781 38.054688 133.6875 38.230469 133.9375 C 38.40625 134.1875 38.597656 134.429688 38.800781 134.660156 C 39.003906 134.886719 39.222656 135.105469 39.453125 135.308594 C 39.683594 135.511719 39.921875 135.703125 40.175781 135.878906 C 40.425781 136.054688 40.6875 136.214844 40.957031 136.359375 C 41.230469 136.503906 41.507812 136.632812 41.792969 136.746094 C 42.078125 136.859375 42.371094 136.953125 42.667969 137.03125 C 42.964844 137.109375 43.265625 137.167969 43.570312 137.210938 C 43.871094 137.253906 44.179688 137.28125 44.484375 137.289062 C 44.792969 137.296875 45.097656 137.285156 45.402344 137.253906 C 45.710938 137.226562 46.011719 137.179688 46.3125 137.117188 C 46.613281 137.050781 46.910156 136.96875 47.199219 136.871094 C 47.488281 136.773438 47.773438 136.65625 48.050781 136.523438 C 48.328125 136.390625 48.597656 136.242188 48.855469 136.082031 C 49.117188 135.917969 49.367188 135.738281 49.605469 135.546875 C 49.84375 135.351562 50.070312 135.144531 50.285156 134.925781 C 50.5 134.707031 50.699219 134.476562 50.886719 134.230469 C 51.074219 133.988281 51.25 133.734375 51.40625 133.472656 C 51.5625 133.207031 51.707031 132.9375 51.832031 132.65625 C 51.957031 132.378906 52.066406 132.089844 52.160156 131.796875 C 53.117188 131.667969 54.058594 131.453125 54.976562 131.152344 C 55.898438 130.851562 56.785156 130.472656 57.636719 130.015625 C 58.488281 129.554688 59.292969 129.027344 60.050781 128.421875 C 60.808594 127.820312 61.503906 127.152344 62.140625 126.425781 C 62.777344 125.695312 63.34375 124.917969 63.84375 124.085938 C 64.339844 123.257812 64.757812 122.386719 65.101562 121.480469 C 65.441406 120.578125 65.699219 119.648438 65.871094 118.695312 C 66.046875 117.742188 66.132812 116.785156 66.136719 115.816406 L 66.136719 101.679688 L 83.359375 101.679688 L 83.359375 139.710938 C 83.066406 139.808594 82.78125 139.925781 82.503906 140.054688 C 82.226562 140.1875 81.957031 140.335938 81.695312 140.5 C 81.433594 140.664062 81.183594 140.84375 80.941406 141.035156 C 80.703125 141.230469 80.476562 141.4375 80.257812 141.65625 C 80.042969 141.875 79.839844 142.109375 79.652344 142.351562 C 79.464844 142.597656 79.289062 142.851562 79.132812 143.113281 C 78.972656 143.378906 78.832031 143.652344 78.703125 143.933594 C 78.578125 144.214844 78.46875 144.5 78.375 144.796875 C 78.28125 145.089844 78.207031 145.386719 78.148438 145.691406 C 78.089844 145.992188 78.050781 146.296875 78.027344 146.605469 C 78.003906 146.914062 78 147.222656 78.015625 147.527344 C 78.03125 147.835938 78.0625 148.144531 78.113281 148.449219 C 78.164062 148.75 78.230469 149.050781 78.316406 149.347656 C 78.398438 149.644531 78.503906 149.933594 78.621094 150.21875 C 78.742188 150.503906 78.878906 150.777344 79.027344 151.046875 C 79.179688 151.316406 79.347656 151.574219 79.53125 151.824219 C 79.710938 152.070312 79.90625 152.308594 80.117188 152.535156 C 80.328125 152.761719 80.550781 152.972656 80.785156 153.171875 C 81.019531 153.371094 81.265625 153.558594 81.523438 153.726562 C 81.78125 153.898438 82.046875 154.054688 82.320312 154.191406 C 82.597656 154.332031 82.878906 154.453125 83.167969 154.5625 C 83.457031 154.667969 83.75 154.757812 84.050781 154.828125 C 84.351562 154.898438 84.652344 154.953125 84.960938 154.988281 C 85.265625 155.027344 85.574219 155.042969 85.882812 155.042969 C 86.191406 155.042969 86.496094 155.027344 86.804688 154.988281 C 87.109375 154.953125 87.414062 154.898438 87.710938 154.828125 C 88.011719 154.757812 88.308594 154.667969 88.597656 154.5625 C 88.886719 154.453125 89.167969 154.332031 89.441406 154.191406 C 89.71875 154.054688 89.984375 153.898438 90.242188 153.726562 C 90.496094 153.558594 90.742188 153.371094 90.976562 153.171875 C 91.214844 152.972656 91.4375 152.761719 91.644531 152.535156 C 91.855469 152.308594 92.050781 152.070312 92.234375 151.824219 C 92.417969 151.574219 92.582031 151.316406 92.734375 151.046875 C 92.886719 150.777344 93.023438 150.503906 93.140625 150.21875 C 93.261719 149.933594 93.363281 149.644531 93.449219 149.347656 C 93.535156 149.050781 93.601562 148.75 93.652344 148.449219 C 93.703125 148.144531 93.734375 147.835938 93.75 147.527344 C 93.761719 147.222656 93.757812 146.914062 93.734375 146.605469 C 93.714844 146.296875 93.675781 145.992188 93.617188 145.691406 C 93.558594 145.386719 93.484375 145.089844 93.390625 144.796875 C 93.296875 144.5 93.1875 144.214844 93.058594 143.933594 C 92.933594 143.652344 92.789062 143.378906 92.632812 143.113281 C 92.472656 142.851562 92.300781 142.597656 92.109375 142.351562 C 91.921875 142.109375 91.71875 141.875 91.503906 141.65625 C 91.289062 141.4375 91.0625 141.230469 90.820312 141.035156 C 90.582031 140.84375 90.328125 140.664062 90.070312 140.5 C 89.808594 140.335938 89.539062 140.1875 89.257812 140.054688 C 88.980469 139.925781 88.695312 139.808594 88.402344 139.710938 L 88.402344 101.679688 L 105.632812 101.679688 L 105.632812 131.402344 C 105.34375 131.5 105.058594 131.613281 104.777344 131.746094 C 104.5 131.878906 104.230469 132.027344 103.96875 132.191406 C 103.710938 132.355469 103.460938 132.535156 103.21875 132.726562 C 102.980469 132.917969 102.75 133.125 102.535156 133.347656 C 102.320312 133.566406 102.117188 133.796875 101.929688 134.042969 C 101.742188 134.285156 101.570312 134.539062 101.410156 134.804688 C 101.25 135.066406 101.109375 135.339844 100.984375 135.621094 C 100.855469 135.902344 100.746094 136.1875 100.652344 136.484375 C 100.5625 136.777344 100.484375 137.074219 100.425781 137.378906 C 100.371094 137.679688 100.328125 137.984375 100.308594 138.292969 C 100.285156 138.597656 100.28125 138.90625 100.296875 139.214844 C 100.308594 139.523438 100.34375 139.828125 100.390625 140.132812 C 100.441406 140.433594 100.511719 140.734375 100.59375 141.03125 C 100.679688 141.328125 100.78125 141.617188 100.902344 141.902344 C 101.019531 142.183594 101.15625 142.460938 101.308594 142.730469 C 101.460938 142.996094 101.628906 143.253906 101.808594 143.503906 C 101.992188 143.753906 102.1875 143.988281 102.398438 144.214844 C 102.605469 144.441406 102.828125 144.652344 103.0625 144.851562 C 103.296875 145.050781 103.542969 145.234375 103.800781 145.40625 C 104.058594 145.578125 104.324219 145.730469 104.597656 145.871094 C 104.871094 146.011719 105.15625 146.132812 105.445312 146.238281 C 105.734375 146.34375 106.027344 146.433594 106.328125 146.507812 C 106.625 146.578125 106.929688 146.632812 107.234375 146.667969 C 107.539062 146.703125 107.847656 146.722656 108.15625 146.722656 C 108.464844 146.722656 108.769531 146.703125 109.078125 146.667969 C 109.382812 146.632812 109.683594 146.578125 109.984375 146.507812 C 110.285156 146.433594 110.578125 146.34375 110.867188 146.238281 C 111.15625 146.132812 111.4375 146.011719 111.714844 145.871094 C 111.988281 145.730469 112.253906 145.578125 112.511719 145.40625 C 112.765625 145.234375 113.011719 145.050781 113.246094 144.851562 C 113.480469 144.652344 113.703125 144.441406 113.914062 144.214844 C 114.125 143.988281 114.320312 143.753906 114.503906 143.503906 C 114.683594 143.253906 114.851562 142.996094 115.003906 142.730469 C 115.15625 142.460938 115.289062 142.183594 115.410156 141.902344 C 115.527344 141.617188 115.632812 141.328125 115.714844 141.03125 C 115.800781 140.734375 115.871094 140.433594 115.917969 140.132812 C 115.96875 139.828125 116 139.523438 116.015625 139.214844 C 116.03125 138.90625 116.027344 138.597656 116.003906 138.292969 C 115.980469 137.984375 115.941406 137.679688 115.882812 137.378906 C 115.824219 137.074219 115.75 136.777344 115.65625 136.484375 C 115.566406 136.1875 115.457031 135.902344 115.328125 135.621094 C 115.203125 135.339844 115.058594 135.066406 114.902344 134.804688 C 114.742188 134.539062 114.570312 134.285156 114.382812 134.042969 C 114.191406 133.796875 113.992188 133.566406 113.773438 133.347656 C 113.558594 133.125 113.332031 132.917969 113.09375 132.726562 C 112.851562 132.535156 112.601562 132.355469 112.339844 132.191406 C 112.082031 132.027344 111.8125 131.878906 111.53125 131.746094 C 111.253906 131.613281 110.96875 131.5 110.675781 131.402344 L 110.675781 101.679688 L 126.3125 101.679688 L 126.3125 113.03125 C 126.3125 113.976562 126.398438 114.914062 126.570312 115.84375 C 126.738281 116.773438 126.988281 117.679688 127.320312 118.566406 C 127.652344 119.453125 128.0625 120.300781 128.546875 121.113281 C 129.03125 121.925781 129.585938 122.6875 130.207031 123.398438 C 130.828125 124.113281 131.507812 124.765625 132.246094 125.355469 C 132.984375 125.945312 133.769531 126.464844 134.601562 126.917969 C 135.433594 127.367188 136.296875 127.738281 137.195312 128.035156 C 138.09375 128.328125 139.011719 128.539062 139.949219 128.671875 C 140.042969 128.964844 140.152344 129.253906 140.277344 129.535156 C 140.402344 129.816406 140.542969 130.089844 140.703125 130.351562 C 140.859375 130.617188 141.035156 130.871094 141.222656 131.117188 C 141.410156 131.359375 141.609375 131.59375 141.828125 131.8125 C 142.042969 132.035156 142.269531 132.242188 142.507812 132.433594 C 142.746094 132.628906 142.996094 132.808594 143.257812 132.972656 C 143.519531 133.136719 143.789062 133.285156 144.066406 133.421875 C 144.34375 133.554688 144.628906 133.667969 144.921875 133.769531 C 145.210938 133.867188 145.507812 133.949219 145.808594 134.015625 C 146.113281 134.082031 146.414062 134.128906 146.722656 134.15625 C 147.03125 134.1875 147.335938 134.195312 147.644531 134.191406 C 147.953125 134.183594 148.261719 134.160156 148.566406 134.117188 C 148.871094 134.074219 149.171875 134.011719 149.46875 133.933594 C 149.769531 133.855469 150.0625 133.761719 150.347656 133.648438 C 150.632812 133.535156 150.914062 133.40625 151.1875 133.261719 C 151.457031 133.113281 151.71875 132.953125 151.972656 132.777344 C 152.226562 132.601562 152.46875 132.410156 152.699219 132.207031 C 152.929688 132.003906 153.144531 131.785156 153.351562 131.554688 C 153.554688 131.324219 153.746094 131.082031 153.925781 130.832031 C 154.101562 130.578125 154.261719 130.316406 154.410156 130.046875 C 154.554688 129.773438 154.683594 129.496094 154.796875 129.207031 C 154.910156 128.921875 155.007812 128.628906 155.085938 128.332031 C 155.164062 128.035156 155.226562 127.730469 155.269531 127.425781 C 155.3125 127.121094 155.339844 126.816406 155.347656 126.507812 C 155.355469 126.199219 155.34375 125.890625 155.316406 125.585938 C 155.285156 125.277344 155.242188 124.972656 155.175781 124.671875 C 155.113281 124.371094 155.03125 124.074219 154.933594 123.78125 C 154.832031 123.488281 154.71875 123.203125 154.585938 122.925781 C 154.453125 122.648438 154.304688 122.378906 154.140625 122.117188 C 153.976562 121.855469 153.796875 121.605469 153.605469 121.367188 C 153.410156 121.125 153.203125 120.898438 152.984375 120.683594 C 152.761719 120.46875 152.53125 120.265625 152.289062 120.078125 C 152.042969 119.886719 151.789062 119.714844 151.523438 119.554688 C 151.261719 119.398438 150.988281 119.253906 150.707031 119.128906 C 150.425781 119 150.140625 118.890625 149.84375 118.796875 C 149.550781 118.707031 149.253906 118.628906 148.949219 118.570312 C 148.648438 118.515625 148.34375 118.472656 148.035156 118.453125 C 147.726562 118.429688 147.421875 118.425781 147.113281 118.4375 C 146.804688 118.453125 146.5 118.484375 146.195312 118.535156 C 145.890625 118.585938 145.589844 118.652344 145.292969 118.738281 C 144.996094 118.820312 144.707031 118.925781 144.421875 119.042969 C 144.136719 119.164062 143.863281 119.296875 143.59375 119.449219 C 143.324219 119.601562 143.066406 119.769531 142.816406 119.949219 C 142.570312 120.132812 142.332031 120.328125 142.105469 120.535156 C 141.878906 120.746094 141.667969 120.96875 141.46875 121.203125 C 141.265625 121.4375 141.082031 121.683594 140.910156 121.941406 C 140.742188 122.195312 140.585938 122.460938 140.445312 122.738281 C 140.304688 123.011719 140.183594 123.292969 140.074219 123.582031 C 139.464844 123.464844 138.871094 123.296875 138.289062 123.074219 C 137.710938 122.855469 137.152344 122.585938 136.621094 122.269531 C 136.085938 121.949219 135.582031 121.589844 135.113281 121.1875 C 134.640625 120.78125 134.207031 120.339844 133.8125 119.863281 C 133.417969 119.382812 133.066406 118.875 132.761719 118.332031 C 132.453125 117.792969 132.195312 117.230469 131.988281 116.648438 C 131.777344 116.0625 131.621094 115.464844 131.515625 114.851562 C 131.40625 114.242188 131.355469 113.625 131.355469 113.003906 L 131.355469 101.65625 Z M 44.65625 132.246094 C 44.285156 132.242188 43.925781 132.167969 43.582031 132.023438 C 43.234375 131.875 42.933594 131.667969 42.671875 131.402344 C 42.40625 131.136719 42.207031 130.832031 42.066406 130.484375 C 41.925781 130.136719 41.855469 129.777344 41.859375 129.40625 C 41.859375 129.03125 41.933594 128.671875 42.078125 128.328125 C 42.222656 127.980469 42.429688 127.679688 42.695312 127.414062 C 42.960938 127.152344 43.265625 126.949219 43.609375 126.808594 C 43.957031 126.664062 44.316406 126.59375 44.691406 126.597656 C 45.0625 126.597656 45.425781 126.671875 45.769531 126.8125 C 46.113281 126.957031 46.417969 127.164062 46.683594 127.425781 C 46.945312 127.691406 47.148438 127.996094 47.292969 128.34375 C 47.433594 128.6875 47.507812 129.046875 47.507812 129.421875 C 47.503906 129.796875 47.433594 130.160156 47.289062 130.507812 C 47.140625 130.855469 46.9375 131.160156 46.667969 131.425781 C 46.402344 131.691406 46.09375 131.894531 45.746094 132.035156 C 45.394531 132.179688 45.035156 132.246094 44.65625 132.246094 Z M 85.882812 149.984375 C 85.507812 149.984375 85.148438 149.914062 84.800781 149.769531 C 84.457031 149.625 84.152344 149.421875 83.886719 149.15625 C 83.625 148.890625 83.417969 148.585938 83.277344 148.238281 C 83.132812 147.890625 83.0625 147.53125 83.0625 147.15625 C 83.066406 146.785156 83.136719 146.421875 83.28125 146.078125 C 83.425781 145.730469 83.628906 145.425781 83.894531 145.164062 C 84.160156 144.898438 84.464844 144.695312 84.808594 144.550781 C 85.15625 144.410156 85.515625 144.335938 85.890625 144.335938 C 86.265625 144.335938 86.625 144.410156 86.96875 144.554688 C 87.316406 144.695312 87.621094 144.902344 87.886719 145.164062 C 88.152344 145.429688 88.355469 145.734375 88.496094 146.082031 C 88.640625 146.425781 88.710938 146.789062 88.710938 147.160156 C 88.710938 147.535156 88.640625 147.898438 88.496094 148.242188 C 88.351562 148.589844 88.148438 148.894531 87.882812 149.160156 C 87.617188 149.425781 87.308594 149.628906 86.964844 149.769531 C 86.617188 149.914062 86.257812 149.984375 85.882812 149.984375 Z M 108.15625 141.675781 C 107.78125 141.675781 107.417969 141.605469 107.070312 141.464844 C 106.722656 141.320312 106.417969 141.117188 106.152344 140.851562 C 105.886719 140.585938 105.679688 140.28125 105.535156 139.933594 C 105.390625 139.585938 105.320312 139.226562 105.320312 138.851562 C 105.316406 138.476562 105.390625 138.113281 105.53125 137.765625 C 105.675781 137.417969 105.878906 137.113281 106.144531 136.847656 C 106.410156 136.582031 106.71875 136.375 107.0625 136.230469 C 107.410156 136.089844 107.773438 136.015625 108.148438 136.015625 C 108.523438 136.015625 108.882812 136.085938 109.230469 136.230469 C 109.578125 136.375 109.882812 136.578125 110.148438 136.84375 C 110.414062 137.109375 110.621094 137.414062 110.765625 137.761719 C 110.910156 138.109375 110.980469 138.46875 110.980469 138.847656 C 110.980469 139.222656 110.90625 139.582031 110.761719 139.925781 C 110.621094 140.273438 110.417969 140.578125 110.152344 140.84375 C 109.886719 141.109375 109.582031 141.3125 109.234375 141.457031 C 108.890625 141.601562 108.53125 141.675781 108.15625 141.675781 Z M 147.445312 123.449219 C 147.820312 123.449219 148.179688 123.523438 148.527344 123.664062 C 148.871094 123.808594 149.175781 124.011719 149.441406 124.277344 C 149.707031 124.542969 149.910156 124.847656 150.054688 125.195312 C 150.199219 125.539062 150.269531 125.902344 150.269531 126.273438 C 150.269531 126.648438 150.199219 127.011719 150.054688 127.355469 C 149.910156 127.703125 149.707031 128.007812 149.441406 128.273438 C 149.175781 128.535156 148.871094 128.742188 148.527344 128.882812 C 148.179688 129.027344 147.820312 129.097656 147.445312 129.097656 C 147.070312 129.097656 146.710938 129.027344 146.363281 128.882812 C 146.019531 128.742188 145.714844 128.535156 145.449219 128.273438 C 145.183594 128.007812 144.980469 127.703125 144.835938 127.355469 C 144.691406 127.011719 144.621094 126.648438 144.621094 126.273438 C 144.621094 125.902344 144.695312 125.539062 144.835938 125.195312 C 144.980469 124.847656 145.183594 124.542969 145.449219 124.28125 C 145.714844 124.015625 146.019531 123.8125 146.367188 123.667969 C 146.710938 123.523438 147.070312 123.453125 147.445312 123.449219 Z M 41.832031 81.683594 C 41.832031 80.742188 41.921875 79.808594 42.097656 78.882812 C 42.277344 77.957031 42.539062 77.058594 42.886719 76.179688 C 43.230469 75.304688 43.660156 74.46875 44.164062 73.675781 C 44.667969 72.878906 45.242188 72.136719 45.886719 71.453125 C 46.535156 70.765625 47.238281 70.144531 48 69.59375 C 48.761719 69.039062 49.570312 68.5625 50.421875 68.160156 C 51.273438 67.757812 52.15625 67.441406 53.070312 67.207031 C 53.980469 66.972656 54.90625 66.828125 55.847656 66.765625 L 58.222656 66.585938 L 58.222656 64.207031 C 58.222656 62.984375 58.324219 61.769531 58.519531 60.5625 C 58.714844 59.355469 59.007812 58.171875 59.394531 57.011719 C 59.785156 55.851562 60.261719 54.734375 60.832031 53.652344 C 61.402344 52.570312 62.054688 51.539062 62.792969 50.5625 C 63.527344 49.585938 64.335938 48.675781 65.222656 47.832031 C 66.105469 46.984375 67.050781 46.214844 68.058594 45.523438 C 69.066406 44.832031 70.125 44.226562 71.230469 43.703125 C 72.335938 43.183594 73.476562 42.753906 74.652344 42.417969 C 75.828125 42.082031 77.023438 41.84375 78.238281 41.699219 C 79.453125 41.558594 80.671875 41.515625 81.894531 41.570312 C 83.113281 41.625 84.324219 41.777344 85.519531 42.027344 C 86.71875 42.277344 87.886719 42.621094 89.027344 43.0625 C 90.167969 43.5 91.265625 44.027344 92.324219 44.644531 C 93.378906 45.265625 94.378906 45.960938 95.320312 46.742188 C 96.261719 47.519531 97.136719 48.371094 97.941406 49.289062 C 98.746094 50.210938 99.472656 51.191406 100.117188 52.230469 L 101.378906 54.238281 L 103.464844 53.113281 C 105.328125 52.09375 107.324219 51.589844 109.449219 51.597656 C 110.488281 51.597656 111.511719 51.726562 112.519531 51.980469 C 113.527344 52.234375 114.492188 52.605469 115.40625 53.097656 C 116.324219 53.589844 117.167969 54.183594 117.9375 54.886719 C 118.703125 55.585938 119.375 56.367188 119.953125 57.234375 L 120.984375 58.792969 L 122.777344 58.257812 C 123.238281 58.117188 123.714844 58.03125 124.199219 58.003906 C 124.683594 57.972656 125.164062 58 125.640625 58.082031 C 126.121094 58.167969 126.582031 58.304688 127.027344 58.496094 C 127.472656 58.6875 127.890625 58.925781 128.277344 59.214844 C 128.667969 59.503906 129.019531 59.835938 129.332031 60.207031 C 129.644531 60.578125 129.910156 60.980469 130.125 61.414062 C 130.34375 61.847656 130.507812 62.300781 130.621094 62.773438 C 130.734375 63.242188 130.789062 63.722656 130.789062 64.207031 L 130.789062 66.730469 L 135.328125 66.730469 C 136.308594 66.730469 137.28125 66.824219 138.246094 67.015625 C 139.207031 67.207031 140.144531 67.492188 141.050781 67.867188 C 141.957031 68.242188 142.820312 68.703125 143.636719 69.25 C 144.453125 69.796875 145.207031 70.414062 145.902344 71.109375 C 146.597656 71.804688 147.214844 72.558594 147.761719 73.375 C 148.308594 74.191406 148.769531 75.054688 149.144531 75.960938 C 149.519531 76.867188 149.804688 77.804688 149.996094 78.765625 C 150.1875 79.730469 150.28125 80.703125 150.28125 81.683594 C 150.28125 82.664062 150.1875 83.636719 149.996094 84.601562 C 149.804688 85.5625 149.519531 86.5 149.144531 87.40625 C 148.769531 88.3125 148.308594 89.175781 147.761719 89.992188 C 147.214844 90.808594 146.597656 91.5625 145.902344 92.257812 C 145.207031 92.953125 144.453125 93.570312 143.636719 94.117188 C 142.820312 94.664062 141.957031 95.125 141.050781 95.5 C 140.144531 95.875 139.207031 96.160156 138.246094 96.351562 C 137.28125 96.542969 136.308594 96.636719 135.328125 96.636719 L 56.785156 96.636719 C 55.804688 96.636719 54.832031 96.539062 53.871094 96.347656 C 52.910156 96.15625 51.972656 95.871094 51.066406 95.496094 C 50.160156 95.117188 49.300781 94.65625 48.484375 94.113281 C 47.667969 93.566406 46.914062 92.945312 46.21875 92.253906 C 45.523438 91.558594 44.902344 90.804688 44.359375 89.988281 C 43.8125 89.171875 43.351562 88.308594 42.976562 87.402344 C 42.601562 86.496094 42.316406 85.5625 42.125 84.597656 C 41.929688 83.636719 41.832031 82.664062 41.832031 81.683594 Z M 41.832031 81.683594 " fill-opacity="1" fill-rule="nonzero"/></g></svg>