<svg xmlns="http://www.w3.org/2000/svg" xmlns:xlink="http://www.w3.org/1999/xlink" width="254" zoomAndPan="magnify" viewBox="0 0 190.5 190.499993" height="254" preserveAspectRatio="xMidYMid meet" version="1.0"><defs><clipPath id="52c67ce4d6"><path d="M 35.535156 40.269531 L 153.726562 40.269531 L 153.726562 149.484375 L 35.535156 149.484375 Z M 35.535156 40.269531 " clip-rule="nonzero"/></clipPath></defs><g clip-path="url(#52c67ce4d6)"><path fill="#ffffff" d="M 35.730469 58.417969 L 35.730469 131.089844 C 35.730469 141.066406 43.84375 149.179688 53.820312 149.179688 L 135.558594 149.179688 C 145.535156 149.179688 153.648438 141.066406 153.648438 131.089844 L 153.648438 72.074219 C 153.648438 69.5625 151.621094 67.535156 149.109375 67.535156 L 149.109375 62.511719 C 149.109375 55.269531 143.226562 49.386719 135.984375 49.386719 L 92.878906 49.386719 C 89.648438 43.785156 83.777344 40.316406 77.242188 40.316406 L 53.820312 40.316406 C 43.84375 40.328125 35.730469 48.441406 35.730469 58.417969 Z M 135.996094 58.464844 C 138.226562 58.464844 140.054688 60.28125 140.054688 62.523438 L 140.054688 67.546875 L 107.609375 67.546875 C 104.167969 67.546875 101.078125 65.636719 99.542969 62.558594 L 97.503906 58.476562 L 135.996094 58.476562 Z M 44.800781 58.417969 C 44.800781 53.441406 48.84375 49.398438 53.820312 49.398438 L 77.242188 49.398438 C 80.6875 49.398438 83.777344 51.308594 85.308594 54.386719 L 91.417969 66.617188 C 94.507812 72.785156 100.699219 76.617188 107.597656 76.617188 L 144.582031 76.617188 L 144.582031 131.101562 C 144.582031 136.078125 140.535156 140.121094 135.558594 140.121094 L 53.820312 140.121094 C 48.84375 140.121094 44.800781 136.078125 44.800781 131.101562 Z M 44.800781 58.417969 " fill-opacity="1" fill-rule="nonzero"/></g></svg>