<svg xmlns="http://www.w3.org/2000/svg" xmlns:xlink="http://www.w3.org/1999/xlink" width="254" zoomAndPan="magnify" viewBox="0 0 190.5 190.499993" height="254" preserveAspectRatio="xMidYMid meet" version="1.0"><defs><clipPath id="0884aecb00"><path d="M 33.988281 26.304688 L 155.167969 26.304688 L 155.167969 153.46875 L 33.988281 153.46875 Z M 33.988281 26.304688 " clip-rule="nonzero"/></clipPath></defs><g clip-path="url(#0884aecb00)"><path fill="#ffffff" d="M 133.46875 39.019531 L 127.566406 39.019531 L 127.566406 30.203125 C 127.566406 28.085938 125.84375 26.375 123.738281 26.375 C 121.617188 26.375 119.910156 28.101562 119.910156 30.203125 L 119.910156 39.035156 L 67.28125 39.035156 L 67.28125 30.203125 C 67.28125 28.085938 65.554688 26.375 63.449219 26.375 C 61.328125 26.375 59.621094 28.101562 59.621094 30.203125 L 59.621094 39.035156 L 55.902344 39.035156 C 43.796875 39.035156 33.988281 48.84375 33.988281 60.949219 L 33.988281 131.445312 C 33.988281 143.550781 43.796875 153.359375 55.902344 153.359375 L 133.46875 153.359375 C 145.574219 153.359375 155.386719 143.550781 155.386719 131.445312 L 155.386719 60.949219 C 155.402344 48.84375 145.574219 39.019531 133.46875 39.019531 Z M 119.894531 43.070312 L 119.894531 51.027344 C 119.894531 53.148438 121.617188 54.859375 123.722656 54.859375 C 125.84375 54.859375 127.550781 53.132812 127.550781 51.027344 L 127.550781 43.371094 C 130.003906 44.792969 131.667969 47.453125 131.667969 50.492188 C 131.667969 55.03125 127.980469 58.71875 123.4375 58.71875 C 118.898438 58.71875 115.210938 55.03125 115.210938 50.492188 C 115.242188 47.214844 117.140625 44.398438 119.894531 43.070312 Z M 59.605469 43.210938 L 59.605469 51.027344 C 59.605469 53.148438 61.328125 54.859375 63.433594 54.859375 C 65.554688 54.859375 67.265625 53.132812 67.265625 51.027344 L 67.265625 43.210938 C 69.875 44.589844 71.648438 47.328125 71.648438 50.476562 C 71.648438 55.015625 67.960938 58.703125 63.417969 58.703125 C 58.878906 58.703125 55.191406 55.015625 55.191406 50.476562 C 55.222656 47.328125 57.011719 44.589844 59.605469 43.210938 Z M 147.726562 131.429688 C 147.726562 139.292969 141.335938 145.671875 133.484375 145.671875 L 55.902344 145.671875 C 48.039062 145.671875 41.660156 139.277344 41.660156 131.429688 L 41.660156 73.039062 L 147.726562 73.039062 Z M 147.726562 131.429688 " fill-opacity="1" fill-rule="nonzero"/></g><path fill="#ffffff" d="M 67.390625 95.144531 L 56.773438 95.144531 C 55.917969 95.144531 55.222656 94.449219 55.222656 93.59375 L 55.222656 82.976562 C 55.222656 82.121094 55.917969 81.425781 56.773438 81.425781 L 67.390625 81.425781 C 68.246094 81.425781 68.941406 82.121094 68.941406 82.976562 L 68.941406 93.59375 C 68.925781 94.449219 68.246094 95.144531 67.390625 95.144531 Z M 67.390625 95.144531 " fill-opacity="1" fill-rule="nonzero"/><path fill="#ffffff" d="M 67.390625 116.917969 L 56.773438 116.917969 C 55.917969 116.917969 55.222656 116.222656 55.222656 115.367188 L 55.222656 104.75 C 55.222656 103.894531 55.917969 103.199219 56.773438 103.199219 L 67.390625 103.199219 C 68.246094 103.199219 68.941406 103.894531 68.941406 104.75 L 68.941406 115.367188 C 68.925781 116.238281 68.246094 116.917969 67.390625 116.917969 Z M 67.390625 116.917969 " fill-opacity="1" fill-rule="nonzero"/><path fill="#ffffff" d="M 67.390625 138.707031 L 56.773438 138.707031 C 55.917969 138.707031 55.222656 138.011719 55.222656 137.15625 L 55.222656 126.539062 C 55.222656 125.683594 55.917969 124.988281 56.773438 124.988281 L 67.390625 124.988281 C 68.246094 124.988281 68.941406 125.683594 68.941406 126.539062 L 68.941406 137.171875 C 68.925781 138.011719 68.246094 138.707031 67.390625 138.707031 Z M 67.390625 138.707031 " fill-opacity="1" fill-rule="nonzero"/><path fill="#ffffff" d="M 89.164062 95.144531 L 78.546875 95.144531 C 77.691406 95.144531 76.996094 94.449219 76.996094 93.59375 L 76.996094 82.976562 C 76.996094 82.121094 77.691406 81.425781 78.546875 81.425781 L 89.164062 81.425781 C 90.019531 81.425781 90.714844 82.121094 90.714844 82.976562 L 90.714844 93.59375 C 90.714844 94.449219 90.019531 95.144531 89.164062 95.144531 Z M 89.164062 95.144531 " fill-opacity="1" fill-rule="nonzero"/><path fill="#ffffff" d="M 89.164062 116.917969 L 78.546875 116.917969 C 77.691406 116.917969 76.996094 116.222656 76.996094 115.367188 L 76.996094 104.75 C 76.996094 103.894531 77.691406 103.199219 78.546875 103.199219 L 89.164062 103.199219 C 90.019531 103.199219 90.714844 103.894531 90.714844 104.75 L 90.714844 115.367188 C 90.714844 116.238281 90.019531 116.917969 89.164062 116.917969 Z M 89.164062 116.917969 " fill-opacity="1" fill-rule="nonzero"/><path fill="#ffffff" d="M 89.164062 138.707031 L 78.546875 138.707031 C 77.691406 138.707031 76.996094 138.011719 76.996094 137.15625 L 76.996094 126.539062 C 76.996094 125.683594 77.691406 124.988281 78.546875 124.988281 L 89.164062 124.988281 C 90.019531 124.988281 90.714844 125.683594 90.714844 126.539062 L 90.714844 137.171875 C 90.714844 138.011719 90.019531 138.707031 89.164062 138.707031 Z M 89.164062 138.707031 " fill-opacity="1" fill-rule="nonzero"/><path fill="#ffffff" d="M 110.953125 95.144531 L 100.335938 95.144531 C 99.480469 95.144531 98.785156 94.449219 98.785156 93.59375 L 98.785156 82.976562 C 98.785156 82.121094 99.480469 81.425781 100.335938 81.425781 L 110.953125 81.425781 C 111.808594 81.425781 112.503906 82.121094 112.503906 82.976562 L 112.503906 93.59375 C 112.488281 94.449219 111.808594 95.144531 110.953125 95.144531 Z M 110.953125 95.144531 " fill-opacity="1" fill-rule="nonzero"/><path fill="#ffffff" d="M 110.953125 116.917969 L 100.335938 116.917969 C 99.480469 116.917969 98.785156 116.222656 98.785156 115.367188 L 98.785156 104.75 C 98.785156 103.894531 99.480469 103.199219 100.335938 103.199219 L 110.953125 103.199219 C 111.808594 103.199219 112.503906 103.894531 112.503906 104.75 L 112.503906 115.367188 C 112.488281 116.238281 111.808594 116.917969 110.953125 116.917969 Z M 110.953125 116.917969 " fill-opacity="1" fill-rule="nonzero"/><path fill="#ffffff" d="M 110.953125 138.707031 L 100.335938 138.707031 C 99.480469 138.707031 98.785156 138.011719 98.785156 137.15625 L 98.785156 126.539062 C 98.785156 125.683594 99.480469 124.988281 100.335938 124.988281 L 110.953125 124.988281 C 111.808594 124.988281 112.503906 125.683594 112.503906 126.539062 L 112.503906 137.171875 C 112.488281 138.011719 111.808594 138.707031 110.953125 138.707031 Z M 110.953125 138.707031 " fill-opacity="1" fill-rule="nonzero"/><path fill="#ffffff" d="M 132.742188 95.144531 L 122.125 95.144531 C 121.269531 95.144531 120.574219 94.449219 120.574219 93.59375 L 120.574219 82.976562 C 120.574219 82.121094 121.269531 81.425781 122.125 81.425781 L 132.742188 81.425781 C 133.597656 81.425781 134.292969 82.121094 134.292969 82.976562 L 134.292969 93.59375 C 134.277344 94.449219 133.582031 95.144531 132.742188 95.144531 Z M 132.742188 95.144531 " fill-opacity="1" fill-rule="nonzero"/><path fill="#ffffff" d="M 132.742188 116.917969 L 122.125 116.917969 C 121.269531 116.917969 120.574219 116.222656 120.574219 115.367188 L 120.574219 104.75 C 120.574219 103.894531 121.269531 103.199219 122.125 103.199219 L 132.742188 103.199219 C 133.597656 103.199219 134.292969 103.894531 134.292969 104.75 L 134.292969 115.367188 C 134.277344 116.238281 133.582031 116.917969 132.742188 116.917969 Z M 132.742188 116.917969 " fill-opacity="1" fill-rule="nonzero"/></svg>