<svg xmlns="http://www.w3.org/2000/svg" xmlns:xlink="http://www.w3.org/1999/xlink" width="254" zoomAndPan="magnify" viewBox="0 0 190.5 190.499993" height="254" preserveAspectRatio="xMidYMid meet" version="1.0"><defs><clipPath id="1d3842140d"><path d="M 30.664062 54 L 158.578125 54 L 158.578125 140.253906 L 30.664062 140.253906 Z M 30.664062 54 " clip-rule="nonzero"/></clipPath><clipPath id="170f3e82c7"><path d="M 37 48.992188 L 151 48.992188 L 151 106 L 37 106 Z M 37 48.992188 " clip-rule="nonzero"/></clipPath></defs><g clip-path="url(#1d3842140d)"><path fill="#ffffff" d="M 97.128906 115.421875 C 96.273438 116.277344 95.113281 116.753906 93.902344 116.753906 C 92.683594 116.753906 91.527344 116.277344 90.671875 115.421875 L 31.160156 55.898438 C 30.976562 56.632812 30.710938 57.335938 30.710938 58.132812 L 30.710938 131.253906 C 30.710938 136.304688 34.800781 140.398438 39.851562 140.398438 L 149.535156 140.398438 C 154.566406 140.398438 158.671875 136.304688 158.671875 131.253906 L 158.671875 58.132812 C 158.671875 56.875 158.40625 55.679688 157.953125 54.601562 Z M 97.128906 115.421875 " fill-opacity="1" fill-rule="nonzero"/></g><g clip-path="url(#170f3e82c7)"><path fill="#ffffff" d="M 93.902344 105.730469 L 150.445312 49.179688 C 150.128906 49.144531 149.855469 48.992188 149.535156 48.992188 L 39.851562 48.992188 C 39.058594 48.992188 38.355469 49.253906 37.621094 49.4375 Z M 93.902344 105.730469 " fill-opacity="1" fill-rule="nonzero"/></g></svg>