<svg xmlns="http://www.w3.org/2000/svg" xmlns:xlink="http://www.w3.org/1999/xlink" width="254" zoomAndPan="magnify" viewBox="0 0 190.5 190.499993" height="254" preserveAspectRatio="xMidYMid meet" version="1.0"><defs><clipPath id="639c6e1615"><path d="M 48.066406 26.304688 L 141.570312 26.304688 L 141.570312 163 L 48.066406 163 Z M 48.066406 26.304688 " clip-rule="nonzero"/></clipPath></defs><g clip-path="url(#639c6e1615)"><path fill="#ffffff" d="M 94.703125 42.859375 C 107.21875 42.859375 115.28125 55.988281 115.449219 72.269531 L 73.957031 72.269531 C 74.128906 55.988281 82.1875 42.859375 94.703125 42.859375 Z M 94.703125 26.601562 C 75.203125 26.601562 59.402344 47.238281 59.402344 72.691406 L 59.410156 73.328125 C 52.777344 75.757812 48.054688 82.105469 48.054688 89.550781 L 48.054688 130.089844 C 48.054688 148.136719 68.941406 162.769531 94.703125 162.769531 C 120.464844 162.769531 141.355469 148.136719 141.355469 130.089844 L 141.355469 89.550781 C 141.355469 82.101562 136.628906 75.757812 130 73.328125 L 130.007812 72.691406 C 130.007812 47.238281 114.203125 26.601562 94.703125 26.601562 Z M 81.464844 110.605469 C 81.464844 103.320312 87.390625 97.410156 94.703125 97.410156 C 102.015625 97.410156 107.941406 103.320312 107.941406 110.605469 C 107.941406 115.269531 105.511719 119.375 101.847656 121.71875 L 101.847656 133.863281 L 87.558594 133.863281 L 87.558594 121.71875 C 83.894531 119.371094 81.464844 115.269531 81.464844 110.605469 Z M 81.464844 110.605469 " fill-opacity="1" fill-rule="evenodd"/></g></svg>