<svg xmlns="http://www.w3.org/2000/svg" xmlns:xlink="http://www.w3.org/1999/xlink" width="254" zoomAndPan="magnify" viewBox="0 0 190.5 190.499993" height="254" preserveAspectRatio="xMidYMid meet" version="1.0"><defs><clipPath id="efde39b4a3"><path d="M 33 28.191406 L 157 28.191406 L 157 164.332031 L 33 164.332031 Z M 33 28.191406 " clip-rule="nonzero"/></clipPath></defs><g clip-path="url(#efde39b4a3)"><path fill="#ffffff" d="M 147.316406 100.308594 C 139.300781 131.59375 121.601562 151.535156 94.695312 159.582031 C 67.828125 151.542969 50.132812 131.648438 42.101562 100.429688 C 37.070312 80.871094 37.601562 62.695312 37.957031 56.789062 C 63.074219 55.996094 84.03125 41.183594 94.699219 33.445312 C 105.296875 41.109375 126.3125 55.992188 151.433594 56.789062 C 151.789062 62.679688 152.320312 80.765625 147.316406 100.308594 Z M 155.777344 54.339844 C 155.664062 53.183594 154.691406 52.308594 153.53125 52.308594 C 128.46875 52.308594 107.839844 37.378906 96.753906 29.359375 L 96.019531 28.824219 C 95.226562 28.253906 94.160156 28.253906 93.371094 28.828125 L 92.796875 29.242188 C 82.492188 36.730469 61.046875 52.308594 35.855469 52.308594 C 34.695312 52.308594 33.722656 53.183594 33.609375 54.339844 C 33.515625 55.25 31.421875 76.941406 37.695312 101.429688 C 46.078125 134.148438 65.570312 155.820312 94.066406 164.105469 C 94.269531 164.167969 94.484375 164.199219 94.695312 164.199219 C 94.90625 164.199219 95.121094 164.167969 95.324219 164.105469 C 123.820312 155.820312 143.3125 134.148438 151.691406 101.429688 C 157.964844 76.941406 155.871094 55.25 155.777344 54.339844 " fill-opacity="1" fill-rule="nonzero"/></g><path fill="#ffffff" d="M 119.632812 78.628906 L 90.667969 116.34375 C 89.910156 117.328125 88.789062 117.960938 87.558594 118.105469 C 87.382812 118.125 87.207031 118.132812 87.03125 118.132812 C 85.976562 118.132812 84.953125 117.769531 84.128906 117.097656 L 69.535156 105.148438 C 67.574219 103.542969 67.285156 100.65625 68.890625 98.695312 C 70.496094 96.738281 73.382812 96.449219 75.339844 98.054688 L 86.277344 107.007812 L 112.359375 73.046875 C 113.902344 71.035156 116.78125 70.660156 118.789062 72.203125 C 120.796875 73.746094 121.175781 76.621094 119.632812 78.628906 Z M 94.695312 42.261719 C 84.902344 49.324219 67.085938 61.367188 45.652344 62.679688 C 45.085938 77.710938 46.113281 135.988281 94.695312 151.007812 C 143.269531 135.988281 144.292969 77.710938 143.734375 62.679688 C 122.292969 61.359375 104.429688 49.277344 94.695312 42.261719 " fill-opacity="1" fill-rule="nonzero"/></svg>