<svg xmlns="http://www.w3.org/2000/svg" xmlns:xlink="http://www.w3.org/1999/xlink" width="254" zoomAndPan="magnify" viewBox="0 0 190.5 190.499993" height="254" preserveAspectRatio="xMidYMid meet" version="1.0"><defs><clipPath id="2327b06b6a"><path d="M 31.882812 31.882812 L 157.550781 31.882812 L 157.550781 157.550781 L 31.882812 157.550781 Z M 31.882812 31.882812 " clip-rule="nonzero"/></clipPath></defs><g clip-path="url(#2327b06b6a)"><path fill="#ffffff" d="M 155.46875 157.496094 L 33.925781 157.496094 C 32.828125 157.496094 31.933594 156.605469 31.933594 155.503906 L 31.933594 144.148438 C 31.933594 125.257812 47.304688 109.890625 66.191406 109.890625 L 123.203125 109.890625 C 142.09375 109.890625 157.460938 125.257812 157.460938 144.148438 L 157.460938 155.503906 C 157.460938 156.605469 156.570312 157.496094 155.46875 157.496094 Z M 94.699219 104.535156 C 74.667969 104.535156 58.371094 88.238281 58.371094 68.207031 C 58.371094 48.175781 74.667969 31.882812 94.699219 31.882812 C 114.730469 31.882812 131.023438 48.175781 131.023438 68.207031 C 131.023438 88.238281 114.730469 104.535156 94.699219 104.535156 Z M 94.699219 104.535156 " fill-opacity="1" fill-rule="nonzero"/></g></svg>