<svg xmlns="http://www.w3.org/2000/svg" xmlns:xlink="http://www.w3.org/1999/xlink" width="254" zoomAndPan="magnify" viewBox="0 0 190.5 190.499993" height="254" preserveAspectRatio="xMidYMid meet" version="1.0"><defs><clipPath id="81c445e1fa"><path d="M 22 33.046875 L 167.820312 33.046875 L 167.820312 148 L 22 148 Z M 22 33.046875 " clip-rule="nonzero"/></clipPath></defs><g clip-path="url(#81c445e1fa)"><path fill="#ffffff" d="M 25.28125 116.742188 C 33.273438 116.742188 41.261719 116.742188 49.253906 116.742188 C 50.621094 116.742188 51.746094 115.820312 52.144531 114.539062 C 57.136719 98.558594 62.132812 82.578125 67.125 66.59375 C 65.199219 66.59375 63.273438 66.59375 61.347656 66.59375 C 67.339844 83.242188 73.335938 99.890625 79.328125 116.539062 C 80.28125 119.191406 84.332031 119.59375 85.105469 116.539062 C 91.765625 90.234375 98.425781 63.929688 105.082031 37.628906 C 103.160156 37.628906 101.230469 37.628906 99.304688 37.628906 C 105.632812 73.585938 111.957031 109.546875 118.285156 145.507812 C 118.726562 148.019531 122.671875 148.476562 123.761719 146.222656 C 128.570312 136.28125 133.382812 126.339844 138.191406 116.398438 C 139.390625 113.925781 134.46875 116.742188 137.707031 116.742188 C 140.859375 116.742188 144.011719 116.742188 147.164062 116.742188 C 152.816406 116.742188 158.472656 116.742188 164.125 116.742188 C 167.988281 116.742188 167.988281 110.746094 164.125 110.746094 C 154.800781 110.746094 145.480469 110.746094 136.15625 110.746094 C 135.164062 110.746094 134.019531 111.304688 133.570312 112.230469 C 128.574219 122.554688 123.582031 132.875 118.585938 143.195312 C 120.414062 143.433594 122.238281 143.671875 124.0625 143.914062 C 117.734375 107.953125 111.410156 71.992188 105.082031 36.035156 C 104.558594 33.042969 100 33.292969 99.304688 36.035156 C 92.644531 62.339844 85.984375 88.640625 79.328125 114.945312 C 81.253906 114.945312 83.179688 114.945312 85.105469 114.945312 C 79.113281 98.296875 73.121094 81.648438 67.128906 65 C 66.132812 62.242188 62.269531 62.058594 61.347656 65 C 56.355469 80.984375 51.359375 96.964844 46.363281 112.949219 C 47.328125 112.214844 48.292969 111.480469 49.253906 110.75 C 41.261719 110.75 33.273438 110.75 25.28125 110.75 C 21.414062 110.75 21.414062 116.742188 25.28125 116.742188 Z M 25.28125 116.742188 " fill-opacity="1" fill-rule="nonzero"/></g></svg>