<svg xmlns="http://www.w3.org/2000/svg" xmlns:xlink="http://www.w3.org/1999/xlink" width="254" zoomAndPan="magnify" viewBox="0 0 190.5 190.499993" height="254" preserveAspectRatio="xMidYMid meet" version="1.0"><defs><clipPath id="015170a62d"><path d="M 32 38.21875 L 157 38.21875 L 157 151.171875 L 32 151.171875 Z M 32 38.21875 " clip-rule="nonzero"/></clipPath><clipPath id="f1a85beb28"><path d="M 22.984375 113 L 31 113 L 31 139 L 22.984375 139 Z M 22.984375 113 " clip-rule="nonzero"/></clipPath><clipPath id="cfca7b8a1d"><path d="M 159 113 L 166.609375 113 L 166.609375 139 L 159 139 Z M 159 113 " clip-rule="nonzero"/></clipPath></defs><g clip-path="url(#015170a62d)"><path fill="#ffffff" d="M 156.695312 110.398438 C 157.113281 104.488281 158.214844 74.738281 140.125 55.171875 C 129.445312 43.621094 114.265625 37.945312 94.992188 38.324219 C 75.734375 37.960938 60.542969 43.625 49.863281 55.171875 C 32.230469 74.242188 32.832031 102.988281 33.261719 109.90625 C 33.007812 110.863281 32.867188 111.867188 32.867188 112.90625 L 32.867188 139.4375 C 32.867188 145.871094 38.089844 151.082031 44.53125 151.082031 L 52.632812 151.082031 C 59.074219 151.082031 64.296875 145.871094 64.296875 139.4375 L 64.296875 112.90625 C 64.296875 106.472656 59.074219 101.257812 52.632812 101.257812 L 44.535156 101.257812 C 43.652344 101.257812 42.796875 101.359375 41.972656 101.542969 C 42.414062 90.964844 44.988281 73.296875 56.324219 61.066406 C 65.246094 51.4375 78.25 46.710938 94.90625 47.0625 L 95.082031 47.0625 C 111.746094 46.730469 124.742188 51.4375 133.667969 61.066406 C 145.015625 73.3125 147.578125 91.003906 148.015625 101.578125 C 147.144531 101.371094 146.238281 101.257812 145.304688 101.257812 L 137.203125 101.257812 C 130.761719 101.257812 125.539062 106.472656 125.539062 112.90625 L 125.539062 139.4375 C 125.539062 145.871094 130.761719 151.082031 137.203125 151.082031 L 145.304688 151.082031 C 151.746094 151.082031 156.96875 145.871094 156.96875 139.4375 L 156.96875 112.90625 C 156.96875 112.042969 156.871094 111.207031 156.695312 110.398438 Z M 156.695312 110.398438 " fill-opacity="1" fill-rule="nonzero"/></g><g clip-path="url(#f1a85beb28)"><path fill="#ffffff" d="M 30.03125 113.554688 L 22.984375 117.675781 L 22.984375 133.449219 L 30.03125 138.0625 " fill-opacity="1" fill-rule="nonzero"/></g><g clip-path="url(#cfca7b8a1d)"><path fill="#ffffff" d="M 159.5625 113.554688 L 166.609375 117.675781 L 166.609375 133.449219 L 159.5625 138.0625 " fill-opacity="1" fill-rule="nonzero"/></g></svg>