<svg xmlns="http://www.w3.org/2000/svg" xmlns:xlink="http://www.w3.org/1999/xlink" width="529" zoomAndPan="magnify" viewBox="0 0 396.75 359.999987" height="480" preserveAspectRatio="xMidYMid meet" version="1.0"><defs><clipPath id="de97fd2cd7"><path d="M 0.167969 0.113281 L 395.699219 0.113281 L 395.699219 359.875 L 0.167969 359.875 Z M 0.167969 0.113281 " clip-rule="nonzero"/></clipPath><clipPath id="08349c5718"><path d="M 5.429688 19.40625 L 395.699219 19.40625 L 395.699219 359.875 L 5.429688 359.875 Z M 5.429688 19.40625 " clip-rule="nonzero"/></clipPath></defs><g clip-path="url(#de97fd2cd7)"><path fill="#ffca55" d="M 5.375 300.308594 L 163.132812 20.441406 C 178.414062 -6.667969 217.457031 -6.667969 232.738281 20.441406 L 390.492188 300.308594 C 405.503906 326.9375 386.261719 359.875 355.691406 359.875 L 40.175781 359.875 C 9.609375 359.875 -9.636719 326.9375 5.375 300.308594 " fill-opacity="1" fill-rule="nonzero"/></g><g clip-path="url(#08349c5718)"><path fill="#f9af40" d="M 390.492188 300.308594 L 232.738281 20.441406 C 224.332031 5.535156 351.714844 280.34375 351.714844 280.34375 C 366.726562 306.976562 347.480469 339.910156 316.914062 339.910156 L 5.59375 339.910156 C 12.324219 351.558594 24.820312 359.875 40.175781 359.875 L 355.691406 359.875 C 386.261719 359.875 405.503906 326.9375 390.492188 300.308594 " fill-opacity="1" fill-rule="nonzero"/></g><path fill="#ffffff" d="M 197.933594 256.632812 C 185.664062 256.632812 175.714844 266.582031 175.714844 278.851562 C 175.714844 291.125 185.664062 301.074219 197.933594 301.074219 C 210.207031 301.074219 220.15625 291.125 220.15625 278.851562 C 220.15625 266.582031 210.207031 256.632812 197.933594 256.632812 " fill-opacity="1" fill-rule="nonzero"/><path fill="#ffffff" d="M 197.933594 78.875 C 178.464844 78.875 163.191406 95.589844 164.941406 114.980469 L 173.71875 212.324219 C 174.847656 224.851562 185.355469 234.449219 197.933594 234.449219 C 210.519531 234.449219 221.019531 224.851562 222.152344 212.324219 L 230.929688 114.980469 C 232.679688 95.589844 217.40625 78.875 197.933594 78.875 " fill-opacity="1" fill-rule="nonzero"/></svg>