<svg xmlns="http://www.w3.org/2000/svg" xmlns:xlink="http://www.w3.org/1999/xlink" width="443" zoomAndPan="magnify" viewBox="0 0 332.25 359.999987" height="480" preserveAspectRatio="xMidYMid meet" version="1.0"><defs><clipPath id="1f5e13d95e"><path d="M 0 28 L 330.753906 28 L 330.753906 359.59375 L 0 359.59375 Z M 0 28 " clip-rule="nonzero"/></clipPath><clipPath id="a2b976a28c"><path d="M 85 0.40625 L 302 0.40625 L 302 277 L 85 277 Z M 85 0.40625 " clip-rule="nonzero"/></clipPath></defs><g clip-path="url(#1f5e13d95e)"><path fill="#47a1a8" d="M 330.894531 194.117188 C 330.894531 196.828125 330.828125 199.53125 330.695312 202.238281 C 330.5625 204.941406 330.363281 207.640625 330.097656 210.335938 C 329.835938 213.03125 329.503906 215.714844 329.105469 218.394531 C 328.707031 221.074219 328.246094 223.742188 327.71875 226.394531 C 327.1875 229.050781 326.597656 231.691406 325.9375 234.320312 C 325.28125 236.945312 324.558594 239.554688 323.773438 242.144531 C 322.984375 244.738281 322.136719 247.308594 321.226562 249.855469 C 320.3125 252.40625 319.339844 254.933594 318.300781 257.433594 C 317.265625 259.933594 316.167969 262.410156 315.011719 264.855469 C 313.855469 267.304688 312.636719 269.722656 311.359375 272.109375 C 310.082031 274.5 308.75 276.855469 307.359375 279.175781 C 305.964844 281.5 304.515625 283.785156 303.011719 286.039062 C 301.507812 288.289062 299.949219 290.5 298.335938 292.675781 C 296.722656 294.851562 295.058594 296.984375 293.339844 299.078125 C 291.625 301.171875 289.855469 303.222656 288.035156 305.226562 C 286.21875 307.234375 284.351562 309.195312 282.4375 311.109375 C 280.523438 313.023438 278.5625 314.890625 276.554688 316.707031 C 274.550781 318.527344 272.5 320.296875 270.40625 322.011719 C 268.3125 323.730469 266.179688 325.394531 264.003906 327.007812 C 261.828125 328.621094 259.617188 330.179688 257.367188 331.683594 C 255.113281 333.1875 252.828125 334.636719 250.503906 336.027344 C 248.183594 337.421875 245.828125 338.753906 243.4375 340.03125 C 241.050781 341.308594 238.632812 342.523438 236.183594 343.683594 C 233.738281 344.839844 231.261719 345.9375 228.761719 346.972656 C 226.261719 348.011719 223.734375 348.984375 221.183594 349.898438 C 218.636719 350.808594 216.066406 351.65625 213.472656 352.445312 C 210.882812 353.230469 208.273438 353.953125 205.648438 354.609375 C 203.019531 355.269531 200.378906 355.859375 197.722656 356.390625 C 195.070312 356.917969 192.402344 357.378906 189.722656 357.777344 C 187.042969 358.175781 184.359375 358.507812 181.664062 358.769531 C 178.96875 359.035156 176.269531 359.234375 173.566406 359.367188 C 170.859375 359.5 168.15625 359.566406 165.445312 359.566406 C 162.738281 359.566406 160.03125 359.5 157.328125 359.367188 C 154.625 359.234375 151.925781 359.035156 149.230469 358.769531 C 146.535156 358.507812 143.847656 358.175781 141.171875 357.777344 C 138.492188 357.378906 135.824219 356.917969 133.167969 356.390625 C 130.511719 355.859375 127.871094 355.269531 125.246094 354.609375 C 122.621094 353.953125 120.011719 353.230469 117.417969 352.445312 C 114.828125 351.65625 112.257812 350.808594 109.707031 349.898438 C 107.160156 348.984375 104.632812 348.011719 102.132812 346.972656 C 99.628906 345.9375 97.15625 344.839844 94.707031 343.683594 C 92.261719 342.527344 89.84375 341.308594 87.453125 340.03125 C 85.066406 338.753906 82.710938 337.421875 80.390625 336.027344 C 78.066406 334.636719 75.78125 333.1875 73.527344 331.683594 C 71.277344 330.179688 69.0625 328.621094 66.890625 327.007812 C 64.714844 325.394531 62.578125 323.730469 60.488281 322.011719 C 58.394531 320.296875 56.34375 318.527344 54.335938 316.707031 C 52.332031 314.890625 50.371094 313.023438 48.457031 311.109375 C 46.542969 309.195312 44.675781 307.234375 42.855469 305.226562 C 41.039062 303.222656 39.269531 301.171875 37.554688 299.078125 C 35.835938 296.984375 34.167969 294.851562 32.558594 292.675781 C 30.945312 290.5 29.386719 288.289062 27.878906 286.039062 C 26.375 283.785156 24.929688 281.5 23.535156 279.175781 C 22.144531 276.855469 20.808594 274.5 19.535156 272.109375 C 18.257812 269.722656 17.039062 267.304688 15.882812 264.855469 C 14.726562 262.410156 13.628906 259.933594 12.589844 257.433594 C 11.554688 254.933594 10.582031 252.40625 9.667969 249.855469 C 8.757812 247.308594 7.90625 244.738281 7.121094 242.144531 C 6.335938 239.554688 5.613281 236.945312 4.957031 234.320312 C 4.296875 231.691406 3.703125 229.050781 3.175781 226.394531 C 2.648438 223.742188 2.183594 221.074219 1.789062 218.394531 C 1.390625 215.714844 1.058594 213.03125 0.792969 210.335938 C 0.527344 207.640625 0.328125 204.941406 0.195312 202.238281 C 0.0625 199.53125 -0.00390625 196.828125 -0.00390625 194.117188 C -0.00390625 191.410156 0.0625 188.703125 0.195312 186 C 0.328125 183.296875 0.527344 180.597656 0.792969 177.902344 C 1.058594 175.207031 1.390625 172.519531 1.789062 169.84375 C 2.183594 167.164062 2.648438 164.496094 3.175781 161.839844 C 3.703125 159.183594 4.296875 156.542969 4.957031 153.917969 C 5.613281 151.292969 6.335938 148.683594 7.121094 146.089844 C 7.90625 143.5 8.757812 140.929688 9.667969 138.378906 C 10.582031 135.832031 11.554688 133.304688 12.589844 130.804688 C 13.628906 128.300781 14.726562 125.828125 15.882812 123.378906 C 17.039062 120.933594 18.257812 118.515625 19.535156 116.125 C 20.808594 113.738281 22.144531 111.382812 23.535156 109.0625 C 24.929688 106.738281 26.375 104.453125 27.878906 102.199219 C 29.386719 99.949219 30.945312 97.734375 32.558594 95.558594 C 34.167969 93.386719 35.835938 91.25 37.554688 89.160156 C 39.269531 87.066406 41.039062 85.015625 42.855469 83.007812 C 44.675781 81.003906 46.542969 79.042969 48.457031 77.128906 C 50.371094 75.214844 52.332031 73.347656 54.335938 71.527344 C 56.34375 69.710938 58.394531 67.941406 60.488281 66.222656 C 62.578125 64.507812 64.714844 62.839844 66.890625 61.226562 C 69.0625 59.617188 71.277344 58.058594 73.527344 56.550781 C 75.78125 55.046875 78.066406 53.601562 80.390625 52.207031 C 82.710938 50.816406 85.066406 49.480469 87.453125 48.207031 C 89.84375 46.929688 92.261719 45.710938 94.707031 44.554688 C 97.15625 43.394531 99.628906 42.300781 102.132812 41.261719 C 104.632812 40.226562 107.160156 39.253906 109.707031 38.339844 C 112.257812 37.429688 114.828125 36.578125 117.417969 35.792969 C 120.011719 35.007812 122.621094 34.285156 125.246094 33.628906 C 127.871094 32.96875 130.511719 32.375 133.167969 31.847656 C 135.824219 31.320312 138.492188 30.855469 141.171875 30.460938 C 143.847656 30.0625 146.535156 29.730469 149.230469 29.464844 C 151.925781 29.199219 154.625 29 157.328125 28.867188 C 160.03125 28.734375 162.738281 28.667969 165.445312 28.667969 C 168.15625 28.667969 170.859375 28.734375 173.566406 28.867188 C 176.269531 29 178.96875 29.199219 181.664062 29.464844 C 184.359375 29.730469 187.042969 30.0625 189.722656 30.460938 C 192.402344 30.855469 195.070312 31.320312 197.722656 31.847656 C 200.378906 32.375 203.019531 32.96875 205.648438 33.628906 C 208.273438 34.285156 210.882812 35.007812 213.472656 35.792969 C 216.066406 36.578125 218.636719 37.429688 221.183594 38.339844 C 223.734375 39.253906 226.261719 40.226562 228.761719 41.261719 C 231.261719 42.300781 233.738281 43.394531 236.183594 44.554688 C 238.632812 45.710938 241.050781 46.929688 243.4375 48.207031 C 245.828125 49.480469 248.183594 50.816406 250.503906 52.207031 C 252.828125 53.601562 255.113281 55.046875 257.367188 56.550781 C 259.617188 58.058594 261.828125 59.617188 264.003906 61.226562 C 266.179688 62.839844 268.3125 64.507812 270.40625 66.222656 C 272.5 67.941406 274.550781 69.710938 276.554688 71.527344 C 278.5625 73.347656 280.523438 75.214844 282.4375 77.128906 C 284.351562 79.042969 286.21875 81.003906 288.035156 83.007812 C 289.855469 85.015625 291.625 87.066406 293.339844 89.160156 C 295.058594 91.25 296.722656 93.386719 298.335938 95.558594 C 299.949219 97.734375 301.507812 99.949219 303.011719 102.199219 C 304.515625 104.453125 305.964844 106.738281 307.359375 109.0625 C 308.75 111.382812 310.082031 113.738281 311.359375 116.125 C 312.636719 118.515625 313.855469 120.933594 315.011719 123.378906 C 316.167969 125.828125 317.265625 128.300781 318.300781 130.804688 C 319.339844 133.304688 320.3125 135.832031 321.226562 138.378906 C 322.136719 140.929688 322.984375 143.5 323.773438 146.089844 C 324.558594 148.683594 325.28125 151.292969 325.9375 153.917969 C 326.597656 156.542969 327.1875 159.183594 327.71875 161.839844 C 328.246094 164.496094 328.707031 167.164062 329.105469 169.84375 C 329.503906 172.519531 329.835938 175.207031 330.097656 177.902344 C 330.363281 180.597656 330.5625 183.296875 330.695312 186 C 330.828125 188.703125 330.894531 191.410156 330.894531 194.117188 Z M 330.894531 194.117188 " fill-opacity="1" fill-rule="nonzero"/></g><g clip-path="url(#a2b976a28c)"><path fill="#ffffff" d="M 300.492188 21.25 C 299.664062 17.644531 297.996094 14.480469 295.496094 11.757812 C 293.511719 8.683594 290.902344 6.289062 287.667969 4.570312 L 281.003906 1.757812 C 278.574219 1.09375 276.101562 0.761719 273.585938 0.761719 C 271.066406 0.761719 268.59375 1.09375 266.167969 1.757812 L 259.5 4.570312 C 257.433594 5.785156 255.550781 7.238281 253.855469 8.9375 C 252.15625 10.632812 250.703125 12.515625 249.488281 14.582031 C 242.320312 28.917969 235.152344 43.253906 227.988281 57.589844 L 206.578125 100.398438 C 199.410156 114.734375 192.242188 129.070312 185.078125 143.40625 L 163.667969 186.214844 C 163.625 186.300781 163.582031 186.386719 163.542969 186.46875 C 159.351562 179.3125 154.953125 172.277344 150.347656 165.363281 C 146.207031 159.15625 141.902344 153.066406 137.433594 147.09375 C 135.71875 143.859375 133.324219 141.25 130.246094 139.265625 C 128.835938 138.074219 127.3125 137.054688 125.679688 136.203125 C 124.042969 135.351562 122.335938 134.6875 120.550781 134.214844 C 118.769531 133.738281 116.957031 133.464844 115.117188 133.390625 C 113.273438 133.316406 111.445312 133.441406 109.628906 133.769531 C 105.871094 133.933594 102.414062 135.035156 99.253906 137.078125 L 93.605469 141.441406 C 91.898438 143.148438 90.433594 145.042969 89.21875 147.128906 C 88.003906 149.21875 87.074219 151.425781 86.429688 153.753906 C 86.09375 156.226562 85.757812 158.699219 85.433594 161.171875 C 85.429688 163.648438 85.753906 166.078125 86.402344 168.46875 C 87.046875 170.859375 87.996094 173.121094 89.25 175.257812 C 104.996094 196.335938 118.65625 218.695312 130.222656 242.324219 C 133.5 249.023438 136.597656 255.804688 139.519531 262.671875 C 139.824219 263.191406 140.148438 263.707031 140.484375 264.207031 C 140.824219 264.710938 141.179688 265.199219 141.550781 265.679688 C 141.921875 266.160156 142.308594 266.625 142.710938 267.078125 C 143.113281 267.53125 143.527344 267.972656 143.957031 268.398438 C 144.386719 268.828125 144.832031 269.238281 145.289062 269.636719 C 145.746094 270.035156 146.214844 270.417969 146.699219 270.785156 C 147.179688 271.152344 147.671875 271.503906 148.179688 271.839844 C 148.683594 272.171875 149.199219 272.492188 149.722656 272.792969 C 150.25 273.09375 150.785156 273.378906 151.328125 273.644531 C 151.871094 273.914062 152.425781 274.160156 152.984375 274.390625 C 153.546875 274.621094 154.113281 274.835938 154.6875 275.027344 C 155.261719 275.222656 155.839844 275.398438 156.425781 275.554688 C 157.011719 275.710938 157.601562 275.847656 158.195312 275.964844 C 158.789062 276.082031 159.386719 276.179688 159.988281 276.257812 C 160.589844 276.335938 161.191406 276.394531 161.796875 276.4375 C 162.402344 276.476562 163.007812 276.496094 163.613281 276.496094 C 164.21875 276.496094 164.824219 276.476562 165.429688 276.4375 C 166.035156 276.394531 166.636719 276.335938 167.238281 276.257812 C 167.839844 276.179688 168.4375 276.082031 169.03125 275.964844 C 169.625 275.847656 170.214844 275.710938 170.800781 275.554688 C 171.386719 275.398438 171.964844 275.222656 172.539062 275.027344 C 173.113281 274.835938 173.679688 274.621094 174.242188 274.390625 C 174.800781 274.160156 175.355469 273.914062 175.898438 273.644531 C 176.441406 273.378906 176.976562 273.09375 177.503906 272.792969 C 178.027344 272.492188 178.542969 272.171875 179.046875 271.839844 C 179.554688 271.503906 180.046875 271.152344 180.527344 270.785156 C 181.011719 270.417969 181.480469 270.035156 181.9375 269.636719 C 182.394531 269.238281 182.839844 268.828125 183.269531 268.398438 C 183.699219 267.972656 184.113281 267.53125 184.515625 267.078125 C 184.917969 266.625 185.304688 266.160156 185.675781 265.679688 C 186.046875 265.199219 186.402344 264.710938 186.742188 264.207031 C 187.078125 263.707031 187.402344 263.191406 187.707031 262.671875 C 194.878906 248.335938 202.046875 234 209.210938 219.664062 L 230.617188 176.855469 L 252.121094 133.882812 C 259.253906 119.613281 266.390625 105.339844 273.523438 91.070312 L 295.03125 48.066406 L 297.683594 42.753906 C 299.722656 39.59375 300.824219 36.136719 300.988281 32.375 C 301.835938 28.621094 301.671875 24.914062 300.492188 21.25 Z M 300.492188 21.25 " fill-opacity="1" fill-rule="nonzero"/></g></svg>