<svg xmlns="http://www.w3.org/2000/svg" width="645.05" height="645.08" viewBox="0 0 645.05 645.08">
  <title>Recurso 1</title>
  <g id="Capa_2" data-name="Capa 2">
    <g id="Capa_1-2" data-name="Capa 1">
      <g>
        <path d="M626.55,322.53a60.35,60.35,0,0,0-.47-8.39A60.19,60.19,0,0,0,621.69,298,60.2,60.2,0,0,0,613,283.64a60.46,60.46,0,0,0-12.31-11.38,61.9,61.9,0,0,0-7.22-4.3l-487-243.48a61.71,61.71,0,0,0-8.13-3.18,61.37,61.37,0,0,0-17.21-2.79,61.92,61.92,0,0,0-8.72.46,61.92,61.92,0,0,0-16.83,4.59,61.69,61.69,0,0,0-14.86,9.12A61.28,61.28,0,0,0,29,45.6a61.12,61.12,0,0,0-4.36,7.57,62.36,62.36,0,0,0-3.25,8.11,60.5,60.5,0,0,0-2.06,8.5,61.33,61.33,0,0,0,1.2,26L83.9,317.47a18.14,18.14,0,0,1,0,10.12L20.57,549.25a61.38,61.38,0,0,0-1.64,8.59,61.34,61.34,0,0,0,2.48,25.93,62.44,62.44,0,0,0,3.24,8.12A61.12,61.12,0,0,0,29,599.46a61.57,61.57,0,0,0,26.56,22.06,61.48,61.48,0,0,0,16.82,4.58,60.67,60.67,0,0,0,8.73.47,61.67,61.67,0,0,0,25.35-6l487-243.5a60.46,60.46,0,0,0,7.22-4.29,61.3,61.3,0,0,0,6.55-5.26,60.51,60.51,0,0,0,5.75-6.12,60.68,60.68,0,0,0,8.69-14.33,62,62,0,0,0,2.76-7.93,60.35,60.35,0,0,0,2.1-16.63ZM574.44,339,87.45,582.5a18.22,18.22,0,0,1-5,1.55,18.48,18.48,0,0,1-5.25.09,18.66,18.66,0,0,1-13.09-8,18.5,18.5,0,0,1-2.3-4.73,18.22,18.22,0,0,1-.89-5.18,18.73,18.73,0,0,1,.59-5.22l62.06-217.16h117.8a21,21,0,0,0,4.1-.47A21.09,21.09,0,0,0,253,340.1a20.63,20.63,0,0,0,3.17-2.65,21.72,21.72,0,0,0,2.6-3.21,21.35,21.35,0,0,0,1.92-19.77,20.82,20.82,0,0,0-1.92-3.65,21.72,21.72,0,0,0-2.6-3.21A20.63,20.63,0,0,0,253,305a21.49,21.49,0,0,0-3.61-2,20.89,20.89,0,0,0-3.93-1.25,21.85,21.85,0,0,0-4.1-.48H123.54L61.48,84.09a18.87,18.87,0,0,1-.62-5.23A18.62,18.62,0,0,1,64,68.93,18,18,0,0,1,67.58,65a18.71,18.71,0,0,1,9.57-4.14,18.61,18.61,0,0,1,5.27.1,19,19,0,0,1,5,1.57l487,243.51a18.45,18.45,0,0,1,7.28,6.85,18.06,18.06,0,0,1,2,4.62,18.62,18.62,0,0,1-2,14.63,18.93,18.93,0,0,1-3.17,3.91A18.49,18.49,0,0,1,574.44,339Z" style="fill: #47a1a8"/>
        <path d="M80,645.08a80.15,80.15,0,0,1-21.08-2.83,81.43,81.43,0,0,1-10.68-3.74,80.31,80.31,0,0,1-19.37-11.89,82,82,0,0,1-8.19-7.85,80.1,80.1,0,0,1-18-74.27l.09-.33L66.1,322.53l-63.42-222A80,80,0,0,1,0,78,79.6,79.6,0,0,1,1.12,66.7,79.51,79.51,0,0,1,8,45.12a79.46,79.46,0,0,1,5.7-9.89A79.87,79.87,0,0,1,38.17,11.82,79.9,79.9,0,0,1,70.14.61,79.84,79.84,0,0,1,92.82,1a78.89,78.89,0,0,1,11,2.61,79.7,79.7,0,0,1,10.58,4.14l.32.16,487,243.48a79.17,79.17,0,0,1,9.48,5.63,80,80,0,0,1,8.58,6.88,80.92,80.92,0,0,1,7.52,8,83.11,83.11,0,0,1,6.33,9,81,81,0,0,1,5,9.8A79.32,79.32,0,0,1,642.3,301a78,78,0,0,1,2.75,21.5,78.76,78.76,0,0,1-6.36,31.84,79.64,79.64,0,0,1-5,9.77,78.72,78.72,0,0,1-13.87,17,79.5,79.5,0,0,1-8.55,6.86,80.3,80.3,0,0,1-9.43,5.62L114.58,637.22l-.17.08a80.14,80.14,0,0,1-21.65,6.75,79.09,79.09,0,0,1-11.31,1Zm-41.6-90.92a43.26,43.26,0,0,0-1.4,12,42.69,42.69,0,0,0,2,12,43.2,43.2,0,0,0,5.3,10.94,42.71,42.71,0,0,0,8.19,9,42.94,42.94,0,0,0,10.39,6.38,43.94,43.94,0,0,0,5.78,2,42.57,42.57,0,0,0,6,1.17,41.63,41.63,0,0,0,6.12.33,42.59,42.59,0,0,0,12-2A42.61,42.61,0,0,0,98.38,604l486.83-243.4a43.71,43.71,0,0,0,4.95-3,41.48,41.48,0,0,0,4.53-3.64,41.45,41.45,0,0,0,7.33-9,44.74,44.74,0,0,0,2.67-5.2,40.2,40.2,0,0,0,1.9-5.47,42.1,42.1,0,0,0,1.13-5.69,40.68,40.68,0,0,0,.33-5.81v-.56a42,42,0,0,0-.32-5.81,44.2,44.2,0,0,0-1.13-5.7,41.52,41.52,0,0,0-16.44-23.27,43.21,43.21,0,0,0-5-3L98.38,41.12A42.79,42.79,0,0,0,92.85,39a43.13,43.13,0,0,0-24.13-.45,43.46,43.46,0,0,0-5.78,2,42.07,42.07,0,0,0-5.41,2.82,43.23,43.23,0,0,0-5,3.57,44.14,44.14,0,0,0-4.42,4.24A42.87,42.87,0,0,0,44.36,56a43.36,43.36,0,0,0-3,5.3A44.1,44.1,0,0,0,39,66.92a42.52,42.52,0,0,0-2,12A42.49,42.49,0,0,0,37.29,85a41.61,41.61,0,0,0,1.11,5.85l63.28,221.51a36.24,36.24,0,0,1,0,20.28Zm41.08,48.62a38.23,38.23,0,0,1-4.66-.29,37.43,37.43,0,0,1-10.08-2.77,37,37,0,0,1-8.94-5.49A37.14,37.14,0,0,1,42.4,566.68a37.08,37.08,0,0,1,1.17-10.34l.12-.46,65.9-230.57H241.08a3.35,3.35,0,0,0,.47-.06,2.9,2.9,0,0,0,.57-.18,3,3,0,0,0,.41-.23,2.3,2.3,0,0,0,.4-.34,2.65,2.65,0,0,0,.36-.43,2.46,2.46,0,0,0,.24-.45,2.86,2.86,0,0,0,.17-.53,2.81,2.81,0,0,0,.06-.56,2.64,2.64,0,0,0-.06-.55,2.48,2.48,0,0,0-.15-.49,2.7,2.7,0,0,0-.26-.51,2.88,2.88,0,0,0-.32-.39,3.08,3.08,0,0,0-.44-.37,3.54,3.54,0,0,0-.47-.26,4.35,4.35,0,0,0-.47-.15,3.32,3.32,0,0,0-.5-.07H109.59l-66-230.92a37.08,37.08,0,0,1,12.19-38,37.05,37.05,0,0,1,39.64-4.91l.3.15L582.87,289.6l.16.08a37.09,37.09,0,0,1,0,65.7l-.32.16L95.53,599.15l-.2.09a37.15,37.15,0,0,1-10,3.09A37.8,37.8,0,0,1,79.49,602.78ZM79.18,566l-9.74,15.3,9.81-15.22Zm.17-.28,0,.14.15-.11,0,0,486.4-243.22,0,0,0-.1h0L79.48,79.25l-.13,0L137.5,282.74H241.69a39.94,39.94,0,0,1,7.64.88,39.93,39.93,0,0,1,14.11,6.06,39.72,39.72,0,0,1,10.74,10.93A40.18,40.18,0,0,1,280,314.86a39.59,39.59,0,0,1,0,15.34,39.81,39.81,0,0,1-2.24,7.44,38.48,38.48,0,0,1-3.57,6.76,39,39,0,0,1-4.86,6,39.81,39.81,0,0,1-5.9,4.94,39.31,39.31,0,0,1-6.76,3.72,40.05,40.05,0,0,1-15,3.23H137.5L79.39,565.62h0Z" style="fill: #47a1a8"/>
      </g>
    </g>
  </g>
</svg>
