<svg xmlns="http://www.w3.org/2000/svg" xmlns:xlink="http://www.w3.org/1999/xlink" width="569" zoomAndPan="magnify" viewBox="0 0 426.75 426.749984" height="569" preserveAspectRatio="xMidYMid meet" version="1.0"><defs><clipPath id="5091949465"><path d="M 0 6 L 420 6 L 420 425.75 L 0 425.75 Z M 0 6 " clip-rule="nonzero"/></clipPath></defs><g clip-path="url(#5091949465)"><path fill="#868686" d="M 419.550781 231.988281 L 402.566406 300.097656 C 401.636719 303.828125 398.039062 306.273438 394.230469 305.746094 L 350.410156 299.78125 C 347.53125 299.390625 344.757812 300.726562 343.183594 303.152344 C 332.296875 319.824219 318.386719 334.546875 301.789062 346.257812 C 299.421875 347.921875 298.191406 350.738281 298.671875 353.585938 L 306.136719 396.972656 C 306.796875 400.765625 304.488281 404.441406 300.785156 405.503906 L 233.304688 424.859375 C 229.601562 425.925781 225.707031 424.050781 224.25 420.480469 C 219.933594 409.914062 211.28125 388.757812 207.566406 379.660156 C 206.46875 376.976562 203.953125 375.296875 201.058594 375.144531 C 180.773438 374.007812 161.164062 368.894531 143.113281 360.527344 C 140.492188 359.3125 137.433594 359.660156 135.199219 361.503906 L 101.195312 389.792969 C 98.242188 392.25 93.894531 392.101562 91.121094 389.417969 L 40.628906 340.648438 C 37.855469 337.980469 37.539062 333.648438 39.910156 330.605469 L 66.910156 295.734375 C 68.679688 293.4375 68.933594 290.382812 67.613281 287.800781 C 58.363281 269.542969 52.953125 250.695312 51.136719 230.324219 C 50.882812 227.429688 49.054688 224.96875 46.324219 223.964844 L 4.949219 208.703125 C 1.335938 207.371094 -0.691406 203.53125 0.238281 199.800781 L 17.226562 131.691406 C 18.15625 127.957031 21.753906 125.511719 25.5625 126.039062 L 69.382812 132.003906 C 72.261719 132.394531 75.035156 131.058594 76.609375 128.632812 C 87.480469 111.960938 101.40625 97.222656 117.988281 85.515625 C 120.355469 83.851562 121.585938 81.03125 121.105469 78.183594 L 113.640625 34.796875 C 112.980469 31.003906 115.289062 27.332031 118.992188 26.265625 L 186.472656 6.910156 C 190.175781 5.847656 194.070312 7.75 195.542969 11.304688 L 212.210938 52.050781 C 213.308594 54.734375 215.855469 56.460938 218.734375 56.625 C 222.285156 56.820312 225.796875 57.300781 229.289062 57.734375 C 225.359375 71.585938 223.980469 86.144531 225.585938 100.714844 C 225.824219 102.949219 225.105469 105.167969 223.53125 106.757812 L 204.070312 126.234375 C 150.519531 129.679688 109.667969 179.84375 122.230469 236.484375 C 129.5625 269.542969 156.246094 296.226562 189.304688 303.558594 C 245.945312 316.121094 296.121094 275.269531 299.554688 221.703125 L 319.015625 202.242188 C 320.621094 200.636719 322.839844 199.902344 325.085938 200.160156 C 339.75 201.761719 354.066406 200.472656 367.980469 196.5625 C 368.175781 198.195312 368.503906 199.84375 368.640625 201.464844 C 368.894531 204.355469 370.722656 206.816406 373.453125 207.820312 L 414.828125 223.082031 C 418.457031 224.414062 420.480469 228.253906 419.550781 231.988281 Z M 419.550781 231.988281 " fill-opacity="1" fill-rule="nonzero"/></g><path fill="#868686" d="M 415.398438 61.8125 C 425.175781 90.582031 418.621094 123.789062 395.640625 146.773438 C 373.660156 168.75 342.34375 175.617188 314.457031 167.609375 C 312.929688 167.175781 311.292969 167.550781 310.15625 168.691406 L 203.292969 275.554688 C 175.40625 272.40625 153.367188 250.367188 150.21875 222.480469 L 257.082031 115.617188 C 258.207031 114.496094 258.597656 112.859375 258.164062 111.316406 C 250.15625 83.429688 257.023438 52.128906 279 30.132812 C 301.984375 7.152344 335.207031 0.601562 363.960938 10.375 C 367.050781 11.425781 367.84375 15.5 365.535156 17.808594 L 307.5 75.84375 C 306.300781 77.042969 305.882812 78.84375 306.421875 80.449219 L 315.476562 107.464844 C 315.925781 108.796875 316.976562 109.847656 318.3125 110.296875 L 345.328125 119.351562 C 346.945312 119.890625 348.730469 119.472656 349.929688 118.273438 L 407.964844 60.238281 C 410.273438 57.929688 414.351562 58.722656 415.398438 61.8125 Z M 415.398438 61.8125 " fill-opacity="1" fill-rule="nonzero"/></svg>