<svg xmlns="http://www.w3.org/2000/svg" xmlns:xlink="http://www.w3.org/1999/xlink" width="458" zoomAndPan="magnify" viewBox="0 0 343.5 359.999987" height="480" preserveAspectRatio="xMidYMid meet" version="1.0"><defs><clipPath id="9289d3f766"><path d="M 3 0.261719 L 338 0.261719 L 338 91 L 3 91 Z M 3 0.261719 " clip-rule="nonzero"/></clipPath><clipPath id="6396f94d32"><path d="M 29 115 L 312 115 L 312 359.738281 L 29 359.738281 Z M 29 115 " clip-rule="nonzero"/></clipPath></defs><g clip-path="url(#9289d3f766)"><path fill="#868686" d="M 144.664062 0.261719 C 116.445312 0.261719 93.308594 23.398438 93.308594 51.617188 L 93.308594 64.453125 L 16.277344 64.453125 C 9.191406 64.453125 3.441406 70.203125 3.441406 77.292969 C 3.441406 84.378906 9.191406 90.128906 16.277344 90.128906 L 324.402344 90.128906 C 331.488281 90.128906 337.238281 84.378906 337.238281 77.292969 C 337.238281 70.203125 331.488281 64.453125 324.402344 64.453125 L 247.371094 64.453125 L 247.371094 51.617188 C 247.371094 23.398438 224.234375 0.261719 196.015625 0.261719 Z M 144.664062 25.9375 L 196.015625 25.9375 C 210.460938 25.9375 221.695312 37.171875 221.695312 51.617188 L 221.695312 64.453125 L 118.988281 64.453125 L 118.988281 51.617188 C 118.988281 37.171875 130.21875 25.9375 144.664062 25.9375 Z M 144.664062 25.9375 " fill-opacity="1" fill-rule="nonzero"/></g><g clip-path="url(#6396f94d32)"><path fill="#868686" d="M 41.957031 115.808594 C 34.867188 115.808594 29.117188 121.558594 29.117188 128.644531 L 29.117188 282.707031 C 29.117188 325.167969 63.6875 359.738281 106.148438 359.738281 L 234.53125 359.738281 C 276.992188 359.738281 311.5625 325.167969 311.5625 282.707031 L 311.5625 128.644531 C 311.5625 121.558594 305.8125 115.808594 298.726562 115.808594 C 291.636719 115.808594 285.886719 121.558594 285.886719 128.644531 L 285.886719 282.707031 C 285.886719 311.394531 263.21875 334.0625 234.53125 334.0625 L 106.148438 334.0625 C 77.460938 334.0625 54.792969 311.394531 54.792969 282.707031 L 54.792969 128.644531 C 54.792969 121.558594 49.042969 115.808594 41.957031 115.808594 Z M 41.957031 115.808594 " fill-opacity="1" fill-rule="nonzero"/></g><path fill="#868686" d="M 131.824219 141.484375 C 124.738281 141.484375 118.988281 147.234375 118.988281 154.324219 L 118.988281 269.871094 C 118.988281 276.957031 124.738281 282.707031 131.824219 282.707031 C 138.914062 282.707031 144.664062 276.957031 144.664062 269.871094 L 144.664062 154.324219 C 144.664062 147.234375 138.914062 141.484375 131.824219 141.484375 Z M 131.824219 141.484375 " fill-opacity="1" fill-rule="nonzero"/><path fill="#868686" d="M 208.855469 141.484375 C 201.769531 141.484375 196.015625 147.234375 196.015625 154.324219 L 196.015625 269.871094 C 196.015625 276.957031 201.769531 282.707031 208.855469 282.707031 C 215.945312 282.707031 221.695312 276.957031 221.695312 269.871094 L 221.695312 154.324219 C 221.695312 147.234375 215.945312 141.484375 208.855469 141.484375 Z M 208.855469 141.484375 " fill-opacity="1" fill-rule="nonzero"/></svg>