<svg xmlns="http://www.w3.org/2000/svg" xmlns:xlink="http://www.w3.org/1999/xlink" width="391" zoomAndPan="magnify" viewBox="0 0 293.25 293.249989" height="391" preserveAspectRatio="xMidYMid meet" version="1.0"><defs><clipPath id="b0e0cdf51b"><path d="M 0 0 L 291.753906 0 L 291.753906 291.753906 L 0 291.753906 Z M 0 0 " clip-rule="nonzero"/></clipPath></defs><g clip-path="url(#b0e0cdf51b)"><path fill="#999999" d="M 145.933594 29.1875 C 81.457031 29.1875 29.1875 81.457031 29.1875 145.933594 C 29.1875 164.441406 33.484375 181.90625 41.117188 197.417969 C 43.21875 201.6875 43.980469 206.671875 42.964844 211.625 L 33.253906 258.9375 L 82.476562 249.730469 C 87.195312 248.847656 91.921875 249.566406 96.007812 251.503906 C 111.128906 258.667969 128.042969 262.683594 145.933594 262.683594 C 210.414062 262.683594 262.683594 210.414062 262.683594 145.933594 C 262.683594 81.457031 210.414062 29.1875 145.933594 29.1875 Z M 0 145.933594 C 0 65.335938 65.335938 0 145.933594 0 C 226.53125 0 291.871094 65.335938 291.871094 145.933594 C 291.871094 226.53125 226.53125 291.871094 145.933594 291.871094 C 124.4375 291.871094 103.992188 287.214844 85.582031 278.839844 L 27.949219 289.625 C 12.664062 292.484375 -0.644531 278.941406 2.480469 263.707031 L 13.886719 208.136719 C 4.976562 189.25 0 168.152344 0 145.933594 Z M 0 145.933594 " fill-opacity="1" fill-rule="evenodd"/></g><path fill="#999999" d="M 160.527344 116.75 L 160.527344 218.902344 L 131.34375 218.902344 L 131.34375 131.34375 L 116.75 131.34375 L 116.75 102.15625 L 145.933594 102.15625 C 153.996094 102.15625 160.527344 108.6875 160.527344 116.75 Z M 160.527344 116.75 " fill-opacity="1" fill-rule="evenodd"/><path fill="#999999" d="M 116.75 204.308594 L 175.121094 204.308594 L 175.121094 233.496094 L 116.75 233.496094 Z M 116.75 204.308594 " fill-opacity="1" fill-rule="evenodd"/><path fill="#999999" d="M 131.34375 58.375 L 160.527344 58.375 L 160.527344 80.265625 L 131.34375 80.265625 Z M 131.34375 58.375 " fill-opacity="1" fill-rule="evenodd"/></svg>