<svg xmlns="http://www.w3.org/2000/svg" xmlns:xlink="http://www.w3.org/1999/xlink" width="70" zoomAndPan="magnify" viewBox="0 0 52.5 51.749998" height="69" preserveAspectRatio="xMidYMid meet" version="1.0"><defs><clipPath id="8b31336bd9"><path d="M 0 0.121094 L 51.605469 0.121094 L 51.605469 50.738281 L 0 50.738281 Z M 0 0.121094 " clip-rule="nonzero"/></clipPath><clipPath id="65f3c0f36e"><path d="M 6.6875 0.121094 L 44.761719 0.121094 C 46.535156 0.121094 48.234375 0.824219 49.488281 2.078125 C 50.742188 3.332031 51.445312 5.035156 51.445312 6.804688 L 51.445312 44.050781 C 51.445312 45.824219 50.742188 47.523438 49.488281 48.777344 C 48.234375 50.03125 46.535156 50.738281 44.761719 50.738281 L 6.6875 50.738281 C 4.914062 50.738281 3.210938 50.03125 1.957031 48.777344 C 0.703125 47.523438 0 45.824219 0 44.050781 L 0 6.804688 C 0 5.035156 0.703125 3.332031 1.957031 2.078125 C 3.210938 0.824219 4.914062 0.121094 6.6875 0.121094 Z M 6.6875 0.121094 " clip-rule="nonzero"/></clipPath><clipPath id="f063b8aeee"><path d="M 10.609375 10.316406 L 41 10.316406 L 41 40.773438 L 10.609375 40.773438 Z M 10.609375 10.316406 " clip-rule="nonzero"/></clipPath><clipPath id="2def2c766c"><path d="M 21 10.316406 L 41 10.316406 L 41 30 L 21 30 Z M 21 10.316406 " clip-rule="nonzero"/></clipPath></defs><g clip-path="url(#8b31336bd9)"><g clip-path="url(#65f3c0f36e)"><path fill="#f2f3f6" d="M 0 0.121094 L 51.40625 0.121094 L 51.40625 50.738281 L 0 50.738281 Z M 0 0.121094 " fill-opacity="1" fill-rule="nonzero"/></g></g><g clip-path="url(#f063b8aeee)"><path fill="#868686" d="M 40.382812 26.777344 L 39.179688 31.613281 C 39.113281 31.878906 38.859375 32.050781 38.585938 32.011719 L 35.476562 31.589844 C 35.273438 31.5625 35.078125 31.65625 34.964844 31.828125 C 34.191406 33.011719 33.207031 34.058594 32.027344 34.886719 C 31.859375 35.007812 31.773438 35.207031 31.804688 35.410156 L 32.335938 38.488281 C 32.382812 38.757812 32.21875 39.019531 31.957031 39.09375 L 27.167969 40.464844 C 26.90625 40.542969 26.628906 40.410156 26.523438 40.15625 C 26.21875 39.40625 25.605469 37.90625 25.339844 37.257812 C 25.261719 37.070312 25.085938 36.949219 24.878906 36.9375 C 23.4375 36.859375 22.046875 36.496094 20.765625 35.902344 C 20.582031 35.816406 20.363281 35.839844 20.203125 35.96875 L 17.792969 37.976562 C 17.582031 38.152344 17.273438 38.140625 17.078125 37.953125 L 13.492188 34.492188 C 13.296875 34.300781 13.273438 33.992188 13.441406 33.777344 L 15.359375 31.304688 C 15.484375 31.140625 15.503906 30.921875 15.410156 30.738281 C 14.753906 29.445312 14.367188 28.105469 14.238281 26.660156 C 14.222656 26.457031 14.089844 26.28125 13.898438 26.210938 L 10.960938 25.125 C 10.703125 25.03125 10.5625 24.757812 10.628906 24.496094 L 11.832031 19.660156 C 11.898438 19.394531 12.152344 19.222656 12.425781 19.261719 L 15.535156 19.683594 C 15.738281 19.710938 15.933594 19.617188 16.046875 19.445312 C 16.816406 18.261719 17.804688 17.214844 18.984375 16.382812 C 19.152344 16.265625 19.238281 16.066406 19.203125 15.863281 L 18.675781 12.785156 C 18.628906 12.515625 18.792969 12.253906 19.054688 12.179688 L 23.84375 10.804688 C 24.105469 10.730469 24.382812 10.867188 24.488281 11.117188 L 25.671875 14.007812 C 25.746094 14.199219 25.929688 14.324219 26.132812 14.335938 C 26.386719 14.347656 26.632812 14.382812 26.882812 14.414062 C 26.601562 15.394531 26.503906 16.429688 26.621094 17.464844 C 26.636719 17.621094 26.585938 17.777344 26.472656 17.890625 L 25.09375 19.273438 C 21.292969 19.519531 18.394531 23.078125 19.285156 27.097656 C 19.804688 29.445312 21.699219 31.339844 24.042969 31.859375 C 28.0625 32.75 31.625 29.851562 31.867188 26.050781 L 33.25 24.667969 C 33.363281 24.554688 33.519531 24.503906 33.679688 24.519531 C 34.722656 24.632812 35.738281 24.542969 36.726562 24.265625 C 36.738281 24.378906 36.761719 24.496094 36.769531 24.613281 C 36.789062 24.816406 36.917969 24.992188 37.113281 25.0625 L 40.050781 26.148438 C 40.308594 26.242188 40.449219 26.515625 40.382812 26.777344 Z M 40.382812 26.777344 " fill-opacity="1" fill-rule="nonzero"/></g><g clip-path="url(#2def2c766c)"><path fill="#868686" d="M 40.089844 14.703125 C 40.785156 16.742188 40.320312 19.101562 38.6875 20.730469 C 37.128906 22.292969 34.90625 22.777344 32.925781 22.210938 C 32.816406 22.179688 32.703125 22.207031 32.621094 22.285156 L 25.039062 29.871094 C 23.058594 29.648438 21.496094 28.082031 21.269531 26.105469 L 28.855469 18.519531 C 28.933594 18.441406 28.960938 18.324219 28.929688 18.214844 C 28.363281 16.234375 28.851562 14.015625 30.410156 12.453125 C 32.042969 10.824219 34.398438 10.359375 36.441406 11.050781 C 36.660156 11.125 36.714844 11.414062 36.550781 11.578125 L 32.433594 15.699219 C 32.347656 15.78125 32.316406 15.910156 32.355469 16.023438 L 33 17.941406 C 33.03125 18.035156 33.105469 18.109375 33.199219 18.144531 L 35.117188 18.785156 C 35.230469 18.824219 35.359375 18.792969 35.445312 18.707031 L 39.5625 14.589844 C 39.726562 14.425781 40.015625 14.484375 40.089844 14.703125 Z M 40.089844 14.703125 " fill-opacity="1" fill-rule="nonzero"/></g></svg>