<svg xmlns="http://www.w3.org/2000/svg" xmlns:xlink="http://www.w3.org/1999/xlink" width="187" zoomAndPan="magnify" viewBox="0 0 140.25 560.249982" height="747" preserveAspectRatio="xMidYMid meet" version="1.0"><defs><clipPath id="6a0fce070b"><path d="M 0 1.117188 L 139.214844 1.117188 L 139.214844 141 L 0 141 Z M 0 1.117188 " clip-rule="nonzero"/></clipPath><clipPath id="7f21e02586"><path d="M 0 209 L 139.214844 209 L 139.214844 350 L 0 350 Z M 0 209 " clip-rule="nonzero"/></clipPath><clipPath id="edb4f6e061"><path d="M 0 418 L 139.214844 418 L 139.214844 557.640625 L 0 557.640625 Z M 0 418 " clip-rule="nonzero"/></clipPath></defs><g clip-path="url(#6a0fce070b)"><path fill="#868686" d="M 69.605469 140.339844 C 68.46875 140.339844 67.328125 140.3125 66.191406 140.257812 C 65.054688 140.199219 63.917969 140.117188 62.785156 140.003906 C 61.652344 139.894531 60.519531 139.753906 59.394531 139.585938 C 58.265625 139.421875 57.144531 139.226562 56.027344 139.003906 C 54.910156 138.78125 53.800781 138.53125 52.695312 138.253906 C 51.589844 137.976562 50.492188 137.675781 49.402344 137.34375 C 48.3125 137.011719 47.230469 136.65625 46.15625 136.273438 C 45.085938 135.886719 44.023438 135.476562 42.96875 135.042969 C 41.917969 134.605469 40.875 134.144531 39.847656 133.65625 C 38.816406 133.171875 37.800781 132.660156 36.792969 132.121094 C 35.789062 131.585938 34.800781 131.023438 33.820312 130.4375 C 32.84375 129.851562 31.882812 129.242188 30.9375 128.609375 C 29.988281 127.976562 29.058594 127.320312 28.144531 126.640625 C 27.226562 125.964844 26.328125 125.261719 25.449219 124.539062 C 24.570312 123.816406 23.707031 123.074219 22.863281 122.308594 C 22.019531 121.542969 21.195312 120.757812 20.386719 119.953125 C 19.582031 119.148438 18.796875 118.324219 18.03125 117.480469 C 17.265625 116.636719 16.523438 115.773438 15.800781 114.890625 C 15.078125 114.011719 14.378906 113.113281 13.699219 112.199219 C 13.019531 111.285156 12.363281 110.351562 11.730469 109.40625 C 11.097656 108.457031 10.488281 107.496094 9.902344 106.519531 C 9.316406 105.542969 8.757812 104.550781 8.21875 103.546875 C 7.683594 102.542969 7.171875 101.523438 6.683594 100.496094 C 6.195312 99.464844 5.734375 98.425781 5.300781 97.371094 C 4.863281 96.320312 4.453125 95.257812 4.070312 94.183594 C 3.6875 93.109375 3.328125 92.03125 2.996094 90.941406 C 2.667969 89.851562 2.363281 88.753906 2.085938 87.648438 C 1.808594 86.542969 1.558594 85.429688 1.339844 84.3125 C 1.117188 83.195312 0.921875 82.074219 0.753906 80.949219 C 0.585938 79.820312 0.449219 78.691406 0.335938 77.558594 C 0.222656 76.421875 0.140625 75.289062 0.0859375 74.148438 C 0.0273438 73.011719 0 71.875 0 70.734375 C 0 69.59375 0.0273438 68.457031 0.0859375 67.320312 C 0.140625 66.179688 0.222656 65.046875 0.335938 63.910156 C 0.449219 62.777344 0.585938 61.648438 0.753906 60.519531 C 0.921875 59.394531 1.117188 58.273438 1.339844 57.15625 C 1.558594 56.039062 1.808594 54.925781 2.085938 53.820312 C 2.363281 52.714844 2.667969 51.617188 2.996094 50.527344 C 3.328125 49.4375 3.6875 48.355469 4.070312 47.285156 C 4.453125 46.210938 4.863281 45.148438 5.300781 44.097656 C 5.734375 43.042969 6.195312 42.003906 6.683594 40.972656 C 7.171875 39.945312 7.683594 38.925781 8.21875 37.921875 C 8.757812 36.917969 9.316406 35.925781 9.902344 34.949219 C 10.488281 33.972656 11.097656 33.011719 11.730469 32.0625 C 12.363281 31.117188 13.019531 30.183594 13.699219 29.269531 C 14.378906 28.355469 15.078125 27.457031 15.800781 26.578125 C 16.523438 25.695312 17.265625 24.832031 18.03125 23.988281 C 18.796875 23.144531 19.582031 22.320312 20.386719 21.515625 C 21.195312 20.710938 22.019531 19.925781 22.863281 19.160156 C 23.707031 18.394531 24.570312 17.652344 25.449219 16.929688 C 26.328125 16.207031 27.226562 15.503906 28.144531 14.824219 C 29.058594 14.148438 29.988281 13.492188 30.9375 12.859375 C 31.882812 12.226562 32.84375 11.617188 33.820312 11.03125 C 34.800781 10.445312 35.789062 9.882812 36.792969 9.347656 C 37.800781 8.808594 38.816406 8.296875 39.847656 7.8125 C 40.875 7.324219 41.917969 6.863281 42.96875 6.425781 C 44.023438 5.992188 45.085938 5.582031 46.15625 5.195312 C 47.230469 4.8125 48.3125 4.457031 49.402344 4.125 C 50.492188 3.792969 51.589844 3.492188 52.695312 3.214844 C 53.800781 2.9375 54.910156 2.6875 56.027344 2.464844 C 57.144531 2.242188 58.265625 2.046875 59.394531 1.882812 C 60.519531 1.714844 61.652344 1.574219 62.785156 1.464844 C 63.917969 1.351562 65.054688 1.269531 66.191406 1.210938 C 67.328125 1.15625 68.46875 1.128906 69.605469 1.128906 C 70.746094 1.128906 71.882812 1.15625 73.023438 1.210938 C 74.160156 1.269531 75.296875 1.351562 76.429688 1.464844 C 77.5625 1.574219 78.695312 1.714844 79.820312 1.882812 C 80.945312 2.046875 82.070312 2.242188 83.1875 2.464844 C 84.304688 2.6875 85.414062 2.9375 86.519531 3.214844 C 87.625 3.492188 88.722656 3.792969 89.8125 4.125 C 90.902344 4.457031 91.984375 4.8125 93.058594 5.195312 C 94.128906 5.582031 95.191406 5.992188 96.246094 6.425781 C 97.296875 6.863281 98.335938 7.324219 99.367188 7.8125 C 100.398438 8.296875 101.414062 8.808594 102.417969 9.347656 C 103.425781 9.882812 104.414062 10.445312 105.390625 11.03125 C 106.367188 11.617188 107.332031 12.226562 108.277344 12.859375 C 109.226562 13.492188 110.15625 14.148438 111.070312 14.824219 C 111.988281 15.503906 112.882812 16.207031 113.765625 16.929688 C 114.644531 17.652344 115.507812 18.394531 116.351562 19.160156 C 117.195312 19.925781 118.019531 20.710938 118.824219 21.515625 C 119.632812 22.320312 120.417969 23.144531 121.183594 23.988281 C 121.945312 24.832031 122.691406 25.695312 123.414062 26.578125 C 124.136719 27.457031 124.835938 28.355469 125.515625 29.269531 C 126.195312 30.183594 126.851562 31.117188 127.484375 32.0625 C 128.117188 33.011719 128.726562 33.972656 129.308594 34.949219 C 129.894531 35.925781 130.457031 36.917969 130.996094 37.921875 C 131.53125 38.925781 132.042969 39.945312 132.53125 40.972656 C 133.015625 42.003906 133.480469 43.042969 133.914062 44.097656 C 134.351562 45.148438 134.761719 46.210938 135.144531 47.285156 C 135.527344 48.355469 135.886719 49.4375 136.214844 50.527344 C 136.546875 51.617188 136.851562 52.714844 137.128906 53.820312 C 137.402344 54.925781 137.652344 56.039062 137.875 57.15625 C 138.097656 58.273438 138.292969 59.394531 138.460938 60.519531 C 138.628906 61.648438 138.765625 62.777344 138.878906 63.910156 C 138.988281 65.046875 139.074219 66.179688 139.128906 67.320312 C 139.183594 68.457031 139.214844 69.59375 139.214844 70.734375 C 139.214844 71.875 139.183594 73.011719 139.128906 74.148438 C 139.074219 75.289062 138.988281 76.421875 138.878906 77.558594 C 138.765625 78.691406 138.628906 79.820312 138.460938 80.949219 C 138.292969 82.074219 138.097656 83.195312 137.875 84.3125 C 137.652344 85.429688 137.402344 86.542969 137.128906 87.648438 C 136.851562 88.753906 136.546875 89.851562 136.214844 90.941406 C 135.886719 92.03125 135.527344 93.109375 135.144531 94.183594 C 134.761719 95.257812 134.351562 96.320312 133.914062 97.371094 C 133.480469 98.425781 133.015625 99.464844 132.53125 100.496094 C 132.042969 101.523438 131.53125 102.542969 130.996094 103.546875 C 130.457031 104.550781 129.894531 105.542969 129.308594 106.519531 C 128.726562 107.496094 128.117188 108.457031 127.484375 109.40625 C 126.851562 110.351562 126.195312 111.285156 125.515625 112.199219 C 124.835938 113.113281 124.136719 114.011719 123.414062 114.890625 C 122.691406 115.773438 121.945312 116.636719 121.183594 117.480469 C 120.417969 118.324219 119.632812 119.148438 118.824219 119.953125 C 118.019531 120.757812 117.195312 121.542969 116.351562 122.308594 C 115.507812 123.074219 114.644531 123.816406 113.765625 124.539062 C 112.882812 125.261719 111.988281 125.964844 111.070312 126.640625 C 110.15625 127.320312 109.226562 127.976562 108.277344 128.609375 C 107.332031 129.242188 106.367188 129.851562 105.390625 130.4375 C 104.414062 131.023438 103.425781 131.585938 102.417969 132.121094 C 101.414062 132.660156 100.398438 133.171875 99.367188 133.65625 C 98.335938 134.144531 97.296875 134.605469 96.246094 135.042969 C 95.191406 135.476562 94.128906 135.886719 93.058594 136.273438 C 91.984375 136.65625 90.902344 137.011719 89.8125 137.34375 C 88.722656 137.675781 87.625 137.976562 86.519531 138.253906 C 85.414062 138.53125 84.304688 138.78125 83.1875 139.003906 C 82.070312 139.226562 80.945312 139.421875 79.820312 139.585938 C 78.695312 139.753906 77.5625 139.894531 76.429688 140.003906 C 75.296875 140.117188 74.160156 140.199219 73.023438 140.257812 C 71.882812 140.3125 70.746094 140.339844 69.605469 140.339844 Z M 69.605469 140.339844 " fill-opacity="1" fill-rule="nonzero"/></g><g clip-path="url(#7f21e02586)"><path fill="#868686" d="M 69.605469 349.160156 C 68.46875 349.160156 67.328125 349.132812 66.191406 349.074219 C 65.054688 349.019531 63.917969 348.9375 62.785156 348.824219 C 61.652344 348.710938 60.519531 348.574219 59.394531 348.40625 C 58.265625 348.238281 57.144531 348.042969 56.027344 347.820312 C 54.910156 347.601562 53.800781 347.351562 52.695312 347.074219 C 51.589844 346.796875 50.492188 346.492188 49.402344 346.164062 C 48.3125 345.832031 47.230469 345.472656 46.15625 345.089844 C 45.085938 344.707031 44.023438 344.296875 42.96875 343.859375 C 41.917969 343.425781 40.875 342.964844 39.847656 342.476562 C 38.816406 341.988281 37.800781 341.476562 36.792969 340.941406 C 35.789062 340.402344 34.800781 339.84375 33.820312 339.257812 C 32.84375 338.671875 31.882812 338.0625 30.9375 337.429688 C 29.988281 336.796875 29.058594 336.140625 28.144531 335.460938 C 27.226562 334.78125 26.328125 334.082031 25.449219 333.359375 C 24.570312 332.636719 23.707031 331.894531 22.863281 331.128906 C 22.019531 330.363281 21.195312 329.578125 20.386719 328.773438 C 19.582031 327.964844 18.796875 327.140625 18.03125 326.296875 C 17.265625 325.453125 16.523438 324.589844 15.800781 323.710938 C 15.078125 322.832031 14.378906 321.933594 13.699219 321.015625 C 13.019531 320.101562 12.363281 319.171875 11.730469 318.222656 C 11.097656 317.277344 10.488281 316.316406 9.902344 315.335938 C 9.316406 314.359375 8.757812 313.371094 8.21875 312.367188 C 7.683594 311.359375 7.171875 310.34375 6.683594 309.3125 C 6.195312 308.285156 5.734375 307.242188 5.300781 306.191406 C 4.863281 305.136719 4.453125 304.074219 4.070312 303.003906 C 3.6875 301.929688 3.328125 300.847656 2.996094 299.757812 C 2.667969 298.667969 2.363281 297.570312 2.085938 296.464844 C 1.808594 295.359375 1.558594 294.25 1.339844 293.132812 C 1.117188 292.015625 0.921875 290.894531 0.753906 289.765625 C 0.585938 288.640625 0.449219 287.507812 0.335938 286.375 C 0.222656 285.242188 0.140625 284.105469 0.0859375 282.96875 C 0.0273438 281.832031 0 280.691406 0 279.554688 C 0 278.414062 0.0273438 277.277344 0.0859375 276.136719 C 0.140625 275 0.222656 273.863281 0.335938 272.730469 C 0.449219 271.597656 0.585938 270.464844 0.753906 269.339844 C 0.921875 268.214844 1.117188 267.089844 1.339844 265.972656 C 1.558594 264.855469 1.808594 263.746094 2.085938 262.640625 C 2.363281 261.535156 2.667969 260.4375 2.996094 259.347656 C 3.328125 258.257812 3.6875 257.175781 4.070312 256.101562 C 4.453125 255.03125 4.863281 253.96875 5.300781 252.914062 C 5.734375 251.863281 6.195312 250.824219 6.683594 249.792969 C 7.171875 248.761719 7.683594 247.746094 8.21875 246.742188 C 8.757812 245.734375 9.316406 244.746094 9.902344 243.769531 C 10.488281 242.792969 11.097656 241.828125 11.730469 240.882812 C 12.363281 239.933594 13.019531 239.003906 13.699219 238.089844 C 14.378906 237.171875 15.078125 236.277344 15.800781 235.394531 C 16.523438 234.515625 17.265625 233.652344 18.03125 232.808594 C 18.796875 231.964844 19.582031 231.140625 20.386719 230.335938 C 21.195312 229.527344 22.019531 228.742188 22.863281 227.976562 C 23.707031 227.214844 24.570312 226.46875 25.449219 225.746094 C 26.328125 225.023438 27.226562 224.324219 28.144531 223.644531 C 29.058594 222.964844 29.988281 222.308594 30.9375 221.675781 C 31.882812 221.042969 32.84375 220.433594 33.820312 219.851562 C 34.800781 219.265625 35.789062 218.703125 36.792969 218.164062 C 37.800781 217.628906 38.816406 217.117188 39.847656 216.628906 C 40.875 216.144531 41.917969 215.679688 42.96875 215.246094 C 44.023438 214.808594 45.085938 214.398438 46.15625 214.015625 C 47.230469 213.632812 48.3125 213.273438 49.402344 212.945312 C 50.492188 212.613281 51.589844 212.308594 52.695312 212.03125 C 53.800781 211.757812 54.910156 211.507812 56.027344 211.285156 C 57.144531 211.0625 58.265625 210.867188 59.394531 210.699219 C 60.519531 210.53125 61.652344 210.394531 62.785156 210.28125 C 63.917969 210.171875 65.054688 210.085938 66.191406 210.03125 C 67.328125 209.976562 68.46875 209.945312 69.605469 209.945312 C 70.746094 209.945312 71.882812 209.976562 73.023438 210.03125 C 74.160156 210.085938 75.296875 210.171875 76.429688 210.28125 C 77.5625 210.394531 78.695312 210.53125 79.820312 210.699219 C 80.945312 210.867188 82.070312 211.0625 83.1875 211.285156 C 84.304688 211.507812 85.414062 211.757812 86.519531 212.03125 C 87.625 212.308594 88.722656 212.613281 89.8125 212.945312 C 90.902344 213.273438 91.984375 213.632812 93.058594 214.015625 C 94.128906 214.398438 95.191406 214.808594 96.246094 215.246094 C 97.296875 215.679688 98.335938 216.144531 99.367188 216.628906 C 100.398438 217.117188 101.414062 217.628906 102.417969 218.164062 C 103.425781 218.703125 104.414062 219.265625 105.390625 219.851562 C 106.367188 220.433594 107.332031 221.042969 108.277344 221.675781 C 109.226562 222.308594 110.15625 222.964844 111.070312 223.644531 C 111.988281 224.324219 112.882812 225.023438 113.765625 225.746094 C 114.644531 226.46875 115.507812 227.214844 116.351562 227.976562 C 117.195312 228.742188 118.019531 229.527344 118.824219 230.335938 C 119.632812 231.140625 120.417969 231.964844 121.183594 232.808594 C 121.945312 233.652344 122.691406 234.515625 123.414062 235.394531 C 124.136719 236.277344 124.835938 237.171875 125.515625 238.089844 C 126.195312 239.003906 126.851562 239.933594 127.484375 240.882812 C 128.117188 241.828125 128.726562 242.792969 129.308594 243.769531 C 129.894531 244.746094 130.457031 245.734375 130.996094 246.742188 C 131.53125 247.746094 132.042969 248.761719 132.53125 249.792969 C 133.015625 250.824219 133.480469 251.863281 133.914062 252.914062 C 134.351562 253.96875 134.761719 255.03125 135.144531 256.101562 C 135.527344 257.175781 135.886719 258.257812 136.214844 259.347656 C 136.546875 260.4375 136.851562 261.535156 137.128906 262.640625 C 137.402344 263.746094 137.652344 264.855469 137.875 265.972656 C 138.097656 267.089844 138.292969 268.214844 138.460938 269.339844 C 138.628906 270.464844 138.765625 271.597656 138.878906 272.730469 C 138.988281 273.863281 139.074219 275 139.128906 276.136719 C 139.183594 277.277344 139.214844 278.414062 139.214844 279.554688 C 139.214844 280.691406 139.183594 281.832031 139.128906 282.96875 C 139.074219 284.105469 138.988281 285.242188 138.878906 286.375 C 138.765625 287.507812 138.628906 288.640625 138.460938 289.765625 C 138.292969 290.894531 138.097656 292.015625 137.875 293.132812 C 137.652344 294.25 137.402344 295.359375 137.128906 296.464844 C 136.851562 297.570312 136.546875 298.667969 136.214844 299.757812 C 135.886719 300.847656 135.527344 301.929688 135.144531 303.003906 C 134.761719 304.074219 134.351562 305.136719 133.914062 306.191406 C 133.480469 307.242188 133.015625 308.285156 132.53125 309.3125 C 132.042969 310.34375 131.53125 311.359375 130.996094 312.367188 C 130.457031 313.371094 129.894531 314.359375 129.308594 315.335938 C 128.726562 316.316406 128.117188 317.277344 127.484375 318.222656 C 126.851562 319.171875 126.195312 320.101562 125.515625 321.015625 C 124.835938 321.933594 124.136719 322.832031 123.414062 323.710938 C 122.691406 324.589844 121.945312 325.453125 121.183594 326.296875 C 120.417969 327.140625 119.632812 327.964844 118.824219 328.773438 C 118.019531 329.578125 117.195312 330.363281 116.351562 331.128906 C 115.507812 331.894531 114.644531 332.636719 113.765625 333.359375 C 112.882812 334.082031 111.988281 334.78125 111.070312 335.460938 C 110.15625 336.140625 109.226562 336.796875 108.277344 337.429688 C 107.332031 338.0625 106.367188 338.671875 105.390625 339.257812 C 104.414062 339.84375 103.425781 340.402344 102.417969 340.941406 C 101.414062 341.476562 100.398438 341.988281 99.367188 342.476562 C 98.335938 342.964844 97.296875 343.425781 96.246094 343.859375 C 95.191406 344.296875 94.128906 344.707031 93.058594 345.089844 C 91.984375 345.472656 90.902344 345.832031 89.8125 346.164062 C 88.722656 346.492188 87.625 346.796875 86.519531 347.074219 C 85.414062 347.351562 84.304688 347.601562 83.1875 347.820312 C 82.070312 348.042969 80.945312 348.238281 79.820312 348.40625 C 78.695312 348.574219 77.5625 348.710938 76.429688 348.824219 C 75.296875 348.9375 74.160156 349.019531 73.023438 349.074219 C 71.882812 349.132812 70.746094 349.160156 69.605469 349.160156 Z M 69.605469 349.160156 " fill-opacity="1" fill-rule="nonzero"/></g><g clip-path="url(#edb4f6e061)"><path fill="#868686" d="M 69.605469 557.976562 C 68.46875 557.976562 67.328125 557.949219 66.191406 557.894531 C 65.054688 557.839844 63.917969 557.753906 62.785156 557.644531 C 61.652344 557.53125 60.519531 557.390625 59.394531 557.226562 C 58.265625 557.058594 57.144531 556.863281 56.027344 556.640625 C 54.910156 556.417969 53.800781 556.167969 52.695312 555.890625 C 51.589844 555.617188 50.492188 555.3125 49.402344 554.980469 C 48.3125 554.648438 47.230469 554.292969 46.15625 553.910156 C 45.085938 553.527344 44.023438 553.117188 42.96875 552.679688 C 41.917969 552.242188 40.875 551.78125 39.847656 551.296875 C 38.816406 550.808594 37.800781 550.296875 36.792969 549.757812 C 35.789062 549.222656 34.800781 548.660156 33.820312 548.074219 C 32.84375 547.488281 31.882812 546.878906 30.9375 546.246094 C 29.988281 545.613281 29.058594 544.957031 28.144531 544.28125 C 27.226562 543.601562 26.328125 542.902344 25.449219 542.179688 C 24.570312 541.457031 23.707031 540.710938 22.863281 539.945312 C 22.019531 539.183594 21.195312 538.394531 20.386719 537.589844 C 19.582031 536.785156 18.796875 535.960938 18.03125 535.117188 C 17.265625 534.273438 16.523438 533.410156 15.800781 532.53125 C 15.078125 531.648438 14.378906 530.75 13.699219 529.835938 C 13.019531 528.921875 12.363281 527.992188 11.730469 527.042969 C 11.097656 526.097656 10.488281 525.132812 9.902344 524.15625 C 9.316406 523.179688 8.757812 522.1875 8.21875 521.183594 C 7.683594 520.179688 7.171875 519.164062 6.683594 518.132812 C 6.195312 517.101562 5.734375 516.0625 5.300781 515.007812 C 4.863281 513.957031 4.453125 512.894531 4.070312 511.820312 C 3.6875 510.75 3.328125 509.667969 2.996094 508.578125 C 2.667969 507.488281 2.363281 506.390625 2.085938 505.285156 C 1.808594 504.179688 1.558594 503.070312 1.339844 501.953125 C 1.117188 500.835938 0.921875 499.710938 0.753906 498.585938 C 0.585938 497.457031 0.449219 496.328125 0.335938 495.195312 C 0.222656 494.0625 0.140625 492.925781 0.0859375 491.789062 C 0.0273438 490.648438 0 489.511719 0 488.371094 C 0 487.234375 0.0273438 486.09375 0.0859375 484.957031 C 0.140625 483.820312 0.222656 482.683594 0.335938 481.550781 C 0.449219 480.414062 0.585938 479.285156 0.753906 478.160156 C 0.921875 477.03125 1.117188 475.910156 1.339844 474.792969 C 1.558594 473.675781 1.808594 472.5625 2.085938 471.460938 C 2.363281 470.355469 2.667969 469.257812 2.996094 468.167969 C 3.328125 467.078125 3.6875 465.996094 4.070312 464.921875 C 4.453125 463.851562 4.863281 462.789062 5.300781 461.734375 C 5.734375 460.683594 6.195312 459.640625 6.683594 458.613281 C 7.171875 457.582031 7.683594 456.5625 8.21875 455.558594 C 8.757812 454.554688 9.316406 453.5625 9.902344 452.585938 C 10.488281 451.609375 11.097656 450.648438 11.730469 449.699219 C 12.363281 448.753906 13.019531 447.824219 13.699219 446.90625 C 14.378906 445.992188 15.078125 445.09375 15.800781 444.214844 C 16.523438 443.332031 17.265625 442.472656 18.03125 441.628906 C 18.796875 440.78125 19.582031 439.957031 20.386719 439.152344 C 21.195312 438.347656 22.019531 437.5625 22.863281 436.796875 C 23.707031 436.03125 24.570312 435.289062 25.449219 434.566406 C 26.328125 433.84375 27.226562 433.140625 28.144531 432.464844 C 29.058594 431.785156 29.988281 431.128906 30.9375 430.496094 C 31.882812 429.863281 32.84375 429.253906 33.820312 428.667969 C 34.800781 428.082031 35.789062 427.523438 36.792969 426.984375 C 37.800781 426.449219 38.816406 425.9375 39.847656 425.449219 C 40.875 424.960938 41.917969 424.5 42.96875 424.0625 C 44.023438 423.628906 45.085938 423.21875 46.15625 422.835938 C 47.230469 422.449219 48.3125 422.09375 49.402344 421.761719 C 50.492188 421.433594 51.589844 421.128906 52.695312 420.851562 C 53.800781 420.574219 54.910156 420.324219 56.027344 420.101562 C 57.144531 419.878906 58.265625 419.6875 59.394531 419.519531 C 60.519531 419.351562 61.652344 419.210938 62.785156 419.101562 C 63.917969 418.988281 65.054688 418.90625 66.191406 418.847656 C 67.328125 418.792969 68.46875 418.765625 69.605469 418.765625 C 70.746094 418.765625 71.882812 418.792969 73.023438 418.847656 C 74.160156 418.90625 75.296875 418.988281 76.429688 419.101562 C 77.5625 419.210938 78.695312 419.351562 79.820312 419.519531 C 80.945312 419.6875 82.070312 419.878906 83.1875 420.101562 C 84.304688 420.324219 85.414062 420.574219 86.519531 420.851562 C 87.625 421.128906 88.722656 421.433594 89.8125 421.761719 C 90.902344 422.09375 91.984375 422.449219 93.058594 422.835938 C 94.128906 423.21875 95.191406 423.628906 96.246094 424.0625 C 97.296875 424.5 98.335938 424.960938 99.367188 425.449219 C 100.398438 425.9375 101.414062 426.449219 102.417969 426.984375 C 103.425781 427.523438 104.414062 428.082031 105.390625 428.667969 C 106.367188 429.253906 107.332031 429.863281 108.277344 430.496094 C 109.226562 431.128906 110.15625 431.785156 111.070312 432.464844 C 111.988281 433.140625 112.882812 433.84375 113.765625 434.566406 C 114.644531 435.289062 115.507812 436.03125 116.351562 436.796875 C 117.195312 437.5625 118.019531 438.347656 118.824219 439.152344 C 119.632812 439.957031 120.417969 440.78125 121.183594 441.628906 C 121.945312 442.472656 122.691406 443.332031 123.414062 444.214844 C 124.136719 445.09375 124.835938 445.992188 125.515625 446.90625 C 126.195312 447.824219 126.851562 448.753906 127.484375 449.699219 C 128.117188 450.648438 128.726562 451.609375 129.308594 452.585938 C 129.894531 453.5625 130.457031 454.554688 130.996094 455.558594 C 131.53125 456.5625 132.042969 457.582031 132.53125 458.613281 C 133.015625 459.640625 133.480469 460.683594 133.914062 461.734375 C 134.351562 462.789062 134.761719 463.851562 135.144531 464.921875 C 135.527344 465.996094 135.886719 467.078125 136.214844 468.167969 C 136.546875 469.257812 136.851562 470.355469 137.128906 471.460938 C 137.402344 472.5625 137.652344 473.675781 137.875 474.792969 C 138.097656 475.910156 138.292969 477.03125 138.460938 478.160156 C 138.628906 479.285156 138.765625 480.414062 138.878906 481.550781 C 138.988281 482.683594 139.074219 483.820312 139.128906 484.957031 C 139.183594 486.09375 139.214844 487.234375 139.214844 488.371094 C 139.214844 489.511719 139.183594 490.648438 139.128906 491.789062 C 139.074219 492.925781 138.988281 494.0625 138.878906 495.195312 C 138.765625 496.328125 138.628906 497.457031 138.460938 498.585938 C 138.292969 499.710938 138.097656 500.835938 137.875 501.953125 C 137.652344 503.070312 137.402344 504.179688 137.128906 505.285156 C 136.851562 506.390625 136.546875 507.488281 136.214844 508.578125 C 135.886719 509.667969 135.527344 510.75 135.144531 511.820312 C 134.761719 512.894531 134.351562 513.957031 133.914062 515.007812 C 133.480469 516.0625 133.015625 517.101562 132.53125 518.132812 C 132.042969 519.164062 131.53125 520.179688 130.996094 521.183594 C 130.457031 522.1875 129.894531 523.179688 129.308594 524.15625 C 128.726562 525.132812 128.117188 526.097656 127.484375 527.042969 C 126.851562 527.992188 126.195312 528.921875 125.515625 529.835938 C 124.835938 530.75 124.136719 531.648438 123.414062 532.53125 C 122.691406 533.410156 121.945312 534.273438 121.183594 535.117188 C 120.417969 535.960938 119.632812 536.785156 118.824219 537.589844 C 118.019531 538.394531 117.195312 539.183594 116.351562 539.945312 C 115.507812 540.710938 114.644531 541.457031 113.765625 542.179688 C 112.882812 542.902344 111.988281 543.601562 111.070312 544.28125 C 110.15625 544.957031 109.226562 545.613281 108.277344 546.246094 C 107.332031 546.878906 106.367188 547.488281 105.390625 548.074219 C 104.414062 548.660156 103.425781 549.222656 102.417969 549.757812 C 101.414062 550.296875 100.398438 550.808594 99.367188 551.296875 C 98.335938 551.78125 97.296875 552.242188 96.246094 552.679688 C 95.191406 553.117188 94.128906 553.527344 93.058594 553.910156 C 91.984375 554.292969 90.902344 554.648438 89.8125 554.980469 C 88.722656 555.3125 87.625 555.617188 86.519531 555.890625 C 85.414062 556.167969 84.304688 556.417969 83.1875 556.640625 C 82.070312 556.863281 80.945312 557.058594 79.820312 557.226562 C 78.695312 557.390625 77.5625 557.53125 76.429688 557.644531 C 75.296875 557.753906 74.160156 557.839844 73.023438 557.894531 C 71.882812 557.949219 70.746094 557.976562 69.605469 557.976562 Z M 69.605469 557.976562 " fill-opacity="1" fill-rule="nonzero"/></g></svg>