<svg xmlns="http://www.w3.org/2000/svg" xmlns:xlink="http://www.w3.org/1999/xlink" width="360" zoomAndPan="magnify" viewBox="0 0 270 269.999989" height="360" preserveAspectRatio="xMidYMid meet" version="1.0"><defs><clipPath id="e1c04c5cd7"><path d="M 70.230469 54.464844 L 187 54.464844 L 187 215.714844 L 70.230469 215.714844 Z M 70.230469 54.464844 " clip-rule="nonzero"/></clipPath><clipPath id="1e961c054d"><path d="M 202 77 L 220.980469 77 L 220.980469 96 L 202 96 Z M 202 77 " clip-rule="nonzero"/></clipPath></defs><path fill="#ffffff" d="M 91.277344 115.210938 L 167.5625 115.210938 L 167.5625 120.695312 L 91.277344 120.695312 Z M 91.277344 115.210938 " fill-opacity="1" fill-rule="nonzero"/><g clip-path="url(#e1c04c5cd7)"><path fill="#ffffff" d="M 177.484375 153.792969 L 177.484375 206.644531 L 79.785156 206.644531 L 79.785156 77.207031 L 90.230469 77.207031 L 90.230469 81.632812 C 90.230469 84.804688 92.804688 87.378906 95.976562 87.378906 C 99.152344 87.378906 101.722656 84.804688 101.722656 81.632812 L 101.722656 77.207031 L 122.886719 77.207031 L 122.886719 81.632812 C 122.886719 84.804688 125.460938 87.378906 128.632812 87.378906 C 131.808594 87.378906 134.378906 84.804688 134.378906 81.632812 L 134.378906 77.207031 L 156.980469 77.207031 L 156.980469 81.632812 C 156.980469 84.804688 159.554688 87.378906 162.726562 87.378906 C 165.902344 87.378906 168.472656 84.804688 168.472656 81.632812 L 168.472656 77.207031 L 177.484375 77.207031 L 177.484375 109.066406 L 186.367188 97.390625 L 186.367188 68.324219 L 168.472656 68.324219 L 168.472656 60.210938 C 168.472656 57.039062 165.902344 54.464844 162.730469 54.464844 C 159.554688 54.464844 156.984375 57.039062 156.984375 60.210938 L 156.984375 68.324219 L 134.378906 68.324219 L 134.378906 60.210938 C 134.378906 57.039062 131.808594 54.464844 128.632812 54.464844 C 125.460938 54.464844 122.886719 57.039062 122.886719 60.210938 L 122.886719 68.324219 L 101.722656 68.324219 L 101.722656 60.210938 C 101.722656 57.039062 99.152344 54.464844 95.976562 54.464844 C 92.804688 54.464844 90.230469 57.039062 90.230469 60.210938 L 90.230469 68.324219 L 70.898438 68.324219 L 70.898438 215.527344 L 186.367188 215.527344 L 186.367188 142.117188 Z M 177.484375 153.792969 " fill-opacity="1" fill-rule="nonzero"/></g><path fill="#ffffff" d="M 91.277344 130.230469 L 145.355469 130.230469 L 145.355469 135.71875 L 91.277344 135.71875 Z M 91.277344 130.230469 " fill-opacity="1" fill-rule="nonzero"/><path fill="#ffffff" d="M 91.277344 100.710938 L 167.5625 100.710938 L 167.5625 106.199219 L 91.277344 106.199219 Z M 91.277344 100.710938 " fill-opacity="1" fill-rule="nonzero"/><path fill="#ffffff" d="M 143.703125 186.585938 L 133.339844 178.699219 L 131.085938 192.417969 Z M 143.703125 186.585938 " fill-opacity="1" fill-rule="nonzero"/><path fill="#ffffff" d="M 210.414062 100.613281 L 148.140625 182.460938 L 136.136719 173.328125 L 198.410156 91.480469 Z M 210.414062 100.613281 " fill-opacity="1" fill-rule="nonzero"/><g clip-path="url(#1e961c054d)"><path fill="#ffffff" d="M 217.253906 79.148438 C 214.082031 76.726562 209.457031 76.941406 207.441406 79.589844 L 202.121094 86.589844 L 214.128906 95.71875 L 219.453125 88.722656 C 221.554688 85.964844 220.566406 81.667969 217.253906 79.148438 Z M 217.253906 79.148438 " fill-opacity="1" fill-rule="nonzero"/></g></svg>