<svg xmlns="http://www.w3.org/2000/svg" xmlns:xlink="http://www.w3.org/1999/xlink" width="320" zoomAndPan="magnify" viewBox="0 0 240 239.999995" height="320" preserveAspectRatio="xMidYMid meet" version="1.0"><path fill="#868686" d="M 113.238281 202.316406 C 113.316406 202.410156 113.441406 202.445312 113.523438 202.535156 C 114.109375 203.144531 114.765625 203.648438 115.5 204.058594 C 115.765625 204.261719 116.042969 204.449219 116.328125 204.617188 C 117.433594 205.132812 118.59375 205.394531 119.8125 205.394531 C 121.03125 205.394531 122.191406 205.132812 123.296875 204.617188 C 123.582031 204.449219 123.859375 204.261719 124.125 204.058594 C 124.859375 203.648438 125.515625 203.144531 126.101562 202.535156 C 126.1875 202.445312 126.308594 202.410156 126.386719 202.316406 L 169.175781 150.96875 C 169.535156 150.539062 169.851562 150.074219 170.121094 149.582031 C 170.390625 149.085938 170.609375 148.574219 170.777344 148.035156 C 170.945312 147.5 171.058594 146.949219 171.117188 146.390625 C 171.179688 145.832031 171.183594 145.273438 171.132812 144.714844 C 171.082031 144.152344 170.976562 143.601562 170.820312 143.0625 C 170.660156 142.523438 170.449219 142.003906 170.1875 141.507812 C 169.925781 141.007812 169.621094 140.542969 169.265625 140.105469 C 168.914062 139.667969 168.519531 139.269531 168.089844 138.90625 C 167.65625 138.546875 167.195312 138.234375 166.699219 137.964844 C 166.207031 137.695312 165.691406 137.476562 165.15625 137.308594 C 164.617188 137.140625 164.070312 137.027344 163.511719 136.96875 C 162.953125 136.910156 162.390625 136.90625 161.832031 136.957031 C 161.273438 137.007812 160.722656 137.113281 160.183594 137.273438 C 159.644531 137.429688 159.125 137.640625 158.628906 137.902344 C 158.128906 138.164062 157.660156 138.472656 157.226562 138.824219 C 156.789062 139.179688 156.390625 139.570312 156.027344 140.003906 L 128.371094 173.191406 L 128.371094 8.558594 C 128.371094 7.996094 128.316406 7.441406 128.207031 6.886719 C 128.097656 6.335938 127.933594 5.800781 127.71875 5.28125 C 127.503906 4.765625 127.242188 4.269531 126.929688 3.804688 C 126.617188 3.335938 126.261719 2.902344 125.863281 2.507812 C 125.464844 2.109375 125.035156 1.753906 124.566406 1.441406 C 124.101562 1.128906 123.605469 0.867188 123.085938 0.652344 C 122.566406 0.4375 122.03125 0.273438 121.480469 0.164062 C 120.929688 0.0546875 120.375 0 119.8125 0 C 119.25 0 118.695312 0.0546875 118.144531 0.164062 C 117.589844 0.273438 117.054688 0.4375 116.539062 0.652344 C 116.019531 0.867188 115.523438 1.128906 115.058594 1.441406 C 114.589844 1.753906 114.160156 2.109375 113.761719 2.507812 C 113.363281 2.902344 113.007812 3.335938 112.695312 3.804688 C 112.382812 4.269531 112.121094 4.765625 111.90625 5.28125 C 111.691406 5.800781 111.527344 6.335938 111.417969 6.886719 C 111.308594 7.441406 111.253906 7.996094 111.253906 8.558594 L 111.253906 173.191406 L 83.597656 140.003906 C 83.234375 139.570312 82.835938 139.179688 82.398438 138.824219 C 81.964844 138.472656 81.496094 138.164062 80.996094 137.902344 C 80.5 137.640625 79.980469 137.429688 79.441406 137.269531 C 78.902344 137.109375 78.351562 137.003906 77.792969 136.953125 C 77.230469 136.902344 76.671875 136.90625 76.113281 136.96875 C 75.554688 137.027344 75.003906 137.140625 74.46875 137.308594 C 73.933594 137.472656 73.417969 137.691406 72.921875 137.960938 C 72.429688 138.230469 71.964844 138.546875 71.535156 138.90625 C 71.101562 139.265625 70.707031 139.664062 70.355469 140.101562 C 70.003906 140.539062 69.695312 141.007812 69.433594 141.507812 C 69.171875 142.003906 68.964844 142.523438 68.804688 143.0625 C 68.644531 143.601562 68.539062 144.152344 68.492188 144.710938 C 68.441406 145.273438 68.445312 145.832031 68.503906 146.390625 C 68.566406 146.949219 68.679688 147.5 68.847656 148.035156 C 69.015625 148.574219 69.234375 149.085938 69.503906 149.582031 C 69.773438 150.074219 70.089844 150.539062 70.449219 150.96875 Z M 113.238281 202.316406 " fill-opacity="1" fill-rule="nonzero"/><path fill="#868686" d="M 231.066406 154.042969 C 230.503906 154.042969 229.949219 154.097656 229.398438 154.210938 C 228.847656 154.320312 228.3125 154.480469 227.792969 154.695312 C 227.273438 154.910156 226.78125 155.175781 226.3125 155.488281 C 225.84375 155.800781 225.414062 156.152344 225.015625 156.550781 C 224.617188 156.949219 224.261719 157.378906 223.953125 157.847656 C 223.640625 158.316406 223.375 158.808594 223.160156 159.328125 C 222.945312 159.847656 222.78125 160.382812 222.671875 160.933594 C 222.5625 161.484375 222.507812 162.039062 222.507812 162.601562 L 222.507812 213.949219 C 222.507812 214.511719 222.453125 215.070312 222.34375 215.621094 C 222.234375 216.171875 222.070312 216.707031 221.855469 217.226562 C 221.640625 217.742188 221.375 218.238281 221.0625 218.703125 C 220.753906 219.171875 220.398438 219.601562 220 220 C 219.601562 220.398438 219.171875 220.753906 218.703125 221.0625 C 218.238281 221.375 217.742188 221.640625 217.226562 221.855469 C 216.707031 222.070312 216.171875 222.234375 215.621094 222.34375 C 215.070312 222.453125 214.511719 222.507812 213.949219 222.507812 L 25.675781 222.507812 C 25.113281 222.507812 24.554688 222.453125 24.003906 222.34375 C 23.453125 222.234375 22.917969 222.070312 22.398438 221.855469 C 21.882812 221.640625 21.386719 221.375 20.921875 221.0625 C 20.453125 220.753906 20.023438 220.398438 19.625 220 C 19.226562 219.601562 18.871094 219.171875 18.5625 218.703125 C 18.25 218.238281 17.984375 217.742188 17.769531 217.226562 C 17.554688 216.707031 17.390625 216.171875 17.28125 215.621094 C 17.171875 215.070312 17.117188 214.511719 17.117188 213.949219 L 17.117188 162.601562 C 17.117188 162.039062 17.0625 161.484375 16.953125 160.933594 C 16.84375 160.382812 16.679688 159.847656 16.464844 159.328125 C 16.25 158.808594 15.984375 158.316406 15.671875 157.847656 C 15.363281 157.378906 15.007812 156.949219 14.609375 156.550781 C 14.210938 156.152344 13.78125 155.800781 13.3125 155.488281 C 12.84375 155.175781 12.351562 154.910156 11.832031 154.695312 C 11.3125 154.480469 10.777344 154.320312 10.226562 154.210938 C 9.675781 154.097656 9.121094 154.042969 8.558594 154.042969 C 7.996094 154.042969 7.441406 154.097656 6.886719 154.210938 C 6.335938 154.320312 5.800781 154.480469 5.28125 154.695312 C 4.765625 154.910156 4.269531 155.175781 3.804688 155.488281 C 3.335938 155.800781 2.902344 156.152344 2.507812 156.550781 C 2.109375 156.949219 1.753906 157.378906 1.441406 157.847656 C 1.128906 158.316406 0.867188 158.808594 0.652344 159.328125 C 0.4375 159.847656 0.273438 160.382812 0.164062 160.933594 C 0.0546875 161.484375 0 162.039062 0 162.601562 L 0 213.949219 C 0 214.792969 0.0429688 215.628906 0.125 216.464844 C 0.210938 217.304688 0.332031 218.132812 0.496094 218.957031 C 0.664062 219.78125 0.867188 220.597656 1.113281 221.402344 C 1.355469 222.203125 1.640625 222.996094 1.960938 223.773438 C 2.285156 224.546875 2.644531 225.308594 3.039062 226.046875 C 3.4375 226.789062 3.867188 227.507812 4.335938 228.207031 C 4.804688 228.90625 5.304688 229.582031 5.835938 230.230469 C 6.371094 230.878906 6.933594 231.503906 7.527344 232.097656 C 8.121094 232.691406 8.746094 233.253906 9.394531 233.789062 C 10.042969 234.320312 10.71875 234.820312 11.417969 235.289062 C 12.117188 235.757812 12.835938 236.1875 13.578125 236.585938 C 14.316406 236.980469 15.078125 237.339844 15.851562 237.664062 C 16.628906 237.984375 17.421875 238.269531 18.222656 238.511719 C 19.027344 238.757812 19.84375 238.960938 20.667969 239.128906 C 21.492188 239.292969 22.320312 239.414062 23.160156 239.5 C 23.996094 239.582031 24.832031 239.625 25.675781 239.625 L 213.949219 239.625 C 214.792969 239.625 215.628906 239.582031 216.464844 239.5 C 217.304688 239.414062 218.132812 239.292969 218.957031 239.128906 C 219.78125 238.960938 220.597656 238.757812 221.402344 238.511719 C 222.203125 238.269531 222.996094 237.984375 223.773438 237.664062 C 224.546875 237.339844 225.308594 236.980469 226.046875 236.585938 C 226.789062 236.1875 227.507812 235.757812 228.207031 235.289062 C 228.90625 234.820312 229.582031 234.320312 230.230469 233.789062 C 230.878906 233.253906 231.503906 232.691406 232.097656 232.097656 C 232.691406 231.503906 233.253906 230.878906 233.789062 230.230469 C 234.320312 229.582031 234.820312 228.90625 235.289062 228.207031 C 235.757812 227.507812 236.1875 226.789062 236.585938 226.046875 C 236.980469 225.308594 237.339844 224.546875 237.664062 223.773438 C 237.984375 222.996094 238.269531 222.203125 238.511719 221.402344 C 238.757812 220.597656 238.960938 219.78125 239.128906 218.957031 C 239.292969 218.132812 239.414062 217.304688 239.5 216.464844 C 239.582031 215.628906 239.625 214.792969 239.625 213.949219 L 239.625 162.601562 C 239.625 162.039062 239.570312 161.484375 239.460938 160.933594 C 239.351562 160.382812 239.1875 159.847656 238.972656 159.328125 C 238.757812 158.808594 238.496094 158.316406 238.183594 157.847656 C 237.871094 157.378906 237.515625 156.949219 237.117188 156.550781 C 236.722656 156.152344 236.289062 155.800781 235.820312 155.488281 C 235.355469 155.175781 234.859375 154.910156 234.34375 154.695312 C 233.824219 154.480469 233.289062 154.320312 232.738281 154.210938 C 232.183594 154.097656 231.628906 154.042969 231.066406 154.042969 Z M 231.066406 154.042969 " fill-opacity="1" fill-rule="nonzero"/></svg>