<svg xmlns="http://www.w3.org/2000/svg" xmlns:xlink="http://www.w3.org/1999/xlink" width="320" zoomAndPan="magnify" viewBox="0 0 240 239.999995" height="320" preserveAspectRatio="xMidYMid meet" version="1.0"><path fill="#868686" d="M 63.3125 134.613281 L 162.230469 35.6875 L 203.9375 77.394531 L 105.011719 176.3125 L 58.105469 181.519531 Z M 63.3125 134.613281 " fill-opacity="1" fill-rule="nonzero"/><path fill="#868686" d="M 174.867188 23.042969 L 191.921875 6 C 192.605469 5.316406 193.351562 4.707031 194.160156 4.171875 C 194.964844 3.636719 195.8125 3.1875 196.707031 2.816406 C 197.601562 2.449219 198.523438 2.171875 199.472656 1.984375 C 200.421875 1.792969 201.378906 1.699219 202.347656 1.699219 C 203.3125 1.699219 204.273438 1.792969 205.222656 1.984375 C 206.171875 2.171875 207.089844 2.449219 207.984375 2.816406 C 208.878906 3.1875 209.730469 3.636719 210.535156 4.171875 C 211.339844 4.707031 212.085938 5.316406 212.773438 6 L 233.617188 26.851562 C 234.300781 27.535156 234.910156 28.28125 235.445312 29.085938 C 235.984375 29.894531 236.4375 30.742188 236.808594 31.636719 C 237.175781 32.53125 237.457031 33.453125 237.644531 34.402344 C 237.832031 35.351562 237.925781 36.308594 237.925781 37.277344 C 237.925781 38.246094 237.832031 39.203125 237.644531 40.152344 C 237.457031 41.101562 237.175781 42.023438 236.808594 42.917969 C 236.4375 43.8125 235.984375 44.664062 235.445312 45.46875 C 234.910156 46.273438 234.300781 47.019531 233.617188 47.703125 L 216.570312 64.75 Z M 174.867188 23.042969 " fill-opacity="1" fill-rule="nonzero"/><path fill="#868686" d="M 220.929688 129.160156 C 220.371094 129.160156 219.820312 129.214844 219.273438 129.324219 C 218.726562 129.433594 218.195312 129.59375 217.679688 129.804688 C 217.164062 130.019531 216.675781 130.28125 216.210938 130.589844 C 215.746094 130.902344 215.316406 131.253906 214.921875 131.648438 C 214.527344 132.042969 214.175781 132.472656 213.867188 132.9375 C 213.554688 133.398438 213.292969 133.890625 213.082031 134.40625 C 212.867188 134.921875 212.707031 135.453125 212.597656 136 C 212.488281 136.546875 212.433594 137.097656 212.433594 137.65625 L 212.433594 214.132812 C 212.433594 214.691406 212.378906 215.242188 212.269531 215.789062 C 212.160156 216.339844 212 216.871094 211.785156 217.382812 C 211.574219 217.898438 211.3125 218.390625 211 218.855469 C 210.691406 219.316406 210.339844 219.746094 209.945312 220.140625 C 209.550781 220.535156 209.121094 220.886719 208.65625 221.199219 C 208.191406 221.507812 207.703125 221.769531 207.1875 221.984375 C 206.671875 222.195312 206.140625 222.359375 205.59375 222.46875 C 205.046875 222.574219 204.492188 222.628906 203.9375 222.628906 L 25.492188 222.628906 C 24.933594 222.628906 24.382812 222.574219 23.835938 222.46875 C 23.285156 222.359375 22.753906 222.195312 22.238281 221.984375 C 21.726562 221.769531 21.234375 221.507812 20.769531 221.199219 C 20.308594 220.886719 19.878906 220.535156 19.484375 220.140625 C 19.089844 219.746094 18.738281 219.316406 18.425781 218.855469 C 18.117188 218.390625 17.855469 217.898438 17.640625 217.382812 C 17.429688 216.871094 17.265625 216.339844 17.15625 215.789062 C 17.050781 215.242188 16.996094 214.691406 16.996094 214.132812 L 16.996094 35.6875 C 16.996094 35.132812 17.050781 34.578125 17.15625 34.03125 C 17.265625 33.484375 17.429688 32.953125 17.640625 32.4375 C 17.855469 31.921875 18.117188 31.433594 18.425781 30.96875 C 18.738281 30.503906 19.089844 30.074219 19.484375 29.679688 C 19.878906 29.285156 20.308594 28.933594 20.769531 28.625 C 21.234375 28.3125 21.726562 28.050781 22.238281 27.839844 C 22.753906 27.625 23.285156 27.464844 23.835938 27.355469 C 24.382812 27.246094 24.933594 27.191406 25.492188 27.191406 L 101.96875 27.191406 C 102.527344 27.191406 103.078125 27.136719 103.625 27.027344 C 104.171875 26.917969 104.703125 26.757812 105.21875 26.542969 C 105.734375 26.332031 106.226562 26.070312 106.6875 25.757812 C 107.152344 25.449219 107.582031 25.097656 107.976562 24.703125 C 108.371094 24.308594 108.722656 23.878906 109.035156 23.414062 C 109.34375 22.949219 109.605469 22.460938 109.820312 21.945312 C 110.03125 21.429688 110.191406 20.898438 110.300781 20.351562 C 110.410156 19.804688 110.464844 19.253906 110.464844 18.695312 C 110.464844 18.136719 110.410156 17.582031 110.300781 17.035156 C 110.191406 16.488281 110.03125 15.957031 109.820312 15.441406 C 109.605469 14.925781 109.34375 14.4375 109.035156 13.972656 C 108.722656 13.507812 108.371094 13.082031 107.976562 12.6875 C 107.582031 12.292969 107.152344 11.9375 106.6875 11.628906 C 106.226562 11.320312 105.734375 11.058594 105.21875 10.84375 C 104.703125 10.628906 104.171875 10.46875 103.625 10.359375 C 103.078125 10.25 102.527344 10.195312 101.96875 10.195312 L 25.492188 10.195312 C 24.65625 10.195312 23.824219 10.238281 22.992188 10.320312 C 22.164062 10.402344 21.335938 10.523438 20.519531 10.6875 C 19.699219 10.847656 18.890625 11.050781 18.09375 11.292969 C 17.292969 11.535156 16.507812 11.816406 15.738281 12.136719 C 14.964844 12.457031 14.210938 12.8125 13.476562 13.207031 C 12.738281 13.601562 12.023438 14.027344 11.328125 14.492188 C 10.636719 14.957031 9.964844 15.453125 9.320312 15.984375 C 8.675781 16.511719 8.058594 17.074219 7.464844 17.664062 C 6.875 18.253906 6.316406 18.871094 5.785156 19.515625 C 5.257812 20.164062 4.761719 20.832031 4.296875 21.527344 C 3.832031 22.21875 3.402344 22.9375 3.011719 23.671875 C 2.617188 24.410156 2.261719 25.164062 1.941406 25.933594 C 1.621094 26.703125 1.339844 27.488281 1.097656 28.289062 C 0.855469 29.085938 0.652344 29.898438 0.488281 30.714844 C 0.328125 31.535156 0.203125 32.359375 0.121094 33.191406 C 0.0390625 34.019531 0 34.855469 0 35.6875 L 0 214.132812 C 0 214.96875 0.0390625 215.800781 0.121094 216.632812 C 0.203125 217.460938 0.328125 218.289062 0.488281 219.105469 C 0.652344 219.925781 0.855469 220.734375 1.097656 221.53125 C 1.339844 222.332031 1.621094 223.117188 1.941406 223.886719 C 2.261719 224.660156 2.617188 225.414062 3.011719 226.148438 C 3.402344 226.886719 3.832031 227.601562 4.296875 228.296875 C 4.761719 228.988281 5.257812 229.660156 5.785156 230.304688 C 6.316406 230.949219 6.875 231.566406 7.464844 232.160156 C 8.058594 232.75 8.675781 233.308594 9.320312 233.839844 C 9.964844 234.367188 10.636719 234.863281 11.328125 235.328125 C 12.023438 235.792969 12.738281 236.222656 13.476562 236.613281 C 14.210938 237.007812 14.964844 237.363281 15.738281 237.683594 C 16.507812 238.003906 17.292969 238.285156 18.09375 238.527344 C 18.890625 238.769531 19.699219 238.972656 20.519531 239.136719 C 21.335938 239.296875 22.164062 239.421875 22.992188 239.503906 C 23.824219 239.585938 24.65625 239.625 25.492188 239.625 L 203.9375 239.625 C 204.769531 239.625 205.605469 239.585938 206.433594 239.503906 C 207.265625 239.421875 208.089844 239.296875 208.910156 239.136719 C 209.726562 238.972656 210.539062 238.769531 211.335938 238.527344 C 212.136719 238.285156 212.921875 238.003906 213.691406 237.683594 C 214.460938 237.363281 215.214844 237.007812 215.953125 236.613281 C 216.6875 236.222656 217.40625 235.792969 218.097656 235.328125 C 218.792969 234.863281 219.460938 234.367188 220.109375 233.839844 C 220.753906 233.308594 221.371094 232.75 221.960938 232.160156 C 222.550781 231.566406 223.113281 230.949219 223.640625 230.304688 C 224.171875 229.660156 224.667969 228.988281 225.132812 228.296875 C 225.597656 227.601562 226.023438 226.886719 226.417969 226.148438 C 226.8125 225.414062 227.167969 224.660156 227.488281 223.886719 C 227.808594 223.117188 228.089844 222.332031 228.332031 221.53125 C 228.574219 220.734375 228.777344 219.925781 228.9375 219.105469 C 229.101562 218.289062 229.222656 217.460938 229.304688 216.632812 C 229.386719 215.800781 229.429688 214.96875 229.429688 214.132812 L 229.429688 137.65625 C 229.429688 137.097656 229.375 136.546875 229.265625 136 C 229.15625 135.453125 228.996094 134.921875 228.78125 134.40625 C 228.566406 133.890625 228.304688 133.398438 227.996094 132.9375 C 227.6875 132.472656 227.332031 132.042969 226.9375 131.648438 C 226.542969 131.253906 226.117188 130.902344 225.652344 130.589844 C 225.1875 130.28125 224.699219 130.019531 224.183594 129.804688 C 223.667969 129.59375 223.136719 129.433594 222.589844 129.324219 C 222.042969 129.214844 221.488281 129.160156 220.929688 129.160156 Z M 220.929688 129.160156 " fill-opacity="1" fill-rule="nonzero"/></svg>