<svg xmlns="http://www.w3.org/2000/svg" xmlns:xlink="http://www.w3.org/1999/xlink" width="163" zoomAndPan="magnify" viewBox="0 0 122.25 122.250003" height="163" preserveAspectRatio="xMidYMid meet" version="1.0"><defs><clipPath id="9257099890"><path d="M 8.0625 17 L 113.167969 17 L 113.167969 104.777344 L 8.0625 104.777344 Z M 8.0625 17 " clip-rule="nonzero"/></clipPath></defs><g clip-path="url(#9257099890)"><path fill="#62646f" d="M 113.171875 77.535156 C 112.640625 72.929688 111.90625 68.773438 110.984375 65.191406 C 110.367188 62.707031 108.855469 60.496094 106.726562 58.972656 C 101.828125 55.441406 96.734375 53.105469 93.355469 51.777344 C 96.9375 47.910156 99.242188 42.347656 99.242188 36.265625 C 99.242188 25.492188 91.570312 17.054688 81.773438 17.054688 C 72.398438 17.054688 64.984375 24.792969 64.367188 34.902344 C 63.222656 34.652344 62.03125 34.519531 60.8125 34.519531 C 59.589844 34.519531 58.402344 34.652344 57.257812 34.902344 C 56.636719 24.792969 49.226562 17.054688 39.851562 17.054688 C 30.054688 17.054688 22.382812 25.492188 22.382812 36.265625 C 22.382812 42.347656 24.6875 47.910156 28.269531 51.777344 C 24.890625 53.105469 19.796875 55.441406 14.898438 58.96875 C 12.769531 60.492188 11.257812 62.707031 10.644531 65.175781 C 9.71875 68.773438 8.980469 72.929688 8.449219 77.535156 C 8.117188 80.492188 9.90625 83.335938 12.726562 84.296875 C 16.566406 85.582031 22.617188 86.390625 30.683594 86.734375 C 30.246094 88.941406 29.789062 91.683594 29.410156 95.003906 C 29.074219 97.964844 30.871094 100.808594 33.6875 101.761719 C 38.851562 103.503906 47.976562 104.390625 60.808594 104.390625 C 73.640625 104.390625 82.765625 103.503906 87.929688 101.761719 C 90.746094 100.808594 92.546875 97.964844 92.207031 95.003906 C 91.828125 91.679688 91.371094 88.9375 90.933594 86.734375 C 99 86.390625 105.050781 85.582031 108.90625 84.292969 C 111.710938 83.335938 113.503906 80.492188 113.167969 77.535156 Z M 81.773438 20.546875 C 89.742188 20.546875 95.75 27.304688 95.75 36.265625 C 95.75 45.570312 89.21875 53.734375 81.773438 53.734375 C 80.59375 53.734375 79.414062 53.53125 78.253906 53.132812 C 78.042969 45.378906 73.863281 38.917969 67.808594 36.078125 C 67.894531 27.210938 73.863281 20.546875 81.773438 20.546875 Z M 74.785156 53.734375 C 74.785156 63.039062 68.257812 71.203125 60.8125 71.203125 C 53.367188 71.203125 46.839844 63.039062 46.839844 53.734375 C 46.839844 44.773438 52.84375 38.015625 60.8125 38.015625 C 68.777344 38.015625 74.785156 44.773438 74.785156 53.734375 Z M 39.851562 20.546875 C 47.761719 20.546875 53.734375 27.210938 53.816406 36.078125 C 47.757812 38.917969 43.582031 45.378906 43.371094 53.132812 C 42.210938 53.53125 41.027344 53.734375 39.851562 53.734375 C 32.40625 53.734375 25.875 45.570312 25.875 36.265625 C 25.875 27.304688 31.882812 20.546875 39.851562 20.546875 Z M 13.84375 80.988281 C 12.578125 80.558594 11.769531 79.273438 11.917969 77.933594 C 12.433594 73.488281 13.140625 69.492188 14.03125 66.03125 C 14.445312 64.351562 15.476562 62.855469 16.933594 61.808594 C 22.488281 57.808594 28.300781 55.441406 31.246094 54.394531 C 33.804688 56.183594 36.742188 57.230469 39.847656 57.230469 C 41.089844 57.230469 42.328125 57.042969 43.550781 56.714844 C 44.160156 61.617188 46.242188 66.019531 49.230469 69.246094 C 45.851562 70.578125 40.753906 72.914062 35.863281 76.4375 C 33.734375 77.964844 32.226562 80.175781 31.617188 82.636719 C 31.566406 82.832031 31.511719 83.054688 31.453125 83.273438 C 21.457031 82.886719 16.355469 81.828125 13.839844 80.988281 Z M 86.816406 98.457031 C 83.515625 99.570312 76.324219 100.894531 60.808594 100.894531 C 45.296875 100.894531 38.105469 99.566406 34.808594 98.457031 C 33.539062 98.027344 32.726562 96.738281 32.878906 95.402344 C 33.527344 89.765625 34.386719 85.832031 35.003906 83.5 C 35.417969 81.816406 36.445312 80.320312 37.902344 79.273438 C 43.449219 75.28125 49.261719 72.914062 52.210938 71.863281 C 54.769531 73.648438 57.707031 74.695312 60.808594 74.695312 C 63.914062 74.695312 66.855469 73.648438 69.410156 71.863281 C 72.359375 72.914062 78.171875 75.28125 83.722656 79.277344 C 85.171875 80.320312 86.203125 81.816406 86.625 83.527344 C 87.234375 85.832031 88.09375 89.769531 88.738281 95.402344 C 88.890625 96.742188 88.078125 98.027344 86.8125 98.457031 Z M 107.792969 80.988281 C 105.265625 81.828125 100.164062 82.886719 90.164062 83.273438 C 90.113281 83.066406 90.058594 82.847656 90.011719 82.660156 C 89.394531 80.171875 87.882812 77.964844 85.761719 76.4375 C 80.867188 72.914062 75.765625 70.574219 72.390625 69.246094 C 75.375 66.019531 77.457031 61.617188 78.070312 56.714844 C 79.292969 57.042969 80.527344 57.230469 81.773438 57.230469 C 84.878906 57.230469 87.816406 56.183594 90.375 54.394531 C 93.320312 55.445312 99.132812 57.808594 104.6875 61.808594 C 106.144531 62.855469 107.175781 64.351562 107.59375 66.046875 C 108.480469 69.492188 109.1875 73.492188 109.699219 77.933594 C 109.851562 79.273438 109.042969 80.558594 107.789062 80.988281 Z M 107.792969 80.988281 " fill-opacity="1" fill-rule="nonzero"/></g></svg>