<svg xmlns="http://www.w3.org/2000/svg" xmlns:xlink="http://www.w3.org/1999/xlink" width="163" zoomAndPan="magnify" viewBox="0 0 122.25 122.250003" height="163" preserveAspectRatio="xMidYMid meet" version="1.0"><defs><clipPath id="50337b2fcc"><path d="M 23.859375 16.816406 L 91 16.816406 L 91 104.777344 L 23.859375 104.777344 Z M 23.859375 16.816406 " clip-rule="nonzero"/></clipPath></defs><path fill="#62646f" d="M 43.132812 70.15625 L 36.234375 70.15625 C 34.578125 70.15625 33.226562 71.511719 33.226562 73.167969 L 33.226562 80.0625 C 33.226562 81.71875 34.578125 83.074219 36.234375 83.074219 L 43.132812 83.074219 C 44.789062 83.074219 46.140625 81.71875 46.140625 80.0625 L 46.140625 73.167969 C 46.140625 71.5 44.789062 70.15625 43.132812 70.15625 Z M 44.136719 80.0625 C 44.136719 80.617188 43.683594 81.066406 43.132812 81.066406 L 36.234375 81.066406 C 35.683594 81.066406 35.230469 80.617188 35.230469 80.0625 L 35.230469 73.167969 C 35.230469 72.613281 35.683594 72.164062 36.234375 72.164062 L 43.132812 72.164062 C 43.683594 72.164062 44.136719 72.613281 44.136719 73.167969 Z M 44.136719 80.0625 " fill-opacity="1" fill-rule="nonzero"/><path fill="#62646f" d="M 81.390625 42.78125 L 52.074219 42.78125 C 51.246094 42.78125 50.566406 43.460938 50.566406 44.289062 C 50.566406 45.117188 51.246094 45.792969 52.074219 45.792969 L 81.390625 45.792969 C 82.21875 45.792969 82.894531 45.117188 82.894531 44.289062 C 82.894531 43.460938 82.21875 42.78125 81.390625 42.78125 Z M 81.390625 42.78125 " fill-opacity="1" fill-rule="nonzero"/><path fill="#62646f" d="M 82.894531 61.128906 C 82.894531 60.300781 82.21875 59.625 81.390625 59.625 L 52.074219 59.625 C 51.246094 59.625 50.566406 60.300781 50.566406 61.128906 C 50.566406 61.957031 51.246094 62.632812 52.074219 62.632812 L 81.390625 62.632812 C 82.21875 62.632812 82.894531 61.957031 82.894531 61.128906 Z M 82.894531 61.128906 " fill-opacity="1" fill-rule="nonzero"/><path fill="#62646f" d="M 49.714844 47.070312 C 49.25 46.757812 48.636719 46.882812 48.324219 47.347656 L 44.6875 52.777344 C 44.234375 52.5 43.707031 52.351562 43.132812 52.351562 L 36.234375 52.351562 C 35.65625 52.351562 35.105469 52.515625 34.640625 52.800781 L 34.542969 52.664062 C 34.230469 52.199219 33.601562 52.085938 33.148438 52.402344 C 32.6875 52.714844 32.574219 53.339844 32.886719 53.792969 L 33.351562 54.484375 C 33.261719 54.757812 33.214844 55.058594 33.214844 55.371094 L 33.214844 62.269531 C 33.214844 63.925781 34.566406 65.28125 36.222656 65.28125 L 43.121094 65.28125 C 44.773438 65.28125 46.128906 63.925781 46.128906 62.269531 L 46.128906 55.371094 C 46.128906 55.046875 46.078125 54.734375 45.976562 54.445312 L 49.980469 48.476562 C 50.292969 48 50.167969 47.371094 49.714844 47.070312 Z M 36.234375 54.355469 L 43.132812 54.355469 C 43.28125 54.355469 43.433594 54.394531 43.558594 54.457031 L 40.375 59.222656 C 40.183594 59.5 39.945312 59.648438 39.695312 59.648438 C 39.445312 59.648438 39.207031 59.5 39.019531 59.234375 L 35.785156 54.484375 C 35.910156 54.394531 36.058594 54.355469 36.234375 54.355469 Z M 44.136719 62.257812 C 44.136719 62.808594 43.683594 63.261719 43.132812 63.261719 L 36.234375 63.261719 C 35.683594 63.261719 35.230469 62.808594 35.230469 62.257812 L 35.230469 57.230469 L 37.351562 60.351562 C 37.914062 61.179688 38.753906 61.644531 39.683594 61.644531 C 39.683594 61.644531 39.695312 61.644531 39.695312 61.644531 C 40.625 61.644531 41.476562 61.167969 42.027344 60.328125 L 44.121094 57.191406 L 44.121094 62.257812 Z M 44.136719 62.257812 " fill-opacity="1" fill-rule="nonzero"/><path fill="#62646f" d="M 49.714844 29.640625 C 49.25 29.328125 48.636719 29.453125 48.324219 29.917969 L 44.851562 35.082031 C 44.359375 34.746094 43.769531 34.53125 43.121094 34.53125 L 36.222656 34.53125 C 35.558594 34.53125 34.945312 34.746094 34.453125 35.109375 C 34.128906 34.746094 33.5625 34.667969 33.148438 34.957031 C 32.6875 35.273438 32.574219 35.898438 32.886719 36.351562 L 33.289062 36.925781 C 33.25 37.128906 33.226562 37.328125 33.226562 37.542969 L 33.226562 44.4375 C 33.226562 46.09375 34.578125 47.449219 36.234375 47.449219 L 43.132812 47.449219 C 44.789062 47.449219 46.140625 46.09375 46.140625 44.4375 L 46.140625 37.542969 C 46.140625 37.316406 46.117188 37.089844 46.066406 36.875 L 49.992188 31.019531 C 50.292969 30.570312 50.167969 29.941406 49.714844 29.640625 Z M 43.132812 36.550781 C 43.359375 36.550781 43.570312 36.625 43.746094 36.765625 L 40.375 41.792969 C 40.183594 42.066406 39.945312 42.21875 39.695312 42.21875 C 39.445312 42.21875 39.207031 42.066406 39.019531 41.804688 L 35.609375 36.789062 C 35.785156 36.652344 35.996094 36.5625 36.234375 36.5625 L 43.132812 36.5625 Z M 44.136719 44.449219 C 44.136719 45.003906 43.683594 45.453125 43.132812 45.453125 L 36.234375 45.453125 C 35.683594 45.453125 35.230469 45.003906 35.230469 44.449219 L 35.230469 39.796875 L 37.351562 42.921875 C 37.914062 43.75 38.753906 44.210938 39.683594 44.210938 C 39.683594 44.210938 39.695312 44.210938 39.695312 44.210938 C 40.625 44.210938 41.476562 43.734375 42.027344 42.894531 L 44.121094 39.761719 L 44.121094 44.449219 Z M 44.136719 44.449219 " fill-opacity="1" fill-rule="nonzero"/><path fill="#62646f" d="M 101.039062 44.527344 L 98.808594 43.449219 C 96.351562 42.257812 93.367188 43.285156 92.175781 45.742188 L 89.703125 50.832031 L 74.457031 82.183594 C 74.03125 83.046875 73.792969 83.976562 73.742188 84.929688 L 73.175781 95.863281 C 73.152344 96.453125 73.476562 97.015625 74.003906 97.28125 C 74.207031 97.382812 74.429688 97.429688 74.65625 97.429688 C 75.007812 97.429688 75.359375 97.304688 75.636719 97.066406 L 83.886719 89.871094 C 84.613281 89.242188 85.191406 88.476562 85.617188 87.613281 L 100.863281 56.238281 L 103.335938 51.160156 C 104.539062 48.6875 103.511719 45.71875 101.039062 44.527344 Z M 94.859375 47.035156 C 95.335938 46.042969 96.539062 45.628906 97.515625 46.117188 L 99.75 47.195312 C 100.738281 47.671875 101.152344 48.878906 100.664062 49.855469 L 98.847656 53.605469 L 93.027344 50.785156 Z M 81.929688 87.636719 L 76.324219 92.527344 L 76.714844 85.09375 C 76.738281 84.527344 76.875 83.988281 77.128906 83.488281 L 77.152344 83.4375 L 82.96875 86.257812 L 82.945312 86.308594 C 82.695312 86.824219 82.355469 87.261719 81.929688 87.636719 Z M 83.886719 84.363281 L 83.121094 83.988281 L 78.082031 81.53125 L 91.335938 54.269531 L 97.152344 57.089844 Z M 83.886719 84.363281 " fill-opacity="1" fill-rule="nonzero"/><path fill="#62646f" d="M 52.074219 76.503906 C 51.246094 76.503906 50.566406 77.179688 50.566406 78.007812 C 50.566406 78.835938 51.246094 79.511719 52.074219 79.511719 L 72.238281 79.511719 C 73.0625 79.511719 73.742188 78.835938 73.742188 78.007812 C 73.742188 77.179688 73.0625 76.503906 72.238281 76.503906 Z M 52.074219 76.503906 " fill-opacity="1" fill-rule="nonzero"/><g clip-path="url(#50337b2fcc)"><path fill="#62646f" d="M 89.390625 84.742188 C 88.574219 84.742188 87.910156 85.40625 87.910156 86.222656 L 87.910156 97.34375 C 87.910156 99.714844 85.992188 101.644531 83.609375 101.644531 L 31.117188 101.644531 C 28.75 101.644531 26.816406 99.726562 26.816406 97.34375 L 26.816406 24.097656 C 26.816406 21.730469 28.734375 19.796875 31.117188 19.796875 L 83.609375 19.796875 C 85.980469 19.796875 87.910156 21.714844 87.910156 24.097656 L 87.910156 44.414062 C 87.910156 45.226562 88.574219 45.894531 89.390625 45.894531 C 90.207031 45.894531 90.871094 45.226562 90.871094 44.414062 L 90.871094 24.097656 C 90.871094 20.085938 87.621094 16.839844 83.609375 16.839844 L 31.117188 16.839844 C 27.105469 16.839844 23.859375 20.085938 23.859375 24.097656 L 23.859375 97.34375 C 23.859375 101.355469 27.105469 104.605469 31.117188 104.605469 L 83.609375 104.605469 C 87.621094 104.605469 90.871094 101.355469 90.871094 97.34375 L 90.871094 86.222656 C 90.871094 85.40625 90.207031 84.742188 89.390625 84.742188 Z M 89.390625 84.742188 " fill-opacity="1" fill-rule="nonzero"/></g></svg>