<svg xmlns="http://www.w3.org/2000/svg" xmlns:xlink="http://www.w3.org/1999/xlink" width="163" zoomAndPan="magnify" viewBox="0 0 122.25 122.250003" height="163" preserveAspectRatio="xMidYMid meet" version="1.0"><defs><clipPath id="8beb39fd3a"><path d="M 15.445312 16.570312 L 103 16.570312 L 103 79 L 15.445312 79 Z M 15.445312 16.570312 " clip-rule="nonzero"/></clipPath><clipPath id="f3071c17b2"><path d="M 76 66 L 109.367188 66 L 109.367188 106.769531 L 76 106.769531 Z M 76 66 " clip-rule="nonzero"/></clipPath><clipPath id="05453098cc"><path d="M 22 25 L 109.367188 25 L 109.367188 87 L 22 87 Z M 22 25 " clip-rule="nonzero"/></clipPath></defs><g clip-path="url(#8beb39fd3a)"><path fill="#62646f" d="M 77.6875 75.054688 C 78.527344 75.054688 79.207031 75.734375 79.207031 76.574219 C 79.207031 77.414062 78.527344 78.09375 77.6875 78.09375 L 21.394531 78.09375 C 19.765625 78.09375 18.28125 77.425781 17.199219 76.347656 L 17.191406 76.339844 C 16.113281 75.257812 15.445312 73.773438 15.445312 72.144531 L 15.445312 22.519531 C 15.445312 20.890625 16.117188 19.402344 17.191406 18.324219 L 17.199219 18.316406 C 18.277344 17.242188 19.761719 16.570312 21.394531 16.570312 L 96.722656 16.570312 C 98.355469 16.570312 99.839844 17.242188 100.917969 18.316406 L 100.925781 18.324219 C 102 19.402344 102.671875 20.890625 102.671875 22.519531 L 102.671875 72.144531 C 102.671875 72.984375 101.988281 73.667969 101.152344 73.667969 C 100.3125 73.667969 99.628906 72.984375 99.628906 72.144531 L 99.628906 22.519531 C 99.628906 21.71875 99.304688 20.992188 98.78125 20.464844 C 98.25 19.941406 97.523438 19.613281 96.722656 19.613281 L 21.394531 19.613281 C 20.59375 19.613281 19.867188 19.941406 19.339844 20.464844 C 18.816406 20.992188 18.488281 21.722656 18.488281 22.519531 L 18.488281 72.144531 C 18.488281 72.949219 18.816406 73.675781 19.339844 74.199219 L 19.34375 74.207031 C 19.867188 74.730469 20.597656 75.054688 21.398438 75.054688 Z M 77.6875 75.054688 " fill-opacity="1" fill-rule="nonzero"/></g><path fill="#62646f" d="M 29.238281 42.882812 L 48.191406 42.882812 L 48.191406 30.097656 L 29.238281 30.097656 Z M 48.515625 45.921875 L 28.917969 45.921875 C 28.167969 45.921875 27.484375 45.617188 26.996094 45.125 L 26.996094 45.117188 C 26.503906 44.625 26.199219 43.949219 26.199219 43.207031 L 26.199219 29.773438 C 26.199219 29.023438 26.503906 28.34375 26.996094 27.851562 C 27.484375 27.363281 28.167969 27.054688 28.917969 27.054688 L 48.515625 27.054688 C 49.199219 27.054688 49.832031 27.316406 50.3125 27.742188 L 50.4375 27.855469 C 50.925781 28.34375 51.234375 29.027344 51.234375 29.773438 L 51.234375 43.207031 C 51.234375 43.949219 50.925781 44.628906 50.4375 45.117188 L 50.429688 45.125 C 49.9375 45.617188 49.257812 45.921875 48.515625 45.921875 Z M 48.515625 45.921875 " fill-opacity="1" fill-rule="nonzero"/><path fill="#62646f" d="M 33.90625 28.574219 C 33.90625 27.738281 34.585938 27.054688 35.425781 27.054688 C 36.265625 27.054688 36.945312 27.738281 36.945312 28.574219 L 36.945312 44.40625 C 36.945312 45.242188 36.265625 45.925781 35.425781 45.925781 C 34.585938 45.925781 33.90625 45.242188 33.90625 44.40625 Z M 33.90625 28.574219 " fill-opacity="1" fill-rule="nonzero"/><path fill="#62646f" d="M 35.425781 38.011719 C 34.585938 38.011719 33.90625 37.328125 33.90625 36.488281 C 33.90625 35.652344 34.585938 34.96875 35.425781 34.96875 L 49.714844 34.96875 C 50.554688 34.96875 51.234375 35.652344 51.234375 36.488281 C 51.234375 37.328125 50.554688 38.011719 49.714844 38.011719 Z M 35.425781 38.011719 " fill-opacity="1" fill-rule="nonzero"/><path fill="#62646f" d="M 73.027344 27.453125 C 74.261719 27.453125 75.441406 27.699219 76.519531 28.152344 C 77.628906 28.617188 78.632812 29.300781 79.46875 30.15625 C 80.046875 30.746094 80.046875 31.691406 79.46875 32.28125 C 78.921875 32.835938 78.484375 33.492188 78.1875 34.214844 C 77.90625 34.902344 77.75 35.671875 77.75 36.488281 C 77.75 37.304688 77.90625 38.070312 78.1875 38.761719 L 78.21875 38.832031 C 78.511719 39.527344 78.9375 40.160156 79.46875 40.699219 C 80.046875 41.289062 80.046875 42.234375 79.46875 42.824219 C 78.628906 43.675781 77.628906 44.363281 76.519531 44.828125 L 76.433594 44.859375 C 75.378906 45.289062 74.230469 45.527344 73.03125 45.527344 C 70.535156 45.527344 68.273438 44.515625 66.636719 42.878906 C 65 41.246094 63.992188 38.984375 63.992188 36.488281 C 63.992188 33.996094 65 31.734375 66.636719 30.101562 C 68.269531 28.460938 70.53125 27.453125 73.027344 27.453125 Z M 75.34375 30.953125 C 74.636719 30.65625 73.851562 30.492188 73.027344 30.492188 C 71.371094 30.492188 69.871094 31.164062 68.785156 32.246094 C 67.699219 33.332031 67.027344 34.832031 67.027344 36.488281 C 67.027344 38.148438 67.699219 39.644531 68.785156 40.734375 C 69.867188 41.816406 71.371094 42.488281 73.027344 42.488281 C 73.828125 42.488281 74.585938 42.335938 75.277344 42.058594 L 75.34375 42.027344 C 75.664062 41.890625 75.972656 41.730469 76.261719 41.542969 C 75.933594 41.058594 75.652344 40.539062 75.421875 39.992188 L 75.386719 39.910156 C 74.949219 38.84375 74.710938 37.691406 74.710938 36.488281 C 74.710938 35.289062 74.949219 34.136719 75.386719 33.074219 C 75.625 32.492188 75.917969 31.945312 76.261719 31.433594 C 75.972656 31.25 75.664062 31.089844 75.34375 30.953125 Z M 75.34375 30.953125 " fill-opacity="1" fill-rule="nonzero"/><path fill="#62646f" d="M 83.75 27.453125 C 86.246094 27.453125 88.503906 28.460938 90.140625 30.097656 C 91.773438 31.734375 92.785156 33.996094 92.785156 36.488281 C 92.785156 38.980469 91.773438 41.238281 90.140625 42.875 L 90.132812 42.882812 C 88.488281 44.519531 86.234375 45.527344 83.746094 45.527344 C 81.25 45.527344 78.992188 44.519531 77.355469 42.882812 C 75.71875 41.246094 74.707031 38.984375 74.707031 36.492188 C 74.707031 34 75.71875 31.742188 77.355469 30.109375 L 77.363281 30.101562 C 79 28.460938 81.257812 27.453125 83.75 27.453125 Z M 87.988281 32.246094 C 86.90625 31.164062 85.402344 30.492188 83.746094 30.492188 C 82.085938 30.492188 80.585938 31.164062 79.5 32.246094 C 78.421875 33.328125 77.75 34.832031 77.75 36.488281 C 77.75 38.148438 78.421875 39.644531 79.503906 40.734375 C 80.589844 41.816406 82.089844 42.488281 83.746094 42.488281 C 85.410156 42.488281 86.90625 41.820312 87.988281 40.738281 L 87.996094 40.730469 C 89.078125 39.652344 89.746094 38.148438 89.746094 36.488281 C 89.746094 34.832031 89.074219 33.332031 87.988281 32.246094 Z M 87.988281 32.246094 " fill-opacity="1" fill-rule="nonzero"/><path fill="#62646f" d="M 27.285156 66.535156 C 26.445312 66.535156 25.761719 65.855469 25.761719 65.015625 C 25.761719 64.175781 26.445312 63.496094 27.285156 63.496094 L 56.261719 63.496094 C 57.101562 63.496094 57.78125 64.175781 57.78125 65.015625 C 57.78125 65.855469 57.101562 66.535156 56.261719 66.535156 Z M 27.285156 66.535156 " fill-opacity="1" fill-rule="nonzero"/><path fill="#62646f" d="M 73.914062 63.496094 C 74.753906 63.496094 75.433594 64.175781 75.433594 65.015625 C 75.433594 65.855469 74.753906 66.535156 73.914062 66.535156 L 62.742188 66.535156 C 61.902344 66.535156 61.222656 65.855469 61.222656 65.015625 C 61.222656 64.175781 61.902344 63.496094 62.742188 63.496094 Z M 73.914062 63.496094 " fill-opacity="1" fill-rule="nonzero"/><path fill="#62646f" d="M 27.71875 59.542969 C 26.878906 59.542969 26.199219 58.863281 26.199219 58.023438 C 26.199219 57.183594 26.878906 56.503906 27.71875 56.503906 L 44.335938 56.503906 C 45.175781 56.503906 45.855469 57.183594 45.855469 58.023438 C 45.855469 58.863281 45.175781 59.542969 44.335938 59.542969 Z M 27.71875 59.542969 " fill-opacity="1" fill-rule="nonzero"/><path fill="#62646f" d="M 51.183594 59.542969 C 50.347656 59.542969 49.664062 58.863281 49.664062 58.023438 C 49.664062 57.183594 50.347656 56.503906 51.183594 56.503906 L 67.800781 56.503906 C 68.640625 56.503906 69.320312 57.183594 69.320312 58.023438 C 69.320312 58.863281 68.640625 59.542969 67.800781 59.542969 Z M 51.183594 59.542969 " fill-opacity="1" fill-rule="nonzero"/><path fill="#62646f" d="M 74.652344 59.542969 C 73.8125 59.542969 73.132812 58.863281 73.132812 58.023438 C 73.132812 57.183594 73.8125 56.503906 74.652344 56.503906 L 91.269531 56.503906 C 92.105469 56.503906 92.789062 57.183594 92.789062 58.023438 C 92.789062 58.863281 92.105469 59.542969 91.269531 59.542969 Z M 74.652344 59.542969 " fill-opacity="1" fill-rule="nonzero"/><path fill="#62646f" d="M 101.027344 79.070312 C 101.605469 78.46875 102.5625 78.453125 103.164062 79.035156 C 103.761719 79.613281 103.777344 80.570312 103.199219 81.171875 L 89.230469 95.613281 C 88.648438 96.210938 87.691406 96.226562 87.089844 95.648438 L 82.957031 91.65625 C 82.359375 91.070312 82.34375 90.109375 82.929688 89.511719 C 83.511719 88.914062 84.472656 88.898438 85.070312 89.484375 L 88.109375 92.421875 Z M 101.027344 79.070312 " fill-opacity="1" fill-rule="nonzero"/><g clip-path="url(#f3071c17b2)"><path fill="#62646f" d="M 91.863281 66.644531 L 91.886719 66.625 C 92.011719 66.5 92.160156 66.398438 92.316406 66.328125 L 92.359375 66.308594 C 92.550781 66.226562 92.75 66.191406 92.945312 66.191406 C 93.144531 66.191406 93.34375 66.226562 93.53125 66.304688 L 93.578125 66.328125 C 93.734375 66.398438 93.878906 66.496094 94.007812 66.625 L 94.144531 66.773438 C 95.109375 67.96875 97.246094 69.203125 99.695312 70.25 C 102.644531 71.507812 105.960938 72.441406 108.269531 72.703125 C 109.082031 72.738281 109.726562 73.40625 109.726562 74.222656 L 109.726562 90.964844 L 109.722656 90.964844 L 109.722656 91.003906 C 109.425781 102.066406 102.125 104 95.035156 105.871094 L 93.367188 106.320312 C 93.105469 106.394531 92.824219 106.398438 92.546875 106.324219 L 90.863281 105.871094 C 83.808594 104.003906 76.542969 102.082031 76.183594 91.15625 L 76.171875 90.964844 L 76.171875 74.222656 C 76.175781 73.457031 76.75 72.796875 77.53125 72.714844 C 79.84375 72.46875 83.210938 71.523438 86.207031 70.246094 C 88.648438 69.203125 90.785156 67.96875 91.753906 66.773438 Z M 92.945312 69.839844 C 91.539062 71.015625 89.546875 72.117188 87.386719 73.039062 C 84.671875 74.195312 81.640625 75.105469 79.207031 75.535156 L 79.203125 91.039062 C 79.488281 99.726562 85.648438 101.355469 91.632812 102.9375 L 92.945312 103.289062 L 94.261719 102.9375 C 100.257812 101.351562 106.441406 99.714844 106.691406 90.964844 L 106.683594 75.535156 C 104.253906 75.105469 101.21875 74.195312 98.503906 73.039062 C 96.347656 72.117188 94.351562 71.015625 92.945312 69.839844 Z M 92.945312 69.839844 " fill-opacity="1" fill-rule="nonzero"/></g><g clip-path="url(#05453098cc)"><path fill="#62646f" d="M 101.152344 28.324219 C 100.3125 28.324219 99.628906 27.644531 99.628906 26.804688 C 99.628906 25.964844 100.3125 25.285156 101.152344 25.285156 L 103.777344 25.285156 C 105.410156 25.285156 106.902344 25.953125 107.980469 27.03125 L 108.066406 27.128906 C 109.09375 28.199219 109.726562 29.648438 109.726562 31.234375 L 109.726562 75.25 C 109.726562 76.089844 109.042969 76.769531 108.203125 76.769531 C 107.367188 76.769531 106.683594 76.089844 106.683594 75.25 L 106.683594 31.230469 C 106.683594 30.460938 106.382812 29.761719 105.898438 29.242188 L 105.828125 29.179688 C 105.300781 28.652344 104.574219 28.324219 103.777344 28.324219 Z M 77.6875 83.765625 C 78.527344 83.765625 79.207031 84.449219 79.207031 85.285156 C 79.207031 86.125 78.527344 86.808594 77.6875 86.808594 L 28.449219 86.808594 C 26.8125 86.808594 25.328125 86.136719 24.246094 85.058594 L 24.15625 84.960938 C 23.132812 83.890625 22.5 82.441406 22.5 80.859375 L 22.5 76.835938 C 22.5 75.996094 23.183594 75.3125 24.019531 75.3125 C 24.859375 75.3125 25.542969 75.996094 25.542969 76.835938 L 25.542969 80.859375 C 25.542969 81.628906 25.84375 82.328125 26.328125 82.847656 L 26.398438 82.910156 C 26.925781 83.4375 27.652344 83.765625 28.449219 83.765625 Z M 77.6875 83.765625 " fill-opacity="1" fill-rule="nonzero"/></g></svg>