<svg xmlns="http://www.w3.org/2000/svg" xmlns:xlink="http://www.w3.org/1999/xlink" width="163" zoomAndPan="magnify" viewBox="0 0 122.25 122.250003" height="163" preserveAspectRatio="xMidYMid meet" version="1.0"><defs><clipPath id="9f5648cbef"><path d="M 49 95 L 72 95 L 72 104.808594 L 49 104.808594 Z M 49 95 " clip-rule="nonzero"/></clipPath><clipPath id="1ce8cd6b68"><path d="M 21.578125 18.339844 L 99.847656 18.339844 L 99.847656 93 L 21.578125 93 Z M 21.578125 18.339844 " clip-rule="nonzero"/></clipPath></defs><g clip-path="url(#9f5648cbef)"><path fill="#62646f" d="M 60.71875 100.71875 C 57.609375 100.71875 54.804688 98.878906 53.550781 96.027344 L 49.976562 97.589844 C 51.847656 101.855469 56.0625 104.621094 60.71875 104.621094 C 65.445312 104.621094 69.675781 101.820312 71.515625 97.472656 L 67.921875 95.941406 C 66.683594 98.847656 63.867188 100.71875 60.71875 100.71875 Z M 60.71875 100.71875 " fill-opacity="1" fill-rule="nonzero"/></g><g clip-path="url(#1ce8cd6b68)"><path fill="#62646f" d="M 99.089844 87.5 L 88.777344 78.902344 C 88.328125 78.527344 88.070312 77.992188 88.070312 77.410156 L 88.070312 53.820312 C 88.070312 46.273438 85.0625 39.242188 79.59375 34.035156 C 76.382812 30.976562 72.5625 28.808594 68.4375 27.605469 C 68.523438 27.003906 68.558594 26.402344 68.507812 25.765625 C 68.214844 22.429688 65.757812 19.59375 62.523438 18.871094 C 60.152344 18.339844 57.710938 18.890625 55.835938 20.386719 C 53.980469 21.878906 52.914062 24.097656 52.914062 26.488281 C 52.914062 26.882812 52.984375 27.246094 53.035156 27.621094 C 41.621094 31.027344 33.367188 41.789062 33.367188 54.542969 L 33.367188 77.390625 C 33.367188 77.976562 33.109375 78.527344 32.664062 78.886719 L 22.347656 87.484375 C 21.902344 87.859375 21.644531 88.410156 21.644531 88.976562 L 21.644531 90.9375 C 21.644531 92.019531 22.519531 92.898438 23.605469 92.898438 L 97.835938 92.898438 C 98.917969 92.898438 99.796875 92.019531 99.796875 90.9375 L 99.796875 88.976562 C 99.777344 88.410156 99.519531 87.859375 99.089844 87.5 Z M 56.800781 26.488281 C 56.800781 25.285156 57.332031 24.183594 58.261719 23.429688 C 59.207031 22.671875 60.394531 22.394531 61.648438 22.671875 C 63.210938 23.03125 64.449219 24.460938 64.605469 26.09375 C 64.621094 26.316406 64.585938 26.539062 64.570312 26.761719 C 62.867188 26.523438 61.148438 26.4375 59.378906 26.503906 C 58.519531 26.539062 57.660156 26.625 56.816406 26.761719 C 56.835938 26.660156 56.800781 26.574219 56.800781 26.488281 Z M 26.644531 88.996094 L 35.15625 81.894531 C 36.496094 80.777344 37.269531 79.144531 37.269531 77.390625 L 37.269531 54.542969 C 37.269531 41.597656 47.070312 30.992188 59.585938 30.40625 C 66.082031 30.097656 72.21875 32.402344 76.898438 36.855469 C 81.574219 41.324219 84.152344 47.339844 84.152344 53.820312 L 84.152344 77.390625 C 84.152344 79.128906 84.925781 80.777344 86.265625 81.894531 L 94.777344 88.996094 Z M 26.644531 88.996094 " fill-opacity="1" fill-rule="nonzero"/></g></svg>