<svg xmlns="http://www.w3.org/2000/svg" xmlns:xlink="http://www.w3.org/1999/xlink" width="163" zoomAndPan="magnify" viewBox="0 0 122.25 122.250003" height="163" preserveAspectRatio="xMidYMid meet" version="1.0"><defs><clipPath id="5f6e5447cf"><path d="M 27 18.339844 L 94 18.339844 L 94 60 L 27 60 Z M 27 18.339844 " clip-rule="nonzero"/></clipPath><clipPath id="7b647d1169"><path d="M 22.054688 55 L 45 55 L 45 87 L 22.054688 87 Z M 22.054688 55 " clip-rule="nonzero"/></clipPath><clipPath id="83488a3b2b"><path d="M 76 55 L 99.578125 55 L 99.578125 87 L 76 87 Z M 76 55 " clip-rule="nonzero"/></clipPath><clipPath id="354d4314b7"><path d="M 50 95 L 74 95 L 74 104.808594 L 50 104.808594 Z M 50 95 " clip-rule="nonzero"/></clipPath></defs><g clip-path="url(#5f6e5447cf)"><path fill="#62646f" d="M 91.089844 59.402344 C 89.765625 59.402344 88.691406 58.328125 88.691406 57.003906 L 88.691406 51.113281 C 88.691406 35.6875 76.140625 23.136719 60.710938 23.136719 C 45.285156 23.136719 32.734375 35.6875 32.734375 51.113281 L 32.734375 56.710938 C 32.734375 58.035156 31.660156 59.109375 30.335938 59.109375 C 29.011719 59.109375 27.9375 58.035156 27.9375 56.710938 L 27.9375 51.113281 C 27.9375 33.042969 42.640625 18.339844 60.710938 18.339844 C 78.78125 18.339844 93.484375 33.042969 93.484375 51.113281 L 93.484375 57.003906 C 93.484375 58.328125 92.410156 59.402344 91.085938 59.402344 Z M 91.089844 59.402344 " fill-opacity="1" fill-rule="nonzero"/></g><g clip-path="url(#7b647d1169)"><path fill="#62646f" d="M 31.941406 86.550781 C 26.503906 86.550781 22.078125 82.128906 22.078125 76.6875 L 22.078125 64.890625 C 22.078125 59.449219 26.503906 55.027344 31.941406 55.027344 C 39.136719 55.027344 44.992188 60.882812 44.992188 68.078125 L 44.992188 73.496094 C 44.992188 80.691406 39.136719 86.550781 31.941406 86.550781 Z M 31.941406 59.824219 C 29.148438 59.824219 26.875 62.097656 26.875 64.890625 L 26.875 76.691406 C 26.875 79.484375 29.148438 81.757812 31.941406 81.757812 C 36.492188 81.757812 40.199219 78.050781 40.199219 73.5 L 40.199219 68.082031 C 40.199219 63.527344 36.496094 59.824219 31.941406 59.824219 Z M 31.941406 59.824219 " fill-opacity="1" fill-rule="nonzero"/></g><g clip-path="url(#83488a3b2b)"><path fill="#62646f" d="M 89.484375 86.550781 C 82.289062 86.550781 76.433594 80.695312 76.433594 73.5 L 76.433594 68.082031 C 76.433594 60.886719 82.289062 55.027344 89.484375 55.027344 C 94.925781 55.027344 99.347656 59.453125 99.347656 64.890625 L 99.347656 76.691406 C 99.347656 82.128906 94.925781 86.554688 89.484375 86.554688 Z M 89.484375 59.824219 C 84.933594 59.824219 81.230469 63.53125 81.230469 68.082031 L 81.230469 73.5 C 81.230469 78.054688 84.929688 81.757812 89.484375 81.757812 C 92.277344 81.757812 94.550781 79.484375 94.550781 76.695312 L 94.550781 64.894531 C 94.550781 62.097656 92.277344 59.828125 89.484375 59.828125 Z M 89.484375 59.824219 " fill-opacity="1" fill-rule="nonzero"/></g><path fill="#62646f" d="M 76.167969 102.539062 L 63.347656 102.539062 C 62.023438 102.539062 60.949219 101.464844 60.949219 100.140625 C 60.949219 98.816406 62.023438 97.742188 63.347656 97.742188 L 76.167969 97.742188 C 83.074219 97.742188 88.691406 92.125 88.691406 85.21875 C 88.691406 83.894531 89.765625 82.820312 91.089844 82.820312 C 92.414062 82.820312 93.488281 83.894531 93.488281 85.21875 C 93.488281 94.769531 85.71875 102.539062 76.171875 102.539062 Z M 76.167969 102.539062 " fill-opacity="1" fill-rule="nonzero"/><g clip-path="url(#354d4314b7)"><path fill="#62646f" d="M 68.90625 95.4375 L 54.652344 95.4375 C 52.113281 95.4375 50.054688 97.496094 50.054688 100.035156 C 50.054688 102.570312 52.113281 104.628906 54.652344 104.628906 L 68.90625 104.628906 C 71.445312 104.628906 73.5 102.570312 73.5 100.035156 C 73.5 97.496094 71.445312 95.4375 68.90625 95.4375 Z M 68.90625 95.4375 " fill-opacity="1" fill-rule="nonzero"/></g></svg>