<svg xmlns="http://www.w3.org/2000/svg" xmlns:xlink="http://www.w3.org/1999/xlink" width="163" zoomAndPan="magnify" viewBox="0 0 122.25 122.250003" height="163" preserveAspectRatio="xMidYMid meet" version="1.0"><defs><clipPath id="c1edc3256b"><path d="M 0 0 L 121.449219 0 L 121.449219 121.449219 L 0 121.449219 Z M 0 0 " clip-rule="nonzero"/></clipPath><clipPath id="7af07223a9"><path d="M 11.179688 0 L 110.269531 0 C 116.445312 0 121.449219 5.007812 121.449219 11.179688 L 121.449219 110.269531 C 121.449219 116.445312 116.445312 121.449219 110.269531 121.449219 L 11.179688 121.449219 C 5.007812 121.449219 0 116.445312 0 110.269531 L 0 11.179688 C 0 5.007812 5.007812 0 11.179688 0 Z M 11.179688 0 " clip-rule="nonzero"/></clipPath><clipPath id="61b3cbc6e2"><path d="M 36.339844 27.613281 L 84.792969 27.613281 L 84.792969 93.953125 L 36.339844 93.953125 Z M 36.339844 27.613281 " clip-rule="nonzero"/></clipPath></defs><g clip-path="url(#c1edc3256b)"><g clip-path="url(#7af07223a9)"><path fill="#ffca55" d="M 0 0 L 121.449219 0 L 121.449219 121.449219 L 0 121.449219 Z M 0 0 " fill-opacity="1" fill-rule="nonzero"/></g></g><g clip-path="url(#61b3cbc6e2)"><path fill="#ffffff" d="M 60.71875 69.425781 C 66.484375 69.425781 71.132812 64.742188 71.132812 58.976562 L 71.167969 38.082031 C 71.167969 32.300781 66.5 27.636719 60.71875 27.636719 C 54.957031 27.636719 50.273438 32.300781 50.273438 38.082031 L 50.273438 58.976562 C 50.273438 64.742188 54.957031 69.425781 60.71875 69.425781 Z M 79.175781 58.976562 C 79.175781 69.425781 70.347656 76.738281 60.71875 76.738281 C 51.109375 76.738281 42.261719 69.425781 42.261719 58.976562 L 36.339844 58.976562 C 36.339844 70.871094 45.8125 80.691406 57.238281 82.378906 L 57.238281 93.804688 L 64.203125 93.804688 L 64.203125 82.378906 C 75.625 80.691406 85.097656 70.871094 85.097656 58.976562 Z M 79.175781 58.976562 " fill-opacity="1" fill-rule="nonzero"/></g></svg>