<svg xmlns="http://www.w3.org/2000/svg" xmlns:xlink="http://www.w3.org/1999/xlink" width="163" zoomAndPan="magnify" viewBox="0 0 122.25 122.250003" height="163" preserveAspectRatio="xMidYMid meet" version="1.0"><defs><clipPath id="cf433fb05a"><path d="M 0 0 L 121.449219 0 L 121.449219 121.449219 L 0 121.449219 Z M 0 0 " clip-rule="nonzero"/></clipPath><clipPath id="a057d20fb3"><path d="M 11.179688 0 L 110.269531 0 C 116.445312 0 121.449219 5.007812 121.449219 11.179688 L 121.449219 110.269531 C 121.449219 116.445312 116.445312 121.449219 110.269531 121.449219 L 11.179688 121.449219 C 5.007812 121.449219 0 116.445312 0 110.269531 L 0 11.179688 C 0 5.007812 5.007812 0 11.179688 0 Z M 11.179688 0 " clip-rule="nonzero"/></clipPath><clipPath id="6ac6ce2448"><path d="M 26 27.613281 L 95 27.613281 L 95 90.226562 L 26 90.226562 Z M 26 27.613281 " clip-rule="nonzero"/></clipPath><clipPath id="f7755e5c58"><path d="M 20.640625 69 L 25 69 L 25 83 L 20.640625 83 Z M 20.640625 69 " clip-rule="nonzero"/></clipPath><clipPath id="98f7e45d6f"><path d="M 95 69 L 99.65625 69 L 99.65625 83 L 95 83 Z M 95 69 " clip-rule="nonzero"/></clipPath></defs><g clip-path="url(#cf433fb05a)"><g clip-path="url(#a057d20fb3)"><path fill="#fd7377" d="M 0 0 L 121.449219 0 L 121.449219 121.449219 L 0 121.449219 Z M 0 0 " fill-opacity="1" fill-rule="nonzero"/></g></g><g clip-path="url(#6ac6ce2448)"><path fill="#ffffff" d="M 94.203125 67.625 C 94.433594 64.351562 95.039062 47.855469 85.085938 37.007812 C 79.210938 30.605469 70.859375 27.460938 60.257812 27.667969 C 49.660156 27.46875 41.304688 30.605469 35.429688 37.007812 C 25.726562 47.582031 26.058594 63.515625 26.296875 67.351562 C 26.15625 67.882812 26.078125 68.441406 26.078125 69.015625 L 26.078125 83.722656 C 26.078125 87.289062 28.953125 90.179688 32.496094 90.179688 L 36.953125 90.179688 C 40.496094 90.179688 43.371094 87.289062 43.371094 83.722656 L 43.371094 69.015625 C 43.371094 65.449219 40.496094 62.558594 36.953125 62.558594 L 32.496094 62.558594 C 32.011719 62.558594 31.542969 62.613281 31.089844 62.714844 C 31.332031 56.851562 32.746094 47.058594 38.984375 40.277344 C 43.890625 34.9375 51.046875 32.320312 60.210938 32.511719 L 60.308594 32.511719 C 69.472656 32.328125 76.625 34.9375 81.535156 40.277344 C 87.777344 47.066406 89.1875 56.871094 89.429688 62.734375 C 88.949219 62.621094 88.449219 62.558594 87.9375 62.558594 L 83.480469 62.558594 C 79.933594 62.558594 77.0625 65.449219 77.0625 69.015625 L 77.0625 83.722656 C 77.0625 87.289062 79.933594 90.179688 83.480469 90.179688 L 87.9375 90.179688 C 91.480469 90.179688 94.355469 87.289062 94.355469 83.722656 L 94.355469 69.015625 C 94.351562 68.539062 94.300781 68.074219 94.203125 67.625 Z M 94.203125 67.625 " fill-opacity="1" fill-rule="nonzero"/></g><g clip-path="url(#f7755e5c58)"><path fill="#ffffff" d="M 24.519531 69.375 L 20.640625 71.660156 L 20.640625 80.40625 L 24.519531 82.960938 " fill-opacity="1" fill-rule="nonzero"/></g><g clip-path="url(#98f7e45d6f)"><path fill="#ffffff" d="M 95.78125 69.375 L 99.65625 71.660156 L 99.65625 80.40625 L 95.78125 82.960938 " fill-opacity="1" fill-rule="nonzero"/></g></svg>