<svg xmlns="http://www.w3.org/2000/svg" xmlns:xlink="http://www.w3.org/1999/xlink" width="163" zoomAndPan="magnify" viewBox="0 0 122.25 122.250003" height="163" preserveAspectRatio="xMidYMid meet" version="1.0"><defs><clipPath id="1377cefcc0"><path d="M 0 0 L 121.449219 0 L 121.449219 121.449219 L 0 121.449219 Z M 0 0 " clip-rule="nonzero"/></clipPath><clipPath id="9b72f60e78"><path d="M 11.179688 0 L 110.269531 0 C 116.445312 0 121.449219 5.007812 121.449219 11.179688 L 121.449219 110.269531 C 121.449219 116.445312 116.445312 121.449219 110.269531 121.449219 L 11.179688 121.449219 C 5.007812 121.449219 0 116.445312 0 110.269531 L 0 11.179688 C 0 5.007812 5.007812 0 11.179688 0 Z M 11.179688 0 " clip-rule="nonzero"/></clipPath><clipPath id="2bec9f7e6d"><path d="M 24 32.0625 L 97.941406 32.0625 L 97.941406 90.953125 L 24 90.953125 Z M 24 32.0625 " clip-rule="nonzero"/></clipPath></defs><g clip-path="url(#1377cefcc0)"><g clip-path="url(#9b72f60e78)"><path fill="#7a8ffa" d="M 0 0 L 121.449219 0 L 121.449219 121.449219 L 0 121.449219 Z M 0 0 " fill-opacity="1" fill-rule="nonzero"/></g></g><g clip-path="url(#2bec9f7e6d)"><path fill="#ffffff" d="M 25.46875 74.570312 C 29.527344 74.570312 33.585938 74.570312 37.644531 74.570312 C 38.339844 74.570312 38.910156 74.101562 39.113281 73.453125 C 41.648438 65.335938 44.1875 57.21875 46.722656 49.101562 C 45.746094 49.101562 44.765625 49.101562 43.789062 49.101562 C 46.832031 57.554688 49.875 66.011719 52.921875 74.464844 C 53.40625 75.8125 55.460938 76.019531 55.855469 74.464844 C 59.238281 61.105469 62.621094 47.746094 66 34.386719 C 65.023438 34.386719 64.042969 34.386719 63.066406 34.386719 C 66.28125 52.652344 69.492188 70.914062 72.707031 89.179688 C 72.929688 90.453125 74.933594 90.6875 75.488281 89.542969 C 77.929688 84.492188 80.375 79.445312 82.816406 74.394531 C 83.425781 73.140625 80.925781 74.570312 82.570312 74.570312 C 84.171875 74.570312 85.773438 74.570312 87.375 74.570312 C 90.246094 74.570312 93.117188 74.570312 95.988281 74.570312 C 97.949219 74.570312 97.949219 71.527344 95.988281 71.527344 C 91.253906 71.527344 86.519531 71.527344 81.78125 71.527344 C 81.28125 71.527344 80.695312 71.808594 80.46875 72.28125 C 77.933594 77.519531 75.394531 82.761719 72.859375 88.007812 C 73.785156 88.128906 74.714844 88.25 75.640625 88.371094 C 72.425781 70.105469 69.214844 51.84375 66 33.578125 C 65.734375 32.058594 63.417969 32.1875 63.066406 33.578125 C 59.683594 46.9375 56.300781 60.296875 52.921875 73.65625 C 53.898438 73.65625 54.875 73.65625 55.855469 73.65625 C 52.8125 65.203125 49.765625 56.746094 46.722656 48.292969 C 46.21875 46.890625 44.253906 46.796875 43.789062 48.292969 C 41.25 56.410156 38.714844 64.527344 36.179688 72.644531 C 36.667969 72.269531 37.15625 71.898438 37.644531 71.527344 C 33.585938 71.527344 29.527344 71.527344 25.46875 71.527344 C 23.507812 71.527344 23.507812 74.570312 25.46875 74.570312 Z M 25.46875 74.570312 " fill-opacity="1" fill-rule="nonzero"/></g></svg>