<svg xmlns="http://www.w3.org/2000/svg" xmlns:xlink="http://www.w3.org/1999/xlink" width="163" zoomAndPan="magnify" viewBox="0 0 122.25 122.250003" height="163" preserveAspectRatio="xMidYMid meet" version="1.0"><defs><clipPath id="ca1feb8c7c"><path d="M 0 0 L 121.449219 0 L 121.449219 121.449219 L 0 121.449219 Z M 0 0 " clip-rule="nonzero"/></clipPath><clipPath id="bbfdfc7ce5"><path d="M 11.179688 0 L 110.269531 0 C 116.445312 0 121.449219 5.007812 121.449219 11.179688 L 121.449219 110.269531 C 121.449219 116.445312 116.445312 121.449219 110.269531 121.449219 L 11.179688 121.449219 C 5.007812 121.449219 0 116.445312 0 110.269531 L 0 11.179688 C 0 5.007812 5.007812 0 11.179688 0 Z M 11.179688 0 " clip-rule="nonzero"/></clipPath><clipPath id="69e7f175d4"><path d="M 27 16.570312 L 88 16.570312 L 88 100.804688 L 27 100.804688 Z M 27 16.570312 " clip-rule="nonzero"/></clipPath><clipPath id="46e6aea681"><path d="M 96 28 L 105.839844 28 L 105.839844 39 L 96 39 Z M 96 28 " clip-rule="nonzero"/></clipPath></defs><g clip-path="url(#ca1feb8c7c)"><g clip-path="url(#bbfdfc7ce5)"><path fill="#ffffff" d="M 0 0 L 121.449219 0 L 121.449219 121.449219 L 0 121.449219 Z M 0 0 " fill-opacity="1" fill-rule="nonzero"/></g></g><path fill="#ffffff" d="M 37.863281 48.433594 L 77.875 48.433594 L 77.875 51.3125 L 37.863281 51.3125 Z M 37.863281 48.433594 " fill-opacity="1" fill-rule="nonzero"/><g clip-path="url(#69e7f175d4)"><path fill="#ffffff" d="M 83.078125 68.671875 L 83.078125 96.390625 L 31.832031 96.390625 L 31.832031 28.5 L 37.3125 28.5 L 37.3125 30.820312 C 37.3125 32.484375 38.664062 33.835938 40.328125 33.835938 C 41.992188 33.835938 43.339844 32.484375 43.339844 30.820312 L 43.339844 28.5 L 54.441406 28.5 L 54.441406 30.820312 C 54.441406 32.484375 55.789062 33.835938 57.453125 33.835938 C 59.121094 33.835938 60.46875 32.484375 60.46875 30.820312 L 60.46875 28.5 L 72.324219 28.5 L 72.324219 30.820312 C 72.324219 32.484375 73.671875 33.835938 75.335938 33.835938 C 77.003906 33.835938 78.351562 32.484375 78.351562 30.820312 L 78.351562 28.5 L 83.078125 28.5 L 83.078125 45.210938 L 87.734375 39.085938 L 87.734375 23.84375 L 78.351562 23.84375 L 78.351562 19.585938 C 78.351562 17.921875 77.003906 16.570312 75.339844 16.570312 C 73.671875 16.570312 72.324219 17.921875 72.324219 19.585938 L 72.324219 23.84375 L 60.46875 23.84375 L 60.46875 19.585938 C 60.46875 17.921875 59.121094 16.570312 57.453125 16.570312 C 55.789062 16.570312 54.441406 17.921875 54.441406 19.585938 L 54.441406 23.84375 L 43.339844 23.84375 L 43.339844 19.585938 C 43.339844 17.921875 41.992188 16.570312 40.328125 16.570312 C 38.660156 16.570312 37.3125 17.921875 37.3125 19.585938 L 37.3125 23.84375 L 27.171875 23.84375 L 27.171875 101.050781 L 87.734375 101.050781 L 87.734375 62.546875 Z M 83.078125 68.671875 " fill-opacity="1" fill-rule="nonzero"/></g><path fill="#ffffff" d="M 37.863281 56.3125 L 66.226562 56.3125 L 66.226562 59.191406 L 37.863281 59.191406 Z M 37.863281 56.3125 " fill-opacity="1" fill-rule="nonzero"/><path fill="#ffffff" d="M 37.863281 40.828125 L 77.875 40.828125 L 77.875 43.707031 L 37.863281 43.707031 Z M 37.863281 40.828125 " fill-opacity="1" fill-rule="nonzero"/><path fill="#ffffff" d="M 65.359375 85.871094 L 59.921875 81.734375 L 58.742188 88.929688 Z M 65.359375 85.871094 " fill-opacity="1" fill-rule="nonzero"/><path fill="#ffffff" d="M 100.347656 40.777344 L 67.683594 83.707031 L 61.390625 78.914062 L 94.054688 35.988281 Z M 100.347656 40.777344 " fill-opacity="1" fill-rule="nonzero"/><g clip-path="url(#46e6aea681)"><path fill="#ffffff" d="M 103.9375 29.519531 C 102.273438 28.25 99.847656 28.363281 98.789062 29.75 L 96 33.421875 L 102.296875 38.210938 L 105.089844 34.539062 C 106.191406 33.09375 105.675781 30.839844 103.9375 29.519531 Z M 103.9375 29.519531 " fill-opacity="1" fill-rule="nonzero"/></g></svg>