<svg xmlns="http://www.w3.org/2000/svg" xmlns:xlink="http://www.w3.org/1999/xlink" width="163" zoomAndPan="magnify" viewBox="0 0 122.25 122.250003" height="163" preserveAspectRatio="xMidYMid meet" version="1.0"><defs><clipPath id="6a48132043"><path d="M 0 0 L 121.449219 0 L 121.449219 121.449219 L 0 121.449219 Z M 0 0 " clip-rule="nonzero"/></clipPath><clipPath id="0229a5635f"><path d="M 11.179688 0 L 110.269531 0 C 116.445312 0 121.449219 5.007812 121.449219 11.179688 L 121.449219 110.269531 C 121.449219 116.445312 116.445312 121.449219 110.269531 121.449219 L 11.179688 121.449219 C 5.007812 121.449219 0 116.445312 0 110.269531 L 0 11.179688 C 0 5.007812 5.007812 0 11.179688 0 Z M 11.179688 0 " clip-rule="nonzero"/></clipPath><clipPath id="a2f9d05965"><path d="M 32 21.757812 L 86 21.757812 L 86 95.554688 L 32 95.554688 Z M 32 21.757812 " clip-rule="nonzero"/></clipPath></defs><g clip-path="url(#6a48132043)"><g clip-path="url(#0229a5635f)"><path fill="#7bd2cd" d="M 0 0 L 121.449219 0 L 121.449219 121.449219 L 0 121.449219 Z M 0 0 " fill-opacity="1" fill-rule="nonzero"/></g></g><path fill="#ffffff" d="M 41.375 49.703125 L 76.472656 49.703125 L 76.472656 52.226562 L 41.375 52.226562 Z M 41.375 49.703125 " fill-opacity="1" fill-rule="nonzero"/><g clip-path="url(#a2f9d05965)"><path fill="#ffffff" d="M 81.035156 67.453125 L 81.035156 91.769531 L 36.085938 91.769531 L 36.085938 32.21875 L 40.890625 32.21875 L 40.890625 34.253906 C 40.890625 35.714844 42.078125 36.898438 43.535156 36.898438 C 44.996094 36.898438 46.179688 35.714844 46.179688 34.253906 L 46.179688 32.21875 L 55.914062 32.21875 L 55.914062 34.253906 C 55.914062 35.714844 57.101562 36.898438 58.558594 36.898438 C 60.019531 36.898438 61.203125 35.714844 61.203125 34.253906 L 61.203125 32.21875 L 71.601562 32.21875 L 71.601562 34.253906 C 71.601562 35.714844 72.785156 36.898438 74.246094 36.898438 C 75.707031 36.898438 76.886719 35.714844 76.886719 34.253906 L 76.886719 32.21875 L 81.035156 32.21875 L 81.035156 46.878906 L 85.121094 41.507812 L 85.121094 28.132812 L 76.890625 28.132812 L 76.890625 24.398438 C 76.890625 22.941406 75.707031 21.757812 74.246094 21.757812 C 72.785156 21.757812 71.601562 22.941406 71.601562 24.398438 L 71.601562 28.132812 L 61.203125 28.132812 L 61.203125 24.398438 C 61.203125 22.941406 60.019531 21.757812 58.558594 21.757812 C 57.101562 21.757812 55.914062 22.941406 55.914062 24.398438 L 55.914062 28.132812 L 46.179688 28.132812 L 46.179688 24.398438 C 46.179688 22.941406 44.996094 21.757812 43.535156 21.757812 C 42.074219 21.757812 40.890625 22.941406 40.890625 24.398438 L 40.890625 28.132812 L 32 28.132812 L 32 95.855469 L 85.121094 95.855469 L 85.121094 62.082031 Z M 81.035156 67.453125 " fill-opacity="1" fill-rule="nonzero"/></g><path fill="#ffffff" d="M 41.375 56.613281 L 66.253906 56.613281 L 66.253906 59.140625 L 41.375 59.140625 Z M 41.375 56.613281 " fill-opacity="1" fill-rule="nonzero"/><path fill="#ffffff" d="M 41.375 43.03125 L 76.472656 43.03125 L 76.472656 45.558594 L 41.375 45.558594 Z M 41.375 43.03125 " fill-opacity="1" fill-rule="nonzero"/><path fill="#ffffff" d="M 65.492188 82.542969 L 60.726562 78.914062 L 59.6875 85.226562 Z M 65.492188 82.542969 " fill-opacity="1" fill-rule="nonzero"/><path fill="#ffffff" d="M 96.183594 42.988281 L 67.535156 80.644531 L 62.011719 76.441406 L 90.664062 38.785156 Z M 96.183594 42.988281 " fill-opacity="1" fill-rule="nonzero"/><path fill="#ffffff" d="M 99.332031 33.113281 C 97.871094 32 95.746094 32.097656 94.816406 33.316406 L 92.371094 36.535156 L 97.894531 40.738281 L 100.34375 37.519531 C 101.308594 36.25 100.855469 34.273438 99.332031 33.113281 Z M 99.332031 33.113281 " fill-opacity="1" fill-rule="nonzero"/></svg>