<svg xmlns="http://www.w3.org/2000/svg" xmlns:xlink="http://www.w3.org/1999/xlink" width="536" zoomAndPan="magnify" viewBox="0 0 402 401.999985" height="536" preserveAspectRatio="xMidYMid meet" version="1.0"><defs><clipPath id="ed777b7382"><path d="M 201 0 C 89.992188 0 0 89.992188 0 201 C 0 312.007812 89.992188 402 201 402 C 312.007812 402 402 312.007812 402 201 C 402 89.992188 312.007812 0 201 0 Z M 201 0 " clip-rule="nonzero"/></clipPath><clipPath id="5170d799fe"><path d="M 21 21 L 381 21 L 381 381 L 21 381 Z M 21 21 " clip-rule="nonzero"/></clipPath></defs><g clip-path="url(#ed777b7382)"><rect x="-40.2" width="482.4" fill="#47a1a8" y="-40.199999" height="482.399982" fill-opacity="1"/></g><g clip-path="url(#5170d799fe)"><path fill="#ffffff" d="M 201.023438 31.402344 C 107.496094 31.402344 31.40625 107.496094 31.40625 201.019531 C 31.40625 294.546875 107.496094 370.632812 201.023438 370.632812 C 294.546875 370.632812 370.640625 294.546875 370.640625 201.019531 C 370.640625 107.496094 294.546875 31.402344 201.023438 31.402344 Z M 201.023438 381.046875 C 101.757812 381.046875 21 300.289062 21 201.019531 C 21 101.753906 101.757812 20.996094 201.023438 20.996094 C 300.289062 20.996094 381.046875 101.753906 381.046875 201.019531 C 381.046875 300.289062 300.289062 381.046875 201.023438 381.046875 " fill-opacity="1" fill-rule="nonzero"/></g><path fill="#ffffff" d="M 289.667969 201.019531 L 151.78125 121.410156 L 151.78125 280.628906 L 289.667969 201.019531 L 151.78125 121.410156 L 151.78125 280.628906 L 289.667969 201.019531 " fill-opacity="1" fill-rule="nonzero"/></svg>