<svg xmlns="http://www.w3.org/2000/svg" xmlns:xlink="http://www.w3.org/1999/xlink" width="1000" zoomAndPan="magnify" viewBox="0 0 750 290.999983" height="388" preserveAspectRatio="xMidYMid meet" version="1.0"><defs><g/><clipPath id="069d577130"><path d="M 69 42.191406 L 228.75 42.191406 L 228.75 248 L 69 248 Z M 69 42.191406 " clip-rule="nonzero"/></clipPath></defs><path fill="#62646f" d="M 12.53125 133.824219 L 149.214844 133.824219 L 149.214844 156.605469 L 12.53125 156.605469 Z M 12.53125 133.824219 " fill-opacity="1" fill-rule="evenodd"/><path fill="#62646f" d="M 44.339844 97.296875 L 4.472656 137.160156 C 0.0273438 141.609375 0.0273438 148.824219 4.472656 153.269531 L 44.339844 193.136719 L 60.449219 177.027344 L 28.636719 145.214844 L 60.449219 113.402344 Z M 44.339844 97.296875 " fill-opacity="1" fill-rule="evenodd"/><g clip-path="url(#069d577130)"><path fill="#62646f" d="M 69.480469 54.09375 C 69.480469 47.800781 74.582031 42.703125 80.871094 42.703125 L 217.558594 42.703125 C 223.851562 42.703125 228.949219 47.800781 228.949219 54.09375 L 228.949219 236.339844 C 228.949219 242.632812 223.851562 247.730469 217.558594 247.730469 L 80.871094 247.730469 C 74.582031 247.730469 69.480469 242.632812 69.480469 236.339844 L 69.480469 202.167969 L 92.261719 202.167969 L 92.261719 224.949219 L 206.167969 224.949219 L 206.167969 65.484375 L 92.261719 65.484375 L 92.261719 88.265625 L 69.480469 88.265625 Z M 69.480469 54.09375 " fill-opacity="1" fill-rule="evenodd"/></g><g fill="#62646f" fill-opacity="1"><g transform="translate(284.584741, 206.793982)"><g><path d="M 107.328125 -37.066406 C 107.328125 -29.597656 105.40625 -22.886719 101.558594 -16.933594 C 97.710938 -10.980469 92.082031 -6.320312 84.667969 -2.949219 C 77.253906 0.421875 68.464844 2.105469 58.296875 2.105469 C 46.109375 2.105469 36.058594 -0.195312 28.136719 -4.800781 C 22.523438 -8.117188 17.957031 -12.539062 14.449219 -18.070312 C 10.9375 -23.601562 9.183594 -28.980469 9.183594 -34.203125 C 9.183594 -37.238281 10.234375 -39.835938 12.34375 -41.996094 C 14.449219 -44.160156 17.128906 -45.238281 20.386719 -45.238281 C 23.027344 -45.238281 25.257812 -44.398438 27.085938 -42.710938 C 28.910156 -41.027344 30.46875 -38.527344 31.761719 -35.214844 C 33.332031 -31.28125 35.03125 -27.996094 36.859375 -25.359375 C 38.683594 -22.71875 41.253906 -20.542969 44.566406 -18.828125 C 47.878906 -17.117188 52.230469 -16.257812 57.625 -16.257812 C 65.039062 -16.257812 71.0625 -17.988281 75.695312 -21.441406 C 80.328125 -24.894531 82.644531 -29.207031 82.644531 -34.371094 C 82.644531 -38.472656 81.394531 -41.800781 78.894531 -44.355469 C 76.398438 -46.910156 73.167969 -48.863281 69.207031 -50.210938 C 65.25 -51.558594 59.953125 -52.992188 53.328125 -54.507812 C 44.453125 -56.585938 37.027344 -59.015625 31.042969 -61.792969 C 25.0625 -64.574219 20.316406 -68.367188 16.808594 -73.167969 C 13.296875 -77.96875 11.542969 -83.9375 11.542969 -91.070312 C 11.542969 -97.867188 13.394531 -103.902344 17.101562 -109.183594 C 20.808594 -114.460938 26.171875 -118.519531 33.191406 -121.355469 C 40.214844 -124.191406 48.46875 -125.609375 57.960938 -125.609375 C 65.542969 -125.609375 72.101562 -124.667969 77.632812 -122.789062 C 83.164062 -120.90625 87.753906 -118.40625 91.40625 -115.289062 C 95.058594 -112.171875 97.726562 -108.902344 99.410156 -105.476562 C 101.09375 -102.050781 101.9375 -98.707031 101.9375 -95.449219 C 101.9375 -92.472656 100.882812 -89.792969 98.777344 -87.40625 C 96.671875 -85.019531 94.046875 -83.824219 90.902344 -83.824219 C 88.035156 -83.824219 85.859375 -84.539062 84.371094 -85.972656 C 82.882812 -87.40625 81.269531 -89.75 79.527344 -93.007812 C 77.28125 -97.667969 74.585938 -101.304688 71.441406 -103.917969 C 68.296875 -106.527344 63.242188 -107.835938 56.277344 -107.835938 C 49.816406 -107.835938 44.609375 -106.417969 40.648438 -103.578125 C 36.6875 -100.742188 34.710938 -97.332031 34.710938 -93.34375 C 34.710938 -90.871094 35.382812 -88.738281 36.730469 -86.941406 C 38.078125 -85.144531 39.933594 -83.601562 42.292969 -82.308594 C 44.648438 -81.015625 47.035156 -80.003906 49.453125 -79.273438 C 51.867188 -78.546875 55.855469 -77.476562 61.414062 -76.074219 C 68.378906 -74.445312 74.683594 -72.648438 80.328125 -70.683594 C 85.972656 -68.714844 90.773438 -66.328125 94.734375 -63.519531 C 98.695312 -60.714844 101.78125 -57.160156 104 -52.863281 C 106.21875 -48.566406 107.328125 -43.300781 107.328125 -37.066406 Z M 107.328125 -37.066406 "/></g></g></g><g fill="#62646f" fill-opacity="1"><g transform="translate(399.658822, 206.793982)"><g><path d="M 70.007812 -10.867188 C 64.449219 -6.542969 59.070312 -3.300781 53.875 -1.136719 C 48.679688 1.023438 42.851562 2.105469 36.394531 2.105469 C 30.496094 2.105469 25.316406 0.941406 20.851562 -1.390625 C 16.386719 -3.722656 12.945312 -6.878906 10.53125 -10.867188 C 8.117188 -14.855469 6.90625 -19.179688 6.90625 -23.839844 C 6.90625 -30.132812 8.902344 -35.496094 12.890625 -39.933594 C 16.878906 -44.371094 22.351562 -47.347656 29.316406 -48.863281 C 30.777344 -49.199219 34.398438 -49.957031 40.183594 -51.136719 C 45.96875 -52.316406 50.925781 -53.398438 55.054688 -54.378906 C 59.183594 -55.363281 63.660156 -56.558594 68.492188 -57.960938 C 68.210938 -64.027344 66.988281 -68.476562 64.828125 -71.3125 C 62.664062 -74.148438 58.1875 -75.566406 51.390625 -75.566406 C 45.546875 -75.566406 41.152344 -74.753906 38.207031 -73.125 C 35.257812 -71.496094 32.730469 -69.054688 30.625 -65.796875 C 28.515625 -62.539062 27.027344 -60.390625 26.160156 -59.351562 C 25.289062 -58.3125 23.421875 -57.792969 20.554688 -57.792969 C 17.972656 -57.792969 15.738281 -58.621094 13.859375 -60.277344 C 11.976562 -61.933594 11.035156 -64.054688 11.035156 -66.636719 C 11.035156 -70.683594 12.46875 -74.613281 15.332031 -78.433594 C 18.195312 -82.25 22.660156 -85.398438 28.726562 -87.867188 C 34.792969 -90.339844 42.347656 -91.574219 51.390625 -91.574219 C 61.5 -91.574219 69.445312 -90.382812 75.230469 -87.996094 C 81.015625 -85.609375 85.101562 -81.832031 87.488281 -76.664062 C 89.875 -71.496094 91.070312 -64.644531 91.070312 -56.109375 C 91.070312 -50.714844 91.054688 -46.136719 91.027344 -42.375 C 91 -38.613281 90.957031 -34.429688 90.902344 -29.824219 C 90.902344 -25.5 91.617188 -20.992188 93.050781 -16.300781 C 94.480469 -11.613281 95.199219 -8.59375 95.199219 -7.246094 C 95.199219 -4.886719 94.089844 -2.738281 91.871094 -0.800781 C 89.652344 1.136719 87.136719 2.105469 84.328125 2.105469 C 81.972656 2.105469 79.640625 0.996094 77.335938 -1.222656 C 75.035156 -3.441406 72.589844 -6.65625 70.007812 -10.867188 Z M 68.492188 -44.144531 C 65.121094 -42.910156 60.222656 -41.601562 53.789062 -40.226562 C 47.359375 -38.851562 42.910156 -37.839844 40.4375 -37.195312 C 37.964844 -36.546875 35.609375 -35.285156 33.359375 -33.402344 C 31.113281 -31.523438 29.992188 -28.894531 29.992188 -25.527344 C 29.992188 -22.042969 31.3125 -19.082031 33.949219 -16.636719 C 36.589844 -14.195312 40.042969 -12.972656 44.3125 -12.972656 C 48.863281 -12.972656 53.0625 -13.972656 56.90625 -15.964844 C 60.753906 -17.957031 63.578125 -20.527344 65.375 -23.671875 C 67.453125 -27.15625 68.492188 -32.882812 68.492188 -40.859375 Z M 68.492188 -44.144531 "/></g></g></g><g fill="#62646f" fill-opacity="1"><g transform="translate(502.18091, 206.793982)"><g><path d="M 11.878906 -11.878906 L 11.878906 -111.625 C 11.878906 -116.230469 12.902344 -119.714844 14.953125 -122.070312 C 17.003906 -124.429688 19.769531 -125.609375 23.25 -125.609375 C 26.734375 -125.609375 29.542969 -124.445312 31.675781 -122.113281 C 33.8125 -119.78125 34.878906 -116.285156 34.878906 -111.625 L 34.878906 -11.878906 C 34.878906 -7.21875 33.796875 -3.722656 31.632812 -1.390625 C 29.472656 0.941406 26.679688 2.105469 23.25 2.105469 C 19.882812 2.105469 17.144531 0.898438 15.039062 -1.515625 C 12.933594 -3.929688 11.878906 -7.386719 11.878906 -11.878906 Z M 11.878906 -11.878906 "/></g></g></g><g fill="#62646f" fill-opacity="1"><g transform="translate(548.935032, 206.793982)"><g><path d="M 34.878906 -78.347656 L 34.878906 -11.878906 C 34.878906 -7.273438 33.78125 -3.792969 31.59375 -1.433594 C 29.402344 0.925781 26.621094 2.105469 23.25 2.105469 C 19.882812 2.105469 17.144531 0.898438 15.039062 -1.515625 C 12.933594 -3.929688 11.878906 -7.386719 11.878906 -11.878906 L 11.878906 -77.675781 C 11.878906 -82.222656 12.933594 -85.648438 15.039062 -87.953125 C 17.144531 -90.253906 19.882812 -91.40625 23.25 -91.40625 C 26.621094 -91.40625 29.402344 -90.253906 31.59375 -87.953125 C 33.78125 -85.648438 34.878906 -82.449219 34.878906 -78.347656 Z M 23.503906 -102.105469 C 20.304688 -102.105469 17.566406 -103.089844 15.289062 -105.054688 C 13.015625 -107.019531 11.878906 -109.800781 11.878906 -113.394531 C 11.878906 -116.652344 13.042969 -119.332031 15.375 -121.441406 C 17.707031 -123.546875 20.414062 -124.597656 23.503906 -124.597656 C 26.480469 -124.597656 29.121094 -123.644531 31.421875 -121.734375 C 33.726562 -119.824219 34.878906 -117.046875 34.878906 -113.394531 C 34.878906 -109.855469 33.753906 -107.089844 31.507812 -105.097656 C 29.261719 -103.101562 26.59375 -102.105469 23.503906 -102.105469 Z M 23.503906 -102.105469 "/></g></g></g><g fill="#62646f" fill-opacity="1"><g transform="translate(595.689154, 206.793982)"><g><path d="M 34.710938 -31.085938 L 34.710938 -11.878906 C 34.710938 -7.21875 33.613281 -3.722656 31.421875 -1.390625 C 29.234375 0.941406 26.453125 2.105469 23.082031 2.105469 C 19.769531 2.105469 17.046875 0.925781 14.910156 -1.433594 C 12.777344 -3.792969 11.710938 -7.273438 11.710938 -11.878906 L 11.710938 -75.90625 C 11.710938 -86.238281 15.445312 -91.40625 22.914062 -91.40625 C 26.734375 -91.40625 29.484375 -90.199219 31.171875 -87.785156 C 32.855469 -85.367188 33.78125 -81.800781 33.949219 -77.085938 C 36.703125 -81.800781 39.523438 -85.367188 42.417969 -87.785156 C 45.308594 -90.199219 49.171875 -91.40625 54 -91.40625 C 58.832031 -91.40625 63.519531 -90.199219 68.070312 -87.785156 C 72.621094 -85.367188 74.894531 -82.167969 74.894531 -78.179688 C 74.894531 -75.371094 73.925781 -73.054688 71.988281 -71.230469 C 70.050781 -69.40625 67.957031 -68.492188 65.710938 -68.492188 C 64.867188 -68.492188 62.832031 -69.011719 59.605469 -70.050781 C 56.375 -71.089844 53.523438 -71.609375 51.054688 -71.609375 C 47.683594 -71.609375 44.929688 -70.722656 42.796875 -68.953125 C 40.664062 -67.1875 39.003906 -64.558594 37.828125 -61.078125 C 36.648438 -57.597656 35.832031 -53.453125 35.382812 -48.652344 C 34.933594 -43.851562 34.710938 -37.996094 34.710938 -31.085938 Z M 34.710938 -31.085938 "/></g></g></g></svg>