<?xml version="1.0" encoding="utf-8"?>
<!-- Generator: Adobe Illustrator 24.0.2, SVG Export Plug-In . SVG Version: 6.00 Build 0)  -->
<svg version="1.1" id="Capa_1" xmlns="http://www.w3.org/2000/svg" xmlns:xlink="http://www.w3.org/1999/xlink" x="0px" y="0px"
	 width="355px" height="305px" viewBox="0 0 355 305" style="enable-background:new 0 0 355 305;" xml:space="preserve">
<style type="text/css">
	.st0{fill:#FFFFFF;}
	.st1{fill:#47A1A8;}
	.st2{fill:#287577;}
</style>
<g>
	<g>
		<path class="st1" d="M118.4,275c-11-0.6-24.5,1.2-38-0.9c-40-4.8-65.2-48.3-48.5-85.3c4.9-11.5,9.4-17.5,19.1-24.7
			c0.5-0.4,4.8-3.4,5.4-3.7c6.6-3.3,7.4-7.6,7.8-14c0.9-16.9,8.4-30.8,21.3-41.9c14.8-12.7,33.2-12.9,51.1-9.9
			c0.3,0,0.6,0.1,0.9,0.1c2.9,0,4.8-1.1,5.7-4.5c5.5-20.8,17.4-37.5,35.5-48.8c17.9-11.1,37.8-14.7,58.9-12.8
			c31.3,3.3,60.9,24.7,68,56.2c2.3,9.5,4.7,18.7,2.4,28.5c-3,12.9-4.9,26-11.7,37.7c-2.2,3.7-1.9,7.2,2.4,9.8
			c37.6,21.5,38.8,76.9,4.1,101.9c-15.6,12.1-36.3,12.9-55.2,12.4c-15.3,0-30.7,0-46,0c-6.4,0-9.3-2.2-9.4-8.3
			c-0.3-18.8-0.2-37.7-0.1-56.5c0-5,5.2-6.8,10.7-4c2.7,1.4,5.2,2.9,8.3,3.4c4.2,0.6,8.5,1.1,11.5-2.7c2.7-3.4,1.8-11.7-1.4-15
			c-6-6.2-12.2-12.3-18.4-18.4c-4.8-4.6-9.7-9.1-14.5-13.7c-6.9-6.6-14.8-6.6-21.6,0c-9.9,9.6-19.9,19.2-29.8,28.9
			c-4.5,4.7-9.6,9.7-5.6,16.4c1.8,3.3,4.8,5.2,8.7,4.8c4.1-0.4,8.2-1.2,12-3.3c7.3-4,11.1-1.8,11.1,6.2c0,17.8,0,35.7,0,53.5
			c0,6.7-1.9,8.6-8.7,8.7C143.2,275,132,275,118.4,275z"/>
	</g>
	<g>
		<path class="st2" d="M307.8,92.2c-2.9-17.8-10.7-33.2-23.9-45.6c-16.3-15.2-35.4-21.8-57.2-19c-2,0.3-3.7,1.4-4.6,3.2c0,0,0,0,0,0
			c-8.7,17.3-11.6,35.6-9,54.7c2.3,16.8,8.5,32,19.6,44.9c16,18.5,36.1,27.6,60.9,25c0.1-0.1,0.1-0.3,0.2-0.4
			C306.9,136,311.4,115,307.8,92.2z"/>
	</g>
</g>
</svg>
